<?xml version="1.0" encoding="UTF-8" standalone="no"?>
<!-- Created with Inkscape (http://www.inkscape.org/) -->

<svg
   xmlns:dc="http://purl.org/dc/elements/1.1/"
   xmlns:cc="http://creativecommons.org/ns#"
   xmlns:rdf="http://www.w3.org/1999/02/22-rdf-syntax-ns#"
   xmlns:svg="http://www.w3.org/2000/svg"
   xmlns="http://www.w3.org/2000/svg"
   xmlns:sodipodi="http://sodipodi.sourceforge.net/DTD/sodipodi-0.dtd"
   xmlns:inkscape="http://www.inkscape.org/namespaces/inkscape"
   width="564.5mm"
   height="933.26025mm"
   viewBox="0 0 564.50004 933.26023"
   version="1.1"
   id="svg7539"
   inkscape:version="0.92.4 (5da689c313, 2019-01-14)"
   sodipodi:docname="chain.svg">
  <defs
     id="defs7533" />
  <sodipodi:namedview
     id="base"
     pagecolor="#ffffff"
     bordercolor="#666666"
     borderopacity="1.0"
     inkscape:pageopacity="0.0"
     inkscape:pageshadow="2"
     inkscape:zoom="0.04375"
     inkscape:cx="-3052.6557"
     inkscape:cy="3232.2364"
     inkscape:document-units="mm"
     inkscape:current-layer="layer1"
     showgrid="false"
     fit-margin-top="0"
     fit-margin-left="0"
     fit-margin-right="0"
     fit-margin-bottom="0"
     inkscape:window-width="1278"
     inkscape:window-height="1368"
     inkscape:window-x="1273"
     inkscape:window-y="0"
     inkscape:window-maximized="0" />
  <metadata
     id="metadata7536">
    <rdf:RDF>
      <cc:Work
         rdf:about="">
        <dc:format>image/svg+xml</dc:format>
        <dc:type
           rdf:resource="http://purl.org/dc/dcmitype/StillImage" />
        <dc:title></dc:title>
      </cc:Work>
    </rdf:RDF>
  </metadata>
  <g
     inkscape:label="Layer 1"
     inkscape:groupmode="layer"
     id="layer1"
     transform="translate(-1634.1769,1245.728)">
    <g
       id="g4718"
       style="display:inline"
       transform="matrix(99.999698,0,0,-99.999698,-1955.6801,9507.7091)">
      <path
         inkscape:connector-curvature="0"
         style="fill:#000000;fill-opacity:1;stroke:none;stroke-width:0.0048111;stroke-miterlimit:4;stroke-dasharray:none;stroke-opacity:1;paint-order:fill markers stroke"
         d="m 36.768104,106.70858 c 0.193463,0.19699 0.162707,0.52935 -0.04597,0.71012 -0.208679,0.18077 -0.560741,0.14622 -0.725148,-0.0755 -0.07895,-0.10649 -0.112346,-0.24 -0.09289,-0.37112 0.0195,-0.13115 0.0632,-0.22223 0.163415,-0.30904 0.100214,-0.0868 0.230808,-0.13026 0.363045,-0.12077 0.132267,0.009 0.244642,0.0717 0.337546,0.16635 0,0 0,0 0,0 m 2.347246,-3.09655 c 0.241581,0.13361 0.318172,0.47841 0.165485,0.7084 -0.152687,0.23 -0.462916,0.29267 -0.692914,0.13998 -0.110448,-0.0733 -0.187234,-0.18754 -0.213495,-0.31747 -0.02623,-0.12997 1.91e-4,-0.26499 0.07352,-0.37544 0.07332,-0.11045 0.159851,-0.16175 0.287248,-0.19841 0.127416,-0.0367 0.26415,-0.0212 0.380161,0.0429 0,0 0,0 0,0 m 1.563638,-3.56173 c 0.263311,0.0831 0.409397,0.36393 0.326295,0.62724 -0.0831,0.26331 -0.387104,0.41561 -0.646082,0.31985 -0.124366,-0.046 -0.225362,-0.13952 -0.28079,-0.25996 -0.05541,-0.12049 -0.06657,-0.23438 -0.02666,-0.36083 0.03991,-0.12645 0.128413,-0.23187 0.246041,-0.29305 0.117639,-0.0612 0.254751,-0.0731 0.381197,-0.0333 0,0 0,0 0,0"
         id="path12661" />
      <path
         inkscape:connector-curvature="0"
         style="fill:#000000;fill-opacity:1;stroke:none;stroke-width:0.00305076;stroke-miterlimit:4;stroke-dasharray:none;stroke-opacity:1;paint-order:fill markers stroke"
         d="m 37.243035,105.36854 c 0,0 0.772403,-0.0894 0.772403,-0.0894 0,0 0.08945,0.7724 0.08945,0.7724 0,0 -0.781257,0.082 -0.781257,0.082 0,0 -0.0806,-0.76491 -0.0806,-0.76491 m 2.002213,-3.17321 c 0,0 0.726632,-0.27681 0.726632,-0.27681 0,0 0.276817,0.72663 0.276817,0.72663 0,0 -0.746277,0.26701 -0.746277,0.26701 0,0 -0.257172,-0.71683 -0.257172,-0.71683 m 1.220119,-3.562437 c 0,0 0.647412,-0.430918 0.647412,-0.430918 0,0 0.43092,0.647411 0.43092,0.647411 0,0 -0.655093,0.429155 -0.655093,0.429155 0,0 -0.423239,-0.645648 -0.423239,-0.645648"
         id="path12663" />
    </g>
  </g>
</svg>
