  0
SECTION
  2
HEADER
  9
$ACADVER
  1
AC1014
  9
$HANDSEED
  5
FFFF
  9
$MEASUREMENT
 70
     1
  0
ENDSEC
  0
SECTION
  2
TABLES
  0
TABLE
  2
VPORT
  5
8
330
0
100
AcDbSymbolTable
 70
     4
  0
VPORT
  5
2E
330
8
100
AcDbSymbolTableRecord
100
AcDbViewportTableRecord
  2
*ACTIVE
 70
     0
 10
0.0
 20
0.0
 11
1.0
 21
1.0
 12
210.0
 22
148.5
 13
0.0
 23
0.0
 14
10.0
 24
10.0
 15
10.0
 25
10.0
 16
0.0
 26
0.0
 36
1.0
 17
0.0
 27
0.0
 37
0.0
 40
341.0
 41
1.24
 42
50.0
 43
0.0
 44
0.0
 50
0.0
 51
0.0
 71
     0
 72
   100
 73
     1
 74
     3
 75
     0
 76
     0
 77
     0
 78
     0
  0
ENDTAB
  0
TABLE
  2
LTYPE
  5
5
330
0
100
AcDbSymbolTable
 70
     1
  0
LTYPE
  5
14
330
5
100
AcDbSymbolTableRecord
100
AcDbLinetypeTableRecord
  2
BYBLOCK
 70
     0
  3

 72
    65
 73
     0
 40
0.0
  0
LTYPE
  5
15
330
5
100
AcDbSymbolTableRecord
100
AcDbLinetypeTableRecord
  2
BYLAYER
 70
     0
  3

 72
    65
 73
     0
 40
0.0
  0
LTYPE
  5
16
330
5
100
AcDbSymbolTableRecord
100
AcDbLinetypeTableRecord
  2
CONTINUOUS
 70
     0
  3
Solid line
 72
    65
 73
     0
 40
0.0
  0
ENDTAB
  0
TABLE
  2
LAYER
  5
2
100
AcDbSymbolTable
 70
2
  0
LAYER
  5
50
100
AcDbSymbolTableRecord
100
AcDbLayerTableRecord
  2
0
 70
0
  6
CONTINUOUS
  0
LAYER
  5
51
100
AcDbSymbolTableRecord
100
AcDbLayerTableRecord
  2
Layer_1
 70
0
  6
CONTINUOUS
  0
ENDTAB
  0
TABLE
  2
STYLE
  5
3
330
0
100
AcDbSymbolTable
 70
     1
  0
STYLE
  5
11
330
3
100
AcDbSymbolTableRecord
100
AcDbTextStyleTableRecord
  2
STANDARD
 70
     0
 40
0.0
 41
1.0
 50
0.0
 71
     0
 42
2.5
  3
txt
  4

  0
ENDTAB
  0
TABLE
  2
VIEW
  5
6
330
0
100
AcDbSymbolTable
 70
     0
  0
ENDTAB
  0
TABLE
  2
UCS
  5
7
330
0
100
AcDbSymbolTable
 70
     0
  0
ENDTAB
  0
TABLE
  2
APPID
  5
9
330
0
100
AcDbSymbolTable
 70
     2
  0
APPID
  5
12
330
9
100
AcDbSymbolTableRecord
100
AcDbRegAppTableRecord
  2
ACAD
 70
     0
  0
ENDTAB
  0
TABLE
  2
DIMSTYLE
  5
A
330
0
100
AcDbSymbolTable
 70
     1
  0
DIMSTYLE
105
27
330
A
100
AcDbSymbolTableRecord
100
AcDbDimStyleTableRecord
  2
ISO-25
 70
     0
  3

  4

  5

  6

  7

 40
1.0
 41
2.5
 42
0.625
 43
3.75
 44
1.25
 45
0.0
 46
0.0
 47
0.0
 48
0.0
140
2.5
141
2.5
142
0.0
143
0.03937007874016
144
1.0
145
0.0
146
1.0
147
0.625
 71
     0
 72
     0
 73
     0
 74
     0
 75
     0
 76
     0
 77
     1
 78
     8
170
     0
171
     3
172
     1
173
     0
174
     0
175
     0
176
     0
177
     0
178
     0
270
     2
271
     2
272
     2
273
     2
274
     3
340
11
275
     0
280
     0
281
     0
282
     0
283
     0
284
     8
285
     0
286
     0
287
     3
288
     0
  0
ENDTAB
  0
TABLE
  2
BLOCK_RECORD
  5
1
330
0
100
AcDbSymbolTable
 70
     1
  0
BLOCK_RECORD
  5
1F
330
1
100
AcDbSymbolTableRecord
100
AcDbBlockTableRecord
  2
*MODEL_SPACE
  0
BLOCK_RECORD
  5
1B
330
1
100
AcDbSymbolTableRecord
100
AcDbBlockTableRecord
  2
*PAPER_SPACE
  0
ENDTAB
  0
ENDSEC
  0
SECTION
  2
BLOCKS
  0
BLOCK
  5
20
330
1F
100
AcDbEntity
  8
0
100
AcDbBlockBegin
  2
*MODEL_SPACE
 70
     0
 10
0.0
 20
0.0
 30
0.0
  3
*MODEL_SPACE
  1

  0
ENDBLK
  5
21
330
1F
100
AcDbEntity
  8
0
100
AcDbBlockEnd
  0
BLOCK
  5
1C
330
1B
100
AcDbEntity
 67
     1
  8
0
100
AcDbBlockBegin
  2
*PAPER_SPACE
  1

  0
ENDBLK
  5
1D
330
1B
100
AcDbEntity
 67
     1
  8
0
100
AcDbBlockEnd
  0
ENDSEC
  0
SECTION
  2
ENTITIES
  0
SPLINE
  5
100
100
AcDbEntity
  8
Layer_1
 62
7
100
AcDbSpline
 70
8
 71
3
 72
8
 73
4
 74
0
 40
0
 40
0
 40
0
 40
0
 40
1
 40
1
 40
1
 40
1
 10
-400.000000
 20
55.000000
 30
0.0
 10
-403.695950
 20
55.283510
 30
0.0
 10
-408.589080
 20
55.859050
 30
0.0
 10
-411.697040
 20
56.375810
 30
0.0
  0
SPLINE
  5
101
100
AcDbEntity
  8
Layer_1
 62
7
100
AcDbSpline
 70
8
 71
3
 72
8
 73
4
 74
0
 40
0
 40
0
 40
0
 40
0
 40
1
 40
1
 40
1
 40
1
 10
-411.697040
 20
56.375810
 30
0.0
 10
-416.141350
 20
57.114780
 30
0.0
 10
-421.032940
 20
58.445730
 30
0.0
 10
-424.980970
 20
59.990230
 30
0.0
  0
SPLINE
  5
102
100
AcDbEntity
  8
Layer_1
 62
7
100
AcDbSpline
 70
8
 71
3
 72
8
 73
4
 74
0
 40
0
 40
0
 40
0
 40
0
 40
1
 40
1
 40
1
 40
1
 10
-424.980970
 20
59.990230
 30
0.0
 10
-427.711090
 20
61.058270
 30
0.0
 10
-431.442130
 20
63.091060
 30
0.0
 10
-432.263770
 20
63.958120
 30
0.0
  0
SPLINE
  5
103
100
AcDbEntity
  8
Layer_1
 62
7
100
AcDbSpline
 70
8
 71
3
 72
8
 73
4
 74
0
 40
0
 40
0
 40
0
 40
0
 40
1
 40
1
 40
1
 40
1
 10
-431.999130
 20
64.693850
 30
0.0
 10
-431.691110
 20
64.927050
 30
0.0
 10
-430.502010
 20
65.671690
 30
0.0
 10
-429.356680
 20
66.348610
 30
0.0
  0
SPLINE
  5
104
100
AcDbEntity
  8
Layer_1
 62
7
100
AcDbSpline
 70
8
 71
3
 72
8
 73
4
 74
0
 40
0
 40
0
 40
0
 40
0
 40
1
 40
1
 40
1
 40
1
 10
-429.356680
 20
66.348610
 30
0.0
 10
-423.087670
 20
70.053760
 30
0.0
 10
-417.815840
 20
73.864150
 30
0.0
 10
-412.810350
 20
78.308030
 30
0.0
  0
SPLINE
  5
105
100
AcDbEntity
  8
Layer_1
 62
7
100
AcDbSpline
 70
8
 71
3
 72
8
 73
4
 74
0
 40
0
 40
0
 40
0
 40
0
 40
1
 40
1
 40
1
 40
1
 10
-412.810350
 20
78.308030
 30
0.0
 10
-410.971540
 20
79.940510
 30
0.0
 10
-407.064930
 20
83.731540
 30
0.0
 10
-406.386710
 20
84.541600
 30
0.0
  0
LWPOLYLINE
  5
106
100
AcDbEntity
  8
Layer_1
 62
7
100
AcDbPolyline
 90
3
 70
0
 10
-432.263770
 20
63.958120
 30
0.0
 10
-432.559160
 20
64.269850
 30
0.0
 10
-431.999130
 20
64.693850
 30
0.0
  0
SPLINE
  5
107
100
AcDbEntity
  8
Layer_1
 62
7
100
AcDbSpline
 70
8
 71
3
 72
8
 73
4
 74
0
 40
0
 40
0
 40
0
 40
0
 40
1
 40
1
 40
1
 40
1
 10
-406.316800
 20
85.208300
 30
0.0
 10
-406.510450
 20
85.297800
 30
0.0
 10
-407.713890
 20
85.681850
 30
0.0
 10
-408.991110
 20
86.061860
 30
0.0
  0
SPLINE
  5
108
100
AcDbEntity
  8
Layer_1
 62
7
100
AcDbSpline
 70
8
 71
3
 72
8
 73
4
 74
0
 40
0
 40
0
 40
0
 40
0
 40
1
 40
1
 40
1
 40
1
 10
-408.991110
 20
86.061860
 30
0.0
 10
-410.268330
 20
86.441850
 30
0.0
 10
-411.625920
 20
86.876050
 30
0.0
 10
-412.007990
 20
87.026730
 30
0.0
  0
SPLINE
  5
109
100
AcDbEntity
  8
Layer_1
 62
7
100
AcDbSpline
 70
8
 71
3
 72
8
 73
4
 74
0
 40
0
 40
0
 40
0
 40
0
 40
1
 40
1
 40
1
 40
1
 10
-412.007990
 20
87.026730
 30
0.0
 10
-413.764860
 20
87.719580
 30
0.0
 10
-417.530740
 20
89.811030
 30
0.0
 10
-418.873980
 20
90.839850
 30
0.0
  0
LWPOLYLINE
  5
10a
100
AcDbEntity
  8
Layer_1
 62
7
100
AcDbPolyline
 90
3
 70
0
 10
-406.386710
 20
84.541600
 30
0.0
 10
-405.964700
 20
85.045650
 30
0.0
 10
-406.316800
 20
85.208300
 30
0.0
  0
SPLINE
  5
10b
100
AcDbEntity
  8
Layer_1
 62
7
100
AcDbSpline
 70
8
 71
3
 72
8
 73
4
 74
0
 40
0
 40
0
 40
0
 40
0
 40
1
 40
1
 40
1
 40
1
 10
-419.350330
 20
91.746040
 30
0.0
 10
-419.187350
 20
91.918940
 30
0.0
 10
-418.220380
 20
92.692640
 30
0.0
 10
-417.201520
 20
93.465380
 30
0.0
  0
SPLINE
  5
10c
100
AcDbEntity
  8
Layer_1
 62
7
100
AcDbSpline
 70
8
 71
3
 72
8
 73
4
 74
0
 40
0
 40
0
 40
0
 40
0
 40
1
 40
1
 40
1
 40
1
 10
-417.201520
 20
93.465380
 30
0.0
 10
-413.423770
 20
96.330560
 30
0.0
 10
-409.636170
 20
99.646990
 30
0.0
 10
-407.460900
 20
101.994310
 30
0.0
  0
SPLINE
  5
10d
100
AcDbEntity
  8
Layer_1
 62
7
100
AcDbSpline
 70
8
 71
3
 72
8
 73
4
 74
0
 40
0
 40
0
 40
0
 40
0
 40
1
 40
1
 40
1
 40
1
 10
-407.460900
 20
101.994310
 30
0.0
 10
-404.924720
 20
104.731090
 30
0.0
 10
-402.174470
 20
108.036650
 30
0.0
 10
-402.171600
 20
108.351570
 30
0.0
  0
SPLINE
  5
10e
100
AcDbEntity
  8
Layer_1
 62
7
100
AcDbSpline
 70
8
 71
3
 72
8
 73
4
 74
0
 40
0
 40
0
 40
0
 40
0
 40
1
 40
1
 40
1
 40
1
 10
-402.171600
 20
108.351570
 30
0.0
 10
-402.169600
 20
108.534140
 30
0.0
 10
-402.566030
 20
108.726090
 30
0.0
 10
-404.011380
 20
109.243140
 30
0.0
  0
SPLINE
  5
10f
100
AcDbEntity
  8
Layer_1
 62
7
100
AcDbSpline
 70
8
 71
3
 72
8
 73
4
 74
0
 40
0
 40
0
 40
0
 40
0
 40
1
 40
1
 40
1
 40
1
 10
-404.011380
 20
109.243140
 30
0.0
 10
-406.078460
 20
109.982590
 30
0.0
 10
-409.033280
 20
111.629130
 30
0.0
 10
-410.123860
 20
112.649240
 30
0.0
  0
SPLINE
  5
110
100
AcDbEntity
  8
Layer_1
 62
7
100
AcDbSpline
 70
8
 71
3
 72
8
 73
4
 74
0
 40
0
 40
0
 40
0
 40
0
 40
1
 40
1
 40
1
 40
1
 10
-410.123860
 20
112.649240
 30
0.0
 10
-411.056180
 20
113.521320
 30
0.0
 10
-411.207200
 20
113.236860
 30
0.0
 10
-408.286350
 20
116.110290
 30
0.0
  0
SPLINE
  5
111
100
AcDbEntity
  8
Layer_1
 62
7
100
AcDbSpline
 70
8
 71
3
 72
8
 73
4
 74
0
 40
0
 40
0
 40
0
 40
0
 40
1
 40
1
 40
1
 40
1
 10
-408.286350
 20
116.110290
 30
0.0
 10
-405.681910
 20
118.672450
 30
0.0
 10
-404.574020
 20
119.894590
 30
0.0
 10
-402.905110
 20
122.046430
 30
0.0
  0
SPLINE
  5
112
100
AcDbEntity
  8
Layer_1
 62
7
100
AcDbSpline
 70
8
 71
3
 72
8
 73
4
 74
0
 40
0
 40
0
 40
0
 40
0
 40
1
 40
1
 40
1
 40
1
 10
-402.905110
 20
122.046430
 30
0.0
 10
-399.820660
 20
126.023450
 30
0.0
 10
-397.152210
 20
130.562340
 30
0.0
 10
-395.468320
 20
134.695990
 30
0.0
  0
SPLINE
  5
113
100
AcDbEntity
  8
Layer_1
 62
7
100
AcDbSpline
 70
8
 71
3
 72
8
 73
4
 74
0
 40
0
 40
0
 40
0
 40
0
 40
1
 40
1
 40
1
 40
1
 10
-395.468320
 20
134.695990
 30
0.0
 10
-395.048460
 20
135.726660
 30
0.0
 10
-394.738320
 20
136.348440
 30
0.0
 10
-394.634060
 20
136.368520
 30
0.0
  0
SPLINE
  5
114
100
AcDbEntity
  8
Layer_1
 62
7
100
AcDbSpline
 70
8
 71
3
 72
8
 73
4
 74
0
 40
0
 40
0
 40
0
 40
0
 40
1
 40
1
 40
1
 40
1
 10
-394.634060
 20
136.368520
 30
0.0
 10
-394.510960
 20
136.392220
 30
0.0
 10
-394.335860
 20
136.064310
 30
0.0
 10
-393.955830
 20
135.098440
 30
0.0
  0
SPLINE
  5
115
100
AcDbEntity
  8
Layer_1
 62
7
100
AcDbSpline
 70
8
 71
3
 72
8
 73
4
 74
0
 40
0
 40
0
 40
0
 40
0
 40
1
 40
1
 40
1
 40
1
 10
-393.955830
 20
135.098440
 30
0.0
 10
-392.960780
 20
132.569450
 30
0.0
 10
-390.663580
 20
128.235580
 30
0.0
 10
-388.865950
 20
125.495980
 30
0.0
  0
SPLINE
  5
116
100
AcDbEntity
  8
Layer_1
 62
7
100
AcDbSpline
 70
8
 71
3
 72
8
 73
4
 74
0
 40
0
 40
0
 40
0
 40
0
 40
1
 40
1
 40
1
 40
1
 10
-388.865950
 20
125.495980
 30
0.0
 10
-386.713420
 20
122.215470
 30
0.0
 10
-383.163130
 20
118.026750
 30
0.0
 10
-380.275720
 20
115.361010
 30
0.0
  0
SPLINE
  5
117
100
AcDbEntity
  8
Layer_1
 62
7
100
AcDbSpline
 70
8
 71
3
 72
8
 73
4
 74
0
 40
0
 40
0
 40
0
 40
0
 40
1
 40
1
 40
1
 40
1
 10
-380.275720
 20
115.361010
 30
0.0
 10
-379.557750
 20
114.698150
 30
0.0
 10
-378.851420
 20
114.014540
 30
0.0
 10
-378.706130
 20
113.841860
 30
0.0
  0
LWPOLYLINE
  5
118
100
AcDbEntity
  8
Layer_1
 62
7
100
AcDbPolyline
 90
3
 70
0
 10
-418.873980
 20
90.839850
 30
0.0
 10
-419.646660
 20
91.431690
 30
0.0
 10
-419.350330
 20
91.746040
 30
0.0
  0
SPLINE
  5
119
100
AcDbEntity
  8
Layer_1
 62
7
100
AcDbSpline
 70
8
 71
3
 72
8
 73
4
 74
0
 40
0
 40
0
 40
0
 40
0
 40
1
 40
1
 40
1
 40
1
 10
-378.658660
 20
113.223560
 30
0.0
 10
-378.909160
 20
112.871780
 30
0.0
 10
-380.025950
 20
111.948600
 30
0.0
 10
-380.946000
 20
111.332770
 30
0.0
  0
SPLINE
  5
11a
100
AcDbEntity
  8
Layer_1
 62
7
100
AcDbSpline
 70
8
 71
3
 72
8
 73
4
 74
0
 40
0
 40
0
 40
0
 40
0
 40
1
 40
1
 40
1
 40
1
 10
-380.946000
 20
111.332770
 30
0.0
 10
-381.818550
 20
110.748730
 30
0.0
 10
-382.525620
 20
110.408990
 30
0.0
 10
-384.862650
 20
109.450820
 30
0.0
  0
SPLINE
  5
11b
100
AcDbEntity
  8
Layer_1
 62
7
100
AcDbSpline
 70
8
 71
3
 72
8
 73
4
 74
0
 40
0
 40
0
 40
0
 40
0
 40
1
 40
1
 40
1
 40
1
 10
-384.862650
 20
109.450820
 30
0.0
 10
-385.968840
 20
108.997280
 30
0.0
 10
-386.935360
 20
108.569680
 30
0.0
 10
-387.010480
 20
108.500600
 30
0.0
  0
SPLINE
  5
11c
100
AcDbEntity
  8
Layer_1
 62
7
100
AcDbSpline
 70
8
 71
3
 72
8
 73
4
 74
0
 40
0
 40
0
 40
0
 40
0
 40
1
 40
1
 40
1
 40
1
 10
-387.010480
 20
108.500600
 30
0.0
 10
-387.166230
 20
108.357370
 30
0.0
 10
-386.748890
 20
107.676670
 30
0.0
 10
-385.713520
 20
106.385180
 30
0.0
  0
SPLINE
  5
11d
100
AcDbEntity
  8
Layer_1
 62
7
100
AcDbSpline
 70
8
 71
3
 72
8
 73
4
 74
0
 40
0
 40
0
 40
0
 40
0
 40
1
 40
1
 40
1
 40
1
 10
-385.713520
 20
106.385180
 30
0.0
 10
-381.988130
 20
101.738300
 30
0.0
 10
-377.748830
 20
97.709360
 30
0.0
 10
-371.969260
 20
93.322930
 30
0.0
  0
SPLINE
  5
11e
100
AcDbEntity
  8
Layer_1
 62
7
100
AcDbSpline
 70
8
 71
3
 72
8
 73
4
 74
0
 40
0
 40
0
 40
0
 40
0
 40
1
 40
1
 40
1
 40
1
 10
-371.969260
 20
93.322930
 30
0.0
 10
-369.657850
 20
91.568680
 30
0.0
 10
-369.778230
 20
91.667050
 30
0.0
 10
-369.778230
 20
91.532520
 30
0.0
  0
SPLINE
  5
11f
100
AcDbEntity
  8
Layer_1
 62
7
100
AcDbSpline
 70
8
 71
3
 72
8
 73
4
 74
0
 40
0
 40
0
 40
0
 40
0
 40
1
 40
1
 40
1
 40
1
 10
-369.778230
 20
91.532520
 30
0.0
 10
-369.778230
 20
91.340470
 30
0.0
 10
-370.931730
 20
90.359380
 30
0.0
 10
-371.933760
 20
89.699160
 30
0.0
  0
SPLINE
  5
120
100
AcDbEntity
  8
Layer_1
 62
7
100
AcDbSpline
 70
8
 71
3
 72
8
 73
4
 74
0
 40
0
 40
0
 40
0
 40
0
 40
1
 40
1
 40
1
 40
1
 10
-371.933760
 20
89.699160
 30
0.0
 10
-374.023240
 20
88.322460
 30
0.0
 10
-377.192320
 20
86.997030
 30
0.0
 10
-381.634060
 20
85.642150
 30
0.0
  0
SPLINE
  5
121
100
AcDbEntity
  8
Layer_1
 62
7
100
AcDbSpline
 70
8
 71
3
 72
8
 73
4
 74
0
 40
0
 40
0
 40
0
 40
0
 40
1
 40
1
 40
1
 40
1
 10
-381.634060
 20
85.642150
 30
0.0
 10
-383.603210
 20
85.041480
 30
0.0
 10
-383.714180
 20
85.383040
 30
0.0
 10
-380.522210
 20
82.220090
 30
0.0
  0
SPLINE
  5
122
100
AcDbEntity
  8
Layer_1
 62
7
100
AcDbSpline
 70
8
 71
3
 72
8
 73
4
 74
0
 40
0
 40
0
 40
0
 40
0
 40
1
 40
1
 40
1
 40
1
 10
-380.522210
 20
82.220090
 30
0.0
 10
-377.414640
 20
79.140770
 30
0.0
 10
-375.424720
 20
77.332910
 30
0.0
 10
-373.112680
 20
75.488480
 30
0.0
  0
SPLINE
  5
123
100
AcDbEntity
  8
Layer_1
 62
7
100
AcDbSpline
 70
8
 71
3
 72
8
 73
4
 74
0
 40
0
 40
0
 40
0
 40
0
 40
1
 40
1
 40
1
 40
1
 10
-373.112680
 20
75.488480
 30
0.0
 10
-370.796930
 20
73.641100
 30
0.0
 10
-367.073800
 20
70.867590
 30
0.0
 10
-365.716780
 20
69.978980
 30
0.0
  0
SPLINE
  5
124
100
AcDbEntity
  8
Layer_1
 62
7
100
AcDbSpline
 70
8
 71
3
 72
8
 73
4
 74
0
 40
0
 40
0
 40
0
 40
0
 40
1
 40
1
 40
1
 40
1
 10
-365.716780
 20
69.978980
 30
0.0
 10
-362.701440
 20
68.004500
 30
0.0
 10
-361.186380
 20
67.042410
 30
0.0
 10
-360.357080
 20
66.575530
 30
0.0
  0
SPLINE
  5
125
100
AcDbEntity
  8
Layer_1
 62
7
100
AcDbSpline
 70
8
 71
3
 72
8
 73
4
 74
0
 40
0
 40
0
 40
0
 40
0
 40
1
 40
1
 40
1
 40
1
 10
-360.357080
 20
66.575530
 30
0.0
 10
-358.946490
 20
65.781390
 30
0.0
 10
-357.614030
 20
64.938960
 30
0.0
 10
-357.216620
 20
64.590040
 30
0.0
  0
LWPOLYLINE
  5
126
100
AcDbEntity
  8
Layer_1
 62
7
100
AcDbPolyline
 90
3
 70
0
 10
-378.706130
 20
113.841860
 30
0.0
 10
-378.441950
 20
113.527900
 30
0.0
 10
-378.658660
 20
113.223560
 30
0.0
  0
SPLINE
  5
127
100
AcDbEntity
  8
Layer_1
 62
7
100
AcDbSpline
 70
8
 71
3
 72
8
 73
4
 74
0
 40
0
 40
0
 40
0
 40
0
 40
1
 40
1
 40
1
 40
1
 10
-357.202400
 20
63.902140
 30
0.0
 10
-358.076350
 20
62.980600
 30
0.0
 10
-361.305830
 20
61.217680
 30
0.0
 10
-364.398700
 20
59.973830
 30
0.0
  0
SPLINE
  5
128
100
AcDbEntity
  8
Layer_1
 62
7
100
AcDbSpline
 70
8
 71
3
 72
8
 73
4
 74
0
 40
0
 40
0
 40
0
 40
0
 40
1
 40
1
 40
1
 40
1
 10
-364.398700
 20
59.973830
 30
0.0
 10
-370.087300
 20
57.686040
 30
0.0
 10
-377.621940
 20
56.042630
 30
0.0
 10
-386.049620
 20
55.251440
 30
0.0
  0
SPLINE
  5
129
100
AcDbEntity
  8
Layer_1
 62
7
100
AcDbSpline
 70
8
 71
3
 72
8
 73
4
 74
0
 40
0
 40
0
 40
0
 40
0
 40
1
 40
1
 40
1
 40
1
 10
-386.049620
 20
55.251440
 30
0.0
 10
-389.189880
 20
54.956630
 30
0.0
 10
-397.485570
 20
54.807110
 30
0.0
 10
-400.000000
 20
55.000000
 30
0.0
  0
LWPOLYLINE
  5
12a
100
AcDbEntity
  8
Layer_1
 62
7
100
AcDbPolyline
 90
3
 70
0
 10
-357.216620
 20
64.590040
 30
0.0
 10
-356.852890
 20
64.270680
 30
0.0
 10
-357.202400
 20
63.902140
 30
0.0
  0
LWPOLYLINE
  5
12b
100
AcDbEntity
  8
Layer_1
 62
7
100
AcDbPolyline
 90
1
 70
1
 10
-400.000000
 20
55.000000
 30
0.0
  0
LWPOLYLINE
  5
12c
100
AcDbEntity
  8
Layer_1
 62
7
100
AcDbPolyline
 90
4
 70
1
 10
49.000001
 20
78.941660
 30
0.0
 10
50.999999
 20
78.941660
 30
0.0
 10
50.999999
 20
66.941660
 30
0.0
 10
49.000001
 20
66.941660
 30
0.0
  0
LWPOLYLINE
  5
12d
100
AcDbEntity
  8
Layer_1
 62
7
100
AcDbPolyline
 90
4
 70
1
 10
49.000001
 20
62.941660
 30
0.0
 10
50.999999
 20
62.941660
 30
0.0
 10
50.999999
 20
50.941660
 30
0.0
 10
49.000001
 20
50.941660
 30
0.0
  0
LWPOLYLINE
  5
12e
100
AcDbEntity
  8
Layer_1
 62
7
100
AcDbPolyline
 90
4
 70
1
 10
49.000001
 20
20.941660
 30
0.0
 10
50.999999
 20
20.941660
 30
0.0
 10
50.999999
 20
8.941660
 30
0.0
 10
49.000001
 20
8.941660
 30
0.0
  0
SPLINE
  5
12f
100
AcDbEntity
  8
Layer_1
 62
7
100
AcDbSpline
 70
8
 71
3
 72
8
 73
4
 74
0
 40
0
 40
0
 40
0
 40
0
 40
1
 40
1
 40
1
 40
1
 10
50.000048
 20
96.376449
 30
0.0
 10
49.889470
 20
96.379448
 30
0.0
 10
49.201106
 20
95.273369
 30
0.0
 10
48.764465
 20
94.137309
 30
0.0
  0
SPLINE
  5
130
100
AcDbEntity
  8
Layer_1
 62
7
100
AcDbSpline
 70
8
 71
3
 72
8
 73
4
 74
0
 40
0
 40
0
 40
0
 40
0
 40
1
 40
1
 40
1
 40
1
 10
48.764465
 20
94.137309
 30
0.0
 10
47.013246
 20
89.581029
 30
0.0
 10
44.238346
 20
84.578131
 30
0.0
 10
41.030569
 20
80.194491
 30
0.0
  0
SPLINE
  5
131
100
AcDbEntity
  8
Layer_1
 62
7
100
AcDbSpline
 70
8
 71
3
 72
8
 73
4
 74
0
 40
0
 40
0
 40
0
 40
0
 40
1
 40
1
 40
1
 40
1
 10
41.030569
 20
80.194491
 30
0.0
 10
39.294927
 20
77.822641
 30
0.0
 10
38.142582
 20
76.475858
 30
0.0
 10
35.434013
 20
73.651738
 30
0.0
  0
SPLINE
  5
132
100
AcDbEntity
  8
Layer_1
 62
7
100
AcDbSpline
 70
8
 71
3
 72
8
 73
4
 74
0
 40
0
 40
0
 40
0
 40
0
 40
1
 40
1
 40
1
 40
1
 10
35.434013
 20
73.651738
 30
0.0
 10
32.396379
 20
70.484518
 30
0.0
 10
32.553417
 20
70.797708
 30
0.0
 10
33.523017
 20
69.836466
 30
0.0
  0
SPLINE
  5
133
100
AcDbEntity
  8
Layer_1
 62
7
100
AcDbSpline
 70
8
 71
3
 72
8
 73
4
 74
0
 40
0
 40
0
 40
0
 40
0
 40
1
 40
1
 40
1
 40
1
 10
33.523017
 20
69.836466
 30
0.0
 10
34.657202
 20
68.712048
 30
0.0
 10
37.730525
 20
66.897223
 30
0.0
 10
39.880254
 20
66.082174
 30
0.0
  0
SPLINE
  5
134
100
AcDbEntity
  8
Layer_1
 62
7
100
AcDbSpline
 70
8
 71
3
 72
8
 73
4
 74
0
 40
0
 40
0
 40
0
 40
0
 40
1
 40
1
 40
1
 40
1
 10
39.880254
 20
66.082174
 30
0.0
 10
41.383386
 20
65.512264
 30
0.0
 10
41.794940
 20
65.301045
 30
0.0
 10
41.793313
 20
65.099805
 30
0.0
  0
SPLINE
  5
135
100
AcDbEntity
  8
Layer_1
 62
7
100
AcDbSpline
 70
8
 71
3
 72
8
 73
4
 74
0
 40
0
 40
0
 40
0
 40
0
 40
1
 40
1
 40
1
 40
1
 10
41.793313
 20
65.099805
 30
0.0
 10
41.790413
 20
64.752685
 30
0.0
 10
38.929942
 20
61.109068
 30
0.0
 10
36.292358
 20
58.092482
 30
0.0
  0
SPLINE
  5
136
100
AcDbEntity
  8
Layer_1
 62
7
100
AcDbSpline
 70
8
 71
3
 72
8
 73
4
 74
0
 40
0
 40
0
 40
0
 40
0
 40
1
 40
1
 40
1
 40
1
 10
36.292358
 20
58.092482
 30
0.0
 10
34.030113
 20
55.505162
 30
0.0
 10
30.091030
 20
51.849128
 30
0.0
 10
26.162227
 20
48.690987
 30
0.0
  0
SPLINE
  5
137
100
AcDbEntity
  8
Layer_1
 62
7
100
AcDbSpline
 70
8
 71
3
 72
8
 73
4
 74
0
 40
0
 40
0
 40
0
 40
0
 40
1
 40
1
 40
1
 40
1
 10
26.162227
 20
48.690987
 30
0.0
 10
25.102631
 20
47.839249
 30
0.0
 10
24.097231
 20
46.986592
 30
0.0
 10
23.927738
 20
46.796012
 30
0.0
  0
LWPOLYLINE
  5
138
100
AcDbEntity
  8
Layer_1
 62
7
100
AcDbPolyline
 90
4
 70
1
 10
49.000001
 20
36.941660
 30
0.0
 10
50.999999
 20
36.941660
 30
0.0
 10
50.999999
 20
24.941660
 30
0.0
 10
49.000001
 20
24.941660
 30
0.0
  0
SPLINE
  5
139
100
AcDbEntity
  8
Layer_1
 62
7
100
AcDbSpline
 70
8
 71
3
 72
8
 73
4
 74
0
 40
0
 40
0
 40
0
 40
0
 40
1
 40
1
 40
1
 40
1
 10
24.423315
 20
45.797623
 30
0.0
 10
25.820261
 20
44.663637
 30
0.0
 10
29.736341
 20
42.357952
 30
0.0
 10
31.563447
 20
41.594264
 30
0.0
  0
SPLINE
  5
13a
100
AcDbEntity
  8
Layer_1
 62
7
100
AcDbSpline
 70
8
 71
3
 72
8
 73
4
 74
0
 40
0
 40
0
 40
0
 40
0
 40
1
 40
1
 40
1
 40
1
 10
31.563447
 20
41.594264
 30
0.0
 10
31.960790
 20
41.428172
 30
0.0
 10
33.372954
 20
40.950128
 30
0.0
 10
34.701241
 20
40.531280
 30
0.0
  0
SPLINE
  5
13b
100
AcDbEntity
  8
Layer_1
 62
7
100
AcDbSpline
 70
8
 71
3
 72
8
 73
4
 74
0
 40
0
 40
0
 40
0
 40
0
 40
1
 40
1
 40
1
 40
1
 10
34.701241
 20
40.531280
 30
0.0
 10
36.029524
 20
40.112421
 30
0.0
 10
37.281066
 20
39.688902
 30
0.0
 10
37.482467
 20
39.590252
 30
0.0
  0
LWPOLYLINE
  5
13c
100
AcDbEntity
  8
Layer_1
 62
7
100
AcDbPolyline
 90
3
 70
0
 10
23.927738
 20
46.796012
 30
0.0
 10
23.619230
 20
46.449781
 30
0.0
 10
24.423315
 20
45.797623
 30
0.0
  0
SPLINE
  5
13d
100
AcDbEntity
  8
Layer_1
 62
7
100
AcDbSpline
 70
8
 71
3
 72
8
 73
4
 74
0
 40
0
 40
0
 40
0
 40
0
 40
1
 40
1
 40
1
 40
1
 10
37.409601
 20
38.855412
 30
0.0
 10
36.704267
 20
37.962533
 30
0.0
 10
32.641714
 20
33.783386
 30
0.0
 10
30.729391
 20
31.983997
 30
0.0
  0
SPLINE
  5
13e
100
AcDbEntity
  8
Layer_1
 62
7
100
AcDbSpline
 70
8
 71
3
 72
8
 73
4
 74
0
 40
0
 40
0
 40
0
 40
0
 40
1
 40
1
 40
1
 40
1
 10
30.729391
 20
31.983997
 30
0.0
 10
25.523766
 20
27.085758
 30
0.0
 10
20.040807
 20
22.885823
 30
0.0
 10
13.521138
 20
18.801858
 30
0.0
  0
SPLINE
  5
13f
100
AcDbEntity
  8
Layer_1
 62
7
100
AcDbSpline
 70
8
 71
3
 72
8
 73
4
 74
0
 40
0
 40
0
 40
0
 40
0
 40
1
 40
1
 40
1
 40
1
 10
13.521138
 20
18.801858
 30
0.0
 10
12.330018
 20
18.055728
 30
0.0
 10
11.093839
 20
17.235236
 30
0.0
 10
10.773502
 20
16.978196
 30
0.0
  0
LWPOLYLINE
  5
140
100
AcDbEntity
  8
Layer_1
 62
7
100
AcDbPolyline
 90
3
 70
0
 10
37.482467
 20
39.590252
 30
0.0
 10
37.848852
 20
39.410417
 30
0.0
 10
37.409601
 20
38.855412
 30
0.0
  0
SPLINE
  5
141
100
AcDbEntity
  8
Layer_1
 62
7
100
AcDbSpline
 70
8
 71
3
 72
8
 73
4
 74
0
 40
0
 40
0
 40
0
 40
0
 40
1
 40
1
 40
1
 40
1
 10
10.498067
 20
16.166875
 30
0.0
 10
11.352556
 20
15.211166
 30
0.0
 10
15.233004
 20
12.970738
 30
0.0
 10
18.072282
 20
11.793498
 30
0.0
  0
SPLINE
  5
142
100
AcDbEntity
  8
Layer_1
 62
7
100
AcDbSpline
 70
8
 71
3
 72
8
 73
4
 74
0
 40
0
 40
0
 40
0
 40
0
 40
1
 40
1
 40
1
 40
1
 10
18.072282
 20
11.793498
 30
0.0
 10
22.178169
 20
10.091089
 30
0.0
 10
27.264929
 20
8.624292
 30
0.0
 10
31.886943
 20
7.809762
 30
0.0
  0
LWPOLYLINE
  5
143
100
AcDbEntity
  8
Layer_1
 62
7
100
AcDbPolyline
 90
3
 70
0
 10
10.773502
 20
16.978196
 30
0.0
 10
10.190592
 20
16.510524
 30
0.0
 10
10.498067
 20
16.166875
 30
0.0
  0
SPLINE
  5
144
100
AcDbEntity
  8
Layer_1
 62
7
100
AcDbSpline
 70
8
 71
3
 72
8
 73
4
 74
0
 40
0
 40
0
 40
0
 40
0
 40
1
 40
1
 40
1
 40
1
 10
68.112636
 20
7.809762
 30
0.0
 10
72.734651
 20
8.624292
 30
0.0
 10
77.821927
 20
10.091089
 30
0.0
 10
81.927815
 20
11.793498
 30
0.0
  0
SPLINE
  5
145
100
AcDbEntity
  8
Layer_1
 62
7
100
AcDbSpline
 70
8
 71
3
 72
8
 73
4
 74
0
 40
0
 40
0
 40
0
 40
0
 40
1
 40
1
 40
1
 40
1
 10
81.927815
 20
11.793498
 30
0.0
 10
84.767093
 20
12.970738
 30
0.0
 10
88.647541
 20
15.211166
 30
0.0
 10
89.502029
 20
16.166875
 30
0.0
  0
LWPOLYLINE
  5
146
100
AcDbEntity
  8
Layer_1
 62
7
100
AcDbPolyline
 90
15
 70
0
 10
31.886943
 20
7.809762
 30
0.0
 10
33.344217
 20
1.999782
 30
0.0
 10
35.700147
 20
1.999782
 30
0.0
 10
36.000385
 20
1.999782
 30
0.0
 10
36.000385
 20
0.747144
 30
0.0
 10
45.999775
 20
0.747144
 30
0.0
 10
45.999775
 20
1.999782
 30
0.0
 10
50.000048
 20
1.999782
 30
0.0
 10
53.999804
 20
1.999782
 30
0.0
 10
53.999804
 20
0.747144
 30
0.0
 10
63.999710
 20
0.747144
 30
0.0
 10
63.999710
 20
1.999782
 30
0.0
 10
64.299951
 20
1.999782
 30
0.0
 10
66.655878
 20
1.999782
 30
0.0
 10
68.112636
 20
7.809762
 30
0.0
  0
SPLINE
  5
147
100
AcDbEntity
  8
Layer_1
 62
7
100
AcDbSpline
 70
8
 71
3
 72
8
 73
4
 74
0
 40
0
 40
0
 40
0
 40
0
 40
1
 40
1
 40
1
 40
1
 10
89.226595
 20
16.978196
 30
0.0
 10
88.906259
 20
17.235236
 30
0.0
 10
87.670078
 20
18.055728
 30
0.0
 10
86.478958
 20
18.801858
 30
0.0
  0
SPLINE
  5
148
100
AcDbEntity
  8
Layer_1
 62
7
100
AcDbSpline
 70
8
 71
3
 72
8
 73
4
 74
0
 40
0
 40
0
 40
0
 40
0
 40
1
 40
1
 40
1
 40
1
 10
86.478958
 20
18.801858
 30
0.0
 10
79.959289
 20
22.885823
 30
0.0
 10
74.476331
 20
27.085758
 30
0.0
 10
69.270707
 20
31.983997
 30
0.0
  0
SPLINE
  5
149
100
AcDbEntity
  8
Layer_1
 62
7
100
AcDbSpline
 70
8
 71
3
 72
8
 73
4
 74
0
 40
0
 40
0
 40
0
 40
0
 40
1
 40
1
 40
1
 40
1
 10
69.270707
 20
31.983997
 30
0.0
 10
67.358381
 20
33.783386
 30
0.0
 10
63.295831
 20
37.962533
 30
0.0
 10
62.590494
 20
38.855412
 30
0.0
  0
LWPOLYLINE
  5
14a
100
AcDbEntity
  8
Layer_1
 62
7
100
AcDbPolyline
 90
3
 70
0
 10
89.502029
 20
16.166875
 30
0.0
 10
89.809504
 20
16.510524
 30
0.0
 10
89.226595
 20
16.978196
 30
0.0
  0
SPLINE
  5
14b
100
AcDbEntity
  8
Layer_1
 62
7
100
AcDbSpline
 70
8
 71
3
 72
8
 73
4
 74
0
 40
0
 40
0
 40
0
 40
0
 40
1
 40
1
 40
1
 40
1
 10
62.517630
 20
39.590252
 30
0.0
 10
62.719031
 20
39.688902
 30
0.0
 10
63.970574
 20
40.112421
 30
0.0
 10
65.298856
 20
40.531280
 30
0.0
  0
SPLINE
  5
14c
100
AcDbEntity
  8
Layer_1
 62
7
100
AcDbSpline
 70
8
 71
3
 72
8
 73
4
 74
0
 40
0
 40
0
 40
0
 40
0
 40
1
 40
1
 40
1
 40
1
 10
65.298856
 20
40.531280
 30
0.0
 10
66.627141
 20
40.950128
 30
0.0
 10
68.039305
 20
41.428172
 30
0.0
 10
68.436648
 20
41.594264
 30
0.0
  0
SPLINE
  5
14d
100
AcDbEntity
  8
Layer_1
 62
7
100
AcDbSpline
 70
8
 71
3
 72
8
 73
4
 74
0
 40
0
 40
0
 40
0
 40
0
 40
1
 40
1
 40
1
 40
1
 10
68.436648
 20
41.594264
 30
0.0
 10
70.263757
 20
42.357952
 30
0.0
 10
74.179837
 20
44.663637
 30
0.0
 10
75.576781
 20
45.797623
 30
0.0
  0
LWPOLYLINE
  5
14e
100
AcDbEntity
  8
Layer_1
 62
7
100
AcDbPolyline
 90
3
 70
0
 10
62.590494
 20
38.855412
 30
0.0
 10
62.151243
 20
39.410417
 30
0.0
 10
62.517630
 20
39.590252
 30
0.0
  0
SPLINE
  5
14f
100
AcDbEntity
  8
Layer_1
 62
7
100
AcDbSpline
 70
8
 71
3
 72
8
 73
4
 74
0
 40
0
 40
0
 40
0
 40
0
 40
1
 40
1
 40
1
 40
1
 10
76.072359
 20
46.796012
 30
0.0
 10
75.902864
 20
46.986592
 30
0.0
 10
74.896947
 20
47.839249
 30
0.0
 10
73.837352
 20
48.690987
 30
0.0
  0
SPLINE
  5
150
100
AcDbEntity
  8
Layer_1
 62
7
100
AcDbSpline
 70
8
 71
3
 72
8
 73
4
 74
0
 40
0
 40
0
 40
0
 40
0
 40
1
 40
1
 40
1
 40
1
 10
73.837352
 20
48.690987
 30
0.0
 10
69.908549
 20
51.849128
 30
0.0
 10
65.969982
 20
55.505162
 30
0.0
 10
63.707739
 20
58.092482
 30
0.0
  0
SPLINE
  5
151
100
AcDbEntity
  8
Layer_1
 62
7
100
AcDbSpline
 70
8
 71
3
 72
8
 73
4
 74
0
 40
0
 40
0
 40
0
 40
0
 40
1
 40
1
 40
1
 40
1
 10
63.707739
 20
58.092482
 30
0.0
 10
61.070156
 20
61.109068
 30
0.0
 10
58.209166
 20
64.752685
 30
0.0
 10
58.206266
 20
65.099805
 30
0.0
  0
SPLINE
  5
152
100
AcDbEntity
  8
Layer_1
 62
7
100
AcDbSpline
 70
8
 71
3
 72
8
 73
4
 74
0
 40
0
 40
0
 40
0
 40
0
 40
1
 40
1
 40
1
 40
1
 10
58.206266
 20
65.099805
 30
0.0
 10
58.204639
 20
65.301045
 30
0.0
 10
58.616712
 20
65.512264
 30
0.0
 10
60.119844
 20
66.082174
 30
0.0
  0
SPLINE
  5
153
100
AcDbEntity
  8
Layer_1
 62
7
100
AcDbSpline
 70
8
 71
3
 72
8
 73
4
 74
0
 40
0
 40
0
 40
0
 40
0
 40
1
 40
1
 40
1
 40
1
 10
60.119844
 20
66.082174
 30
0.0
 10
62.269573
 20
66.897223
 30
0.0
 10
65.342896
 20
68.712048
 30
0.0
 10
66.477078
 20
69.836466
 30
0.0
  0
SPLINE
  5
154
100
AcDbEntity
  8
Layer_1
 62
7
100
AcDbSpline
 70
8
 71
3
 72
8
 73
4
 74
0
 40
0
 40
0
 40
0
 40
0
 40
1
 40
1
 40
1
 40
1
 10
66.477078
 20
69.836466
 30
0.0
 10
67.446678
 20
70.797708
 30
0.0
 10
67.603716
 20
70.484518
 30
0.0
 10
64.566085
 20
73.651738
 30
0.0
  0
SPLINE
  5
155
100
AcDbEntity
  8
Layer_1
 62
7
100
AcDbSpline
 70
8
 71
3
 72
8
 73
4
 74
0
 40
0
 40
0
 40
0
 40
0
 40
1
 40
1
 40
1
 40
1
 10
64.566085
 20
73.651738
 30
0.0
 10
61.857514
 20
76.475858
 30
0.0
 10
60.705171
 20
77.822641
 30
0.0
 10
58.969526
 20
80.194491
 30
0.0
  0
SPLINE
  5
156
100
AcDbEntity
  8
Layer_1
 62
7
100
AcDbSpline
 70
8
 71
3
 72
8
 73
4
 74
0
 40
0
 40
0
 40
0
 40
0
 40
1
 40
1
 40
1
 40
1
 10
58.969526
 20
80.194491
 30
0.0
 10
55.761752
 20
84.578131
 30
0.0
 10
52.986852
 20
89.581029
 30
0.0
 10
51.235631
 20
94.137309
 30
0.0
  0
SPLINE
  5
157
100
AcDbEntity
  8
Layer_1
 62
7
100
AcDbSpline
 70
8
 71
3
 72
8
 73
4
 74
0
 40
0
 40
0
 40
0
 40
0
 40
1
 40
1
 40
1
 40
1
 10
51.235631
 20
94.137309
 30
0.0
 10
50.798991
 20
95.273369
 30
0.0
 10
50.110627
 20
96.379448
 30
0.0
 10
50.000048
 20
96.376449
 30
0.0
  0
LWPOLYLINE
  5
158
100
AcDbEntity
  8
Layer_1
 62
7
100
AcDbPolyline
 90
3
 70
0
 10
75.576781
 20
45.797623
 30
0.0
 10
76.380866
 20
46.449781
 30
0.0
 10
76.072359
 20
46.796012
 30
0.0
  0
SPLINE
  5
159
100
AcDbEntity
  8
Layer_1
 62
7
100
AcDbSpline
 70
8
 71
3
 72
8
 73
4
 74
0
 40
0
 40
0
 40
0
 40
0
 40
1
 40
1
 40
1
 40
1
 10
1.351090
 20
4.270700
 30
0.0
 10
1.461660
 20
4.267700
 30
0.0
 10
2.150030
 20
5.373780
 30
0.0
 10
2.586670
 20
6.509840
 30
0.0
  0
SPLINE
  5
15a
100
AcDbEntity
  8
Layer_1
 62
7
100
AcDbSpline
 70
8
 71
3
 72
8
 73
4
 74
0
 40
0
 40
0
 40
0
 40
0
 40
1
 40
1
 40
1
 40
1
 10
2.586670
 20
6.509840
 30
0.0
 10
4.337890
 20
11.066120
 30
0.0
 10
7.112790
 20
16.069020
 30
0.0
 10
10.320570
 20
20.452660
 30
0.0
  0
SPLINE
  5
15b
100
AcDbEntity
  8
Layer_1
 62
7
100
AcDbSpline
 70
8
 71
3
 72
8
 73
4
 74
0
 40
0
 40
0
 40
0
 40
0
 40
1
 40
1
 40
1
 40
1
 10
10.320570
 20
20.452660
 30
0.0
 10
12.056210
 20
22.824510
 30
0.0
 10
13.208560
 20
24.171290
 30
0.0
 10
15.917120
 20
26.995410
 30
0.0
  0
SPLINE
  5
15c
100
AcDbEntity
  8
Layer_1
 62
7
100
AcDbSpline
 70
8
 71
3
 72
8
 73
4
 74
0
 40
0
 40
0
 40
0
 40
0
 40
1
 40
1
 40
1
 40
1
 10
15.917120
 20
26.995410
 30
0.0
 10
18.954760
 20
30.162630
 30
0.0
 10
18.797720
 20
29.849440
 30
0.0
 10
17.828120
 20
30.810680
 30
0.0
  0
SPLINE
  5
15d
100
AcDbEntity
  8
Layer_1
 62
7
100
AcDbSpline
 70
8
 71
3
 72
8
 73
4
 74
0
 40
0
 40
0
 40
0
 40
0
 40
1
 40
1
 40
1
 40
1
 10
17.828120
 20
30.810680
 30
0.0
 10
16.693930
 20
31.935100
 30
0.0
 10
13.620610
 20
33.749920
 30
0.0
 10
11.470880
 20
34.564970
 30
0.0
  0
SPLINE
  5
15e
100
AcDbEntity
  8
Layer_1
 62
7
100
AcDbSpline
 70
8
 71
3
 72
8
 73
4
 74
0
 40
0
 40
0
 40
0
 40
0
 40
1
 40
1
 40
1
 40
1
 10
11.470880
 20
34.564970
 30
0.0
 10
9.967750
 20
35.134880
 30
0.0
 10
9.556190
 20
35.346100
 30
0.0
 10
9.557820
 20
35.547340
 30
0.0
  0
SPLINE
  5
15f
100
AcDbEntity
  8
Layer_1
 62
7
100
AcDbSpline
 70
8
 71
3
 72
8
 73
4
 74
0
 40
0
 40
0
 40
0
 40
0
 40
1
 40
1
 40
1
 40
1
 10
9.557820
 20
35.547340
 30
0.0
 10
9.560820
 20
35.894460
 30
0.0
 10
12.421200
 20
39.538080
 30
0.0
 10
15.058780
 20
42.554660
 30
0.0
  0
SPLINE
  5
160
100
AcDbEntity
  8
Layer_1
 62
7
100
AcDbSpline
 70
8
 71
3
 72
8
 73
4
 74
0
 40
0
 40
0
 40
0
 40
0
 40
1
 40
1
 40
1
 40
1
 10
15.058780
 20
42.554660
 30
0.0
 10
17.321020
 20
45.141980
 30
0.0
 10
21.260110
 20
48.798020
 30
0.0
 10
25.188910
 20
51.956160
 30
0.0
  0
SPLINE
  5
161
100
AcDbEntity
  8
Layer_1
 62
7
100
AcDbSpline
 70
8
 71
3
 72
8
 73
4
 74
0
 40
0
 40
0
 40
0
 40
0
 40
1
 40
1
 40
1
 40
1
 10
25.188910
 20
51.956160
 30
0.0
 10
26.248510
 20
52.807900
 30
0.0
 10
27.253900
 20
53.660550
 30
0.0
 10
27.423400
 20
53.851130
 30
0.0
  0
LWPOLYLINE
  5
162
100
AcDbEntity
  8
Layer_1
 62
7
100
AcDbPolyline
 90
1
 70
1
 10
50.000048
 20
96.376449
 30
0.0
  0
SPLINE
  5
163
100
AcDbEntity
  8
Layer_1
 62
7
100
AcDbSpline
 70
8
 71
3
 72
8
 73
4
 74
0
 40
0
 40
0
 40
0
 40
0
 40
1
 40
1
 40
1
 40
1
 10
26.927820
 20
54.849520
 30
0.0
 10
25.530870
 20
55.983510
 30
0.0
 10
21.614800
 20
58.289190
 30
0.0
 10
19.787690
 20
59.052880
 30
0.0
  0
SPLINE
  5
164
100
AcDbEntity
  8
Layer_1
 62
7
100
AcDbSpline
 70
8
 71
3
 72
8
 73
4
 74
0
 40
0
 40
0
 40
0
 40
0
 40
1
 40
1
 40
1
 40
1
 10
19.787690
 20
59.052880
 30
0.0
 10
19.390350
 20
59.218970
 30
0.0
 10
17.978180
 20
59.697020
 30
0.0
 10
16.649900
 20
60.115870
 30
0.0
  0
SPLINE
  5
165
100
AcDbEntity
  8
Layer_1
 62
7
100
AcDbSpline
 70
8
 71
3
 72
8
 73
4
 74
0
 40
0
 40
0
 40
0
 40
0
 40
1
 40
1
 40
1
 40
1
 10
16.649900
 20
60.115870
 30
0.0
 10
15.321610
 20
60.534730
 30
0.0
 10
14.070070
 20
60.958240
 30
0.0
 10
13.868670
 20
61.056890
 30
0.0
  0
LWPOLYLINE
  5
166
100
AcDbEntity
  8
Layer_1
 62
7
100
AcDbPolyline
 90
3
 70
0
 10
27.423400
 20
53.851130
 30
0.0
 10
27.731910
 20
54.197370
 30
0.0
 10
26.927820
 20
54.849520
 30
0.0
  0
SPLINE
  5
167
100
AcDbEntity
  8
Layer_1
 62
7
100
AcDbSpline
 70
8
 71
3
 72
8
 73
4
 74
0
 40
0
 40
0
 40
0
 40
0
 40
1
 40
1
 40
1
 40
1
 10
13.941530
 20
61.791740
 30
0.0
 10
14.646870
 20
62.684610
 30
0.0
 10
18.709420
 20
66.863760
 30
0.0
 10
20.621750
 20
68.663150
 30
0.0
  0
SPLINE
  5
168
100
AcDbEntity
  8
Layer_1
 62
7
100
AcDbSpline
 70
8
 71
3
 72
8
 73
4
 74
0
 40
0
 40
0
 40
0
 40
0
 40
1
 40
1
 40
1
 40
1
 10
20.621750
 20
68.663150
 30
0.0
 10
25.827370
 20
73.561390
 30
0.0
 10
31.310330
 20
77.761330
 30
0.0
 10
37.830000
 20
81.845290
 30
0.0
  0
SPLINE
  5
169
100
AcDbEntity
  8
Layer_1
 62
7
100
AcDbSpline
 70
8
 71
3
 72
8
 73
4
 74
0
 40
0
 40
0
 40
0
 40
0
 40
1
 40
1
 40
1
 40
1
 10
37.830000
 20
81.845290
 30
0.0
 10
39.021120
 20
82.591420
 30
0.0
 10
40.257300
 20
83.411910
 30
0.0
 10
40.577630
 20
83.668950
 30
0.0
  0
LWPOLYLINE
  5
16a
100
AcDbEntity
  8
Layer_1
 62
7
100
AcDbPolyline
 90
3
 70
0
 10
13.868670
 20
61.056890
 30
0.0
 10
13.502280
 20
61.236730
 30
0.0
 10
13.941530
 20
61.791740
 30
0.0
  0
SPLINE
  5
16b
100
AcDbEntity
  8
Layer_1
 62
7
100
AcDbSpline
 70
8
 71
3
 72
8
 73
4
 74
0
 40
0
 40
0
 40
0
 40
0
 40
1
 40
1
 40
1
 40
1
 10
40.853070
 20
84.480270
 30
0.0
 10
39.998580
 20
85.435980
 30
0.0
 10
36.118130
 20
87.676410
 30
0.0
 10
33.278850
 20
88.853650
 30
0.0
  0
SPLINE
  5
16c
100
AcDbEntity
  8
Layer_1
 62
7
100
AcDbSpline
 70
8
 71
3
 72
8
 73
4
 74
0
 40
0
 40
0
 40
0
 40
0
 40
1
 40
1
 40
1
 40
1
 10
33.278850
 20
88.853650
 30
0.0
 10
29.172970
 20
90.556060
 30
0.0
 10
24.086210
 20
92.022850
 30
0.0
 10
19.464190
 20
92.837380
 30
0.0
  0
LWPOLYLINE
  5
16d
100
AcDbEntity
  8
Layer_1
 62
7
100
AcDbPolyline
 90
3
 70
0
 10
40.577630
 20
83.668950
 30
0.0
 10
41.160540
 20
84.136620
 30
0.0
 10
40.853070
 20
84.480270
 30
0.0
  0
LWPOLYLINE
  5
16e
100
AcDbEntity
  8
Layer_1
 62
7
100
AcDbPolyline
 90
18
 70
0
 10
19.464190
 20
92.837380
 30
0.0
 10
18.006920
 20
98.647360
 30
0.0
 10
15.650990
 20
98.647360
 30
0.0
 10
15.350750
 20
98.647360
 30
0.0
 10
15.350750
 20
99.900000
 30
0.0
 10
5.351360
 20
99.900000
 30
0.0
 10
5.351360
 20
98.647360
 30
0.0
 10
1.351090
 20
98.647360
 30
0.0
 10
1.351090
 20
94.277610
 30
0.0
 10
1.351090
 20
90.644750
 30
0.0
 10
0.100000
 20
90.644750
 30
0.0
 10
0.100000
 20
80.646910
 30
0.0
 10
1.351090
 20
80.646910
 30
0.0
 10
1.351090
 20
48.645770
 30
0.0
 10
0.100000
 20
48.645770
 30
0.0
 10
0.100000
 20
38.648440
 30
0.0
 10
1.351090
 20
38.648440
 30
0.0
 10
1.351090
 20
4.270700
 30
0.0
  0
SPLINE
  5
16f
100
AcDbEntity
  8
Layer_1
 62
7
100
AcDbSpline
 70
8
 71
3
 72
8
 73
4
 74
0
 40
0
 40
0
 40
0
 40
0
 40
1
 40
1
 40
1
 40
1
 10
80.536332
 20
92.837380
 30
0.0
 10
75.914312
 20
92.022850
 30
0.0
 10
70.827042
 20
90.556060
 30
0.0
 10
66.721152
 20
88.853650
 30
0.0
  0
SPLINE
  5
170
100
AcDbEntity
  8
Layer_1
 62
7
100
AcDbSpline
 70
8
 71
3
 72
8
 73
4
 74
0
 40
0
 40
0
 40
0
 40
0
 40
1
 40
1
 40
1
 40
1
 10
66.721152
 20
88.853650
 30
0.0
 10
63.881872
 20
87.676410
 30
0.0
 10
60.001422
 20
85.435980
 30
0.0
 10
59.146942
 20
84.480270
 30
0.0
  0
LWPOLYLINE
  5
171
100
AcDbEntity
  8
Layer_1
 62
7
100
AcDbPolyline
 90
18
 70
0
 10
98.648922
 20
4.270700
 30
0.0
 10
98.648922
 20
22.647350
 30
0.0
 10
99.899999
 20
22.647350
 30
0.0
 10
99.899999
 20
32.644680
 30
0.0
 10
98.648922
 20
32.644680
 30
0.0
 10
98.648922
 20
64.647370
 30
0.0
 10
99.899999
 20
64.647370
 30
0.0
 10
99.899999
 20
74.644690
 30
0.0
 10
98.648922
 20
74.644690
 30
0.0
 10
98.648922
 20
94.277610
 30
0.0
 10
98.648922
 20
98.647360
 30
0.0
 10
94.649162
 20
98.647360
 30
0.0
 10
94.649162
 20
99.900000
 30
0.0
 10
84.649262
 20
99.900000
 30
0.0
 10
84.649262
 20
98.647360
 30
0.0
 10
84.349012
 20
98.647360
 30
0.0
 10
81.993092
 20
98.647360
 30
0.0
 10
80.536332
 20
92.837380
 30
0.0
  0
SPLINE
  5
172
100
AcDbEntity
  8
Layer_1
 62
7
100
AcDbSpline
 70
8
 71
3
 72
8
 73
4
 74
0
 40
0
 40
0
 40
0
 40
0
 40
1
 40
1
 40
1
 40
1
 10
59.422372
 20
83.668950
 30
0.0
 10
59.742712
 20
83.411910
 30
0.0
 10
60.978892
 20
82.591420
 30
0.0
 10
62.170012
 20
81.845290
 30
0.0
  0
SPLINE
  5
173
100
AcDbEntity
  8
Layer_1
 62
7
100
AcDbSpline
 70
8
 71
3
 72
8
 73
4
 74
0
 40
0
 40
0
 40
0
 40
0
 40
1
 40
1
 40
1
 40
1
 10
62.170012
 20
81.845290
 30
0.0
 10
68.689672
 20
77.761330
 30
0.0
 10
74.172642
 20
73.561390
 30
0.0
 10
79.378262
 20
68.663150
 30
0.0
  0
SPLINE
  5
174
100
AcDbEntity
  8
Layer_1
 62
7
100
AcDbSpline
 70
8
 71
3
 72
8
 73
4
 74
0
 40
0
 40
0
 40
0
 40
0
 40
1
 40
1
 40
1
 40
1
 10
79.378262
 20
68.663150
 30
0.0
 10
81.290582
 20
66.863760
 30
0.0
 10
85.353132
 20
62.684610
 30
0.0
 10
86.058472
 20
61.791730
 30
0.0
  0
LWPOLYLINE
  5
175
100
AcDbEntity
  8
Layer_1
 62
7
100
AcDbPolyline
 90
3
 70
0
 10
59.146942
 20
84.480270
 30
0.0
 10
58.839462
 20
84.136620
 30
0.0
 10
59.422372
 20
83.668950
 30
0.0
  0
SPLINE
  5
176
100
AcDbEntity
  8
Layer_1
 62
7
100
AcDbSpline
 70
8
 71
3
 72
8
 73
4
 74
0
 40
0
 40
0
 40
0
 40
0
 40
1
 40
1
 40
1
 40
1
 10
86.131332
 20
61.056890
 30
0.0
 10
85.929932
 20
60.958190
 30
0.0
 10
84.678392
 20
60.534720
 30
0.0
 10
83.350112
 20
60.115860
 30
0.0
  0
SPLINE
  5
177
100
AcDbEntity
  8
Layer_1
 62
7
100
AcDbSpline
 70
8
 71
3
 72
8
 73
4
 74
0
 40
0
 40
0
 40
0
 40
0
 40
1
 40
1
 40
1
 40
1
 10
83.350112
 20
60.115860
 30
0.0
 10
82.021822
 20
59.697020
 30
0.0
 10
80.609662
 20
59.218970
 30
0.0
 10
80.212322
 20
59.052880
 30
0.0
  0
SPLINE
  5
178
100
AcDbEntity
  8
Layer_1
 62
7
100
AcDbSpline
 70
8
 71
3
 72
8
 73
4
 74
0
 40
0
 40
0
 40
0
 40
0
 40
1
 40
1
 40
1
 40
1
 10
80.212322
 20
59.052880
 30
0.0
 10
78.385212
 20
58.289190
 30
0.0
 10
74.469132
 20
55.983510
 30
0.0
 10
73.072182
 20
54.849520
 30
0.0
  0
LWPOLYLINE
  5
179
100
AcDbEntity
  8
Layer_1
 62
7
100
AcDbPolyline
 90
3
 70
0
 10
86.058472
 20
61.791730
 30
0.0
 10
86.497722
 20
61.236730
 30
0.0
 10
86.131332
 20
61.056890
 30
0.0
  0
SPLINE
  5
17a
100
AcDbEntity
  8
Layer_1
 62
7
100
AcDbSpline
 70
8
 71
3
 72
8
 73
4
 74
0
 40
0
 40
0
 40
0
 40
0
 40
1
 40
1
 40
1
 40
1
 10
72.576612
 20
53.851130
 30
0.0
 10
72.746102
 20
53.660550
 30
0.0
 10
73.752022
 20
52.807900
 30
0.0
 10
74.811612
 20
51.956160
 30
0.0
  0
SPLINE
  5
17b
100
AcDbEntity
  8
Layer_1
 62
7
100
AcDbSpline
 70
8
 71
3
 72
8
 73
4
 74
0
 40
0
 40
0
 40
0
 40
0
 40
1
 40
1
 40
1
 40
1
 10
74.811612
 20
51.956160
 30
0.0
 10
78.740422
 20
48.798020
 30
0.0
 10
82.678992
 20
45.141980
 30
0.0
 10
84.941232
 20
42.554660
 30
0.0
  0
SPLINE
  5
17c
100
AcDbEntity
  8
Layer_1
 62
7
100
AcDbSpline
 70
8
 71
3
 72
8
 73
4
 74
0
 40
0
 40
0
 40
0
 40
0
 40
1
 40
1
 40
1
 40
1
 10
84.941232
 20
42.554660
 30
0.0
 10
87.578812
 20
39.538080
 30
0.0
 10
90.439802
 20
35.894460
 30
0.0
 10
90.442702
 20
35.547340
 30
0.0
  0
SPLINE
  5
17d
100
AcDbEntity
  8
Layer_1
 62
7
100
AcDbSpline
 70
8
 71
3
 72
8
 73
4
 74
0
 40
0
 40
0
 40
0
 40
0
 40
1
 40
1
 40
1
 40
1
 10
90.442702
 20
35.547340
 30
0.0
 10
90.444702
 20
35.346100
 30
0.0
 10
90.032252
 20
35.134880
 30
0.0
 10
88.529122
 20
34.564970
 30
0.0
  0
SPLINE
  5
17e
100
AcDbEntity
  8
Layer_1
 62
7
100
AcDbSpline
 70
8
 71
3
 72
8
 73
4
 74
0
 40
0
 40
0
 40
0
 40
0
 40
1
 40
1
 40
1
 40
1
 10
88.529122
 20
34.564970
 30
0.0
 10
86.379392
 20
33.749920
 30
0.0
 10
83.306072
 20
31.935100
 30
0.0
 10
82.171892
 20
30.810680
 30
0.0
  0
SPLINE
  5
17f
100
AcDbEntity
  8
Layer_1
 62
7
100
AcDbSpline
 70
8
 71
3
 72
8
 73
4
 74
0
 40
0
 40
0
 40
0
 40
0
 40
1
 40
1
 40
1
 40
1
 10
82.171892
 20
30.810680
 30
0.0
 10
81.202292
 20
29.849440
 30
0.0
 10
81.045252
 20
30.162630
 30
0.0
 10
84.082882
 20
26.995410
 30
0.0
  0
SPLINE
  5
180
100
AcDbEntity
  8
Layer_1
 62
7
100
AcDbSpline
 70
8
 71
3
 72
8
 73
4
 74
0
 40
0
 40
0
 40
0
 40
0
 40
1
 40
1
 40
1
 40
1
 10
84.082882
 20
26.995410
 30
0.0
 10
86.791452
 20
24.171290
 30
0.0
 10
87.943792
 20
22.824500
 30
0.0
 10
89.679442
 20
20.452650
 30
0.0
  0
SPLINE
  5
181
100
AcDbEntity
  8
Layer_1
 62
7
100
AcDbSpline
 70
8
 71
3
 72
8
 73
4
 74
0
 40
0
 40
0
 40
0
 40
0
 40
1
 40
1
 40
1
 40
1
 10
89.679442
 20
20.452650
 30
0.0
 10
92.887212
 20
16.069010
 30
0.0
 10
95.662112
 20
11.066120
 30
0.0
 10
97.413332
 20
6.509840
 30
0.0
  0
SPLINE
  5
182
100
AcDbEntity
  8
Layer_1
 62
7
100
AcDbSpline
 70
8
 71
3
 72
8
 73
4
 74
0
 40
0
 40
0
 40
0
 40
0
 40
1
 40
1
 40
1
 40
1
 10
97.413332
 20
6.509840
 30
0.0
 10
97.849972
 20
5.373780
 30
0.0
 10
98.538342
 20
4.267700
 30
0.0
 10
98.648922
 20
4.270700
 30
0.0
  0
LWPOLYLINE
  5
183
100
AcDbEntity
  8
Layer_1
 62
7
100
AcDbPolyline
 90
3
 70
0
 10
73.072182
 20
54.849520
 30
0.0
 10
72.268102
 20
54.197360
 30
0.0
 10
72.576612
 20
53.851130
 30
0.0
  0
LWPOLYLINE
  5
184
100
AcDbEntity
  8
Layer_1
 62
7
100
AcDbPolyline
 90
1
 70
1
 10
98.648922
 20
4.270700
 30
0.0
  0
ENDSEC
  0
SECTION
  2
OBJECTS
  0
DICTIONARY
  5
C
330
0
100
AcDbDictionary
  3
ACAD_GROUP
350
D
  3
ACAD_MLINESTYLE
350
17
  0
DICTIONARY
  5
D
330
C
100
AcDbDictionary
  0
DICTIONARY
  5
1A
330
C
100
AcDbDictionary
  0
DICTIONARY
  5
17
330
C
100
AcDbDictionary
  3
STANDARD
350
18
  0
DICTIONARY
  5
19
330
C
100
AcDbDictionary
  0
ENDSEC
  0
EOF
