  0
SECTION
  2
HEADER
  9
$ACADVER
  1
AC1014
  9
$HANDSEED
  5
FFFF
  9
$MEASUREMENT
 70
     1
  0
ENDSEC
  0
SECTION
  2
TABLES
  0
TABLE
  2
VPORT
  5
8
330
0
100
AcDbSymbolTable
 70
     4
  0
VPORT
  5
2E
330
8
100
AcDbSymbolTableRecord
100
AcDbViewportTableRecord
  2
*ACTIVE
 70
     0
 10
0.0
 20
0.0
 11
1.0
 21
1.0
 12
210.0
 22
148.5
 13
0.0
 23
0.0
 14
10.0
 24
10.0
 15
10.0
 25
10.0
 16
0.0
 26
0.0
 36
1.0
 17
0.0
 27
0.0
 37
0.0
 40
341.0
 41
1.24
 42
50.0
 43
0.0
 44
0.0
 50
0.0
 51
0.0
 71
     0
 72
   100
 73
     1
 74
     3
 75
     0
 76
     0
 77
     0
 78
     0
  0
ENDTAB
  0
TABLE
  2
LTYPE
  5
5
330
0
100
AcDbSymbolTable
 70
     1
  0
LTYPE
  5
14
330
5
100
AcDbSymbolTableRecord
100
AcDbLinetypeTableRecord
  2
BYBLOCK
 70
     0
  3

 72
    65
 73
     0
 40
0.0
  0
LTYPE
  5
15
330
5
100
AcDbSymbolTableRecord
100
AcDbLinetypeTableRecord
  2
BYLAYER
 70
     0
  3

 72
    65
 73
     0
 40
0.0
  0
LTYPE
  5
16
330
5
100
AcDbSymbolTableRecord
100
AcDbLinetypeTableRecord
  2
CONTINUOUS
 70
     0
  3
Solid line
 72
    65
 73
     0
 40
0.0
  0
ENDTAB
  0
TABLE
  2
LAYER
  5
2
100
AcDbSymbolTable
 70
2
  0
LAYER
  5
50
100
AcDbSymbolTableRecord
100
AcDbLayerTableRecord
  2
0
 70
0
  6
CONTINUOUS
  0
LAYER
  5
51
100
AcDbSymbolTableRecord
100
AcDbLayerTableRecord
  2
Layer_1
 70
0
  6
CONTINUOUS
  0
ENDTAB
  0
TABLE
  2
STYLE
  5
3
330
0
100
AcDbSymbolTable
 70
     1
  0
STYLE
  5
11
330
3
100
AcDbSymbolTableRecord
100
AcDbTextStyleTableRecord
  2
STANDARD
 70
     0
 40
0.0
 41
1.0
 50
0.0
 71
     0
 42
2.5
  3
txt
  4

  0
ENDTAB
  0
TABLE
  2
VIEW
  5
6
330
0
100
AcDbSymbolTable
 70
     0
  0
ENDTAB
  0
TABLE
  2
UCS
  5
7
330
0
100
AcDbSymbolTable
 70
     0
  0
ENDTAB
  0
TABLE
  2
APPID
  5
9
330
0
100
AcDbSymbolTable
 70
     2
  0
APPID
  5
12
330
9
100
AcDbSymbolTableRecord
100
AcDbRegAppTableRecord
  2
ACAD
 70
     0
  0
ENDTAB
  0
TABLE
  2
DIMSTYLE
  5
A
330
0
100
AcDbSymbolTable
 70
     1
  0
DIMSTYLE
105
27
330
A
100
AcDbSymbolTableRecord
100
AcDbDimStyleTableRecord
  2
ISO-25
 70
     0
  3

  4

  5

  6

  7

 40
1.0
 41
2.5
 42
0.625
 43
3.75
 44
1.25
 45
0.0
 46
0.0
 47
0.0
 48
0.0
140
2.5
141
2.5
142
0.0
143
0.03937007874016
144
1.0
145
0.0
146
1.0
147
0.625
 71
     0
 72
     0
 73
     0
 74
     0
 75
     0
 76
     0
 77
     1
 78
     8
170
     0
171
     3
172
     1
173
     0
174
     0
175
     0
176
     0
177
     0
178
     0
270
     2
271
     2
272
     2
273
     2
274
     3
340
11
275
     0
280
     0
281
     0
282
     0
283
     0
284
     8
285
     0
286
     0
287
     3
288
     0
  0
ENDTAB
  0
TABLE
  2
BLOCK_RECORD
  5
1
330
0
100
AcDbSymbolTable
 70
     1
  0
BLOCK_RECORD
  5
1F
330
1
100
AcDbSymbolTableRecord
100
AcDbBlockTableRecord
  2
*MODEL_SPACE
  0
BLOCK_RECORD
  5
1B
330
1
100
AcDbSymbolTableRecord
100
AcDbBlockTableRecord
  2
*PAPER_SPACE
  0
ENDTAB
  0
ENDSEC
  0
SECTION
  2
BLOCKS
  0
BLOCK
  5
20
330
1F
100
AcDbEntity
  8
0
100
AcDbBlockBegin
  2
*MODEL_SPACE
 70
     0
 10
0.0
 20
0.0
 30
0.0
  3
*MODEL_SPACE
  1

  0
ENDBLK
  5
21
330
1F
100
AcDbEntity
  8
0
100
AcDbBlockEnd
  0
BLOCK
  5
1C
330
1B
100
AcDbEntity
 67
     1
  8
0
100
AcDbBlockBegin
  2
*PAPER_SPACE
  1

  0
ENDBLK
  5
1D
330
1B
100
AcDbEntity
 67
     1
  8
0
100
AcDbBlockEnd
  0
ENDSEC
  0
SECTION
  2
ENTITIES
  0
LWPOLYLINE
  5
100
100
AcDbEntity
  8
Layer_1
 62
7
100
AcDbPolyline
 90
4
 70
1
 10
49.032291
 20
78.326794
 30
0.0
 10
51.032290
 20
78.326794
 30
0.0
 10
51.032290
 20
66.326794
 30
0.0
 10
49.032291
 20
66.326794
 30
0.0
  0
LWPOLYLINE
  5
101
100
AcDbEntity
  8
Layer_1
 62
7
100
AcDbPolyline
 90
4
 70
1
 10
49.032291
 20
62.326794
 30
0.0
 10
51.032290
 20
62.326794
 30
0.0
 10
51.032290
 20
50.326794
 30
0.0
 10
49.032291
 20
50.326794
 30
0.0
  0
SPLINE
  5
102
100
AcDbEntity
  8
Layer_1
 62
7
100
AcDbSpline
 70
8
 71
3
 72
8
 73
4
 74
0
 40
0
 40
0
 40
0
 40
0
 40
1
 40
1
 40
1
 40
1
 10
50.032339
 20
95.761584
 30
0.0
 10
49.921762
 20
95.764573
 30
0.0
 10
49.233398
 20
94.658504
 30
0.0
 10
48.796756
 20
93.522444
 30
0.0
  0
SPLINE
  5
103
100
AcDbEntity
  8
Layer_1
 62
7
100
AcDbSpline
 70
8
 71
3
 72
8
 73
4
 74
0
 40
0
 40
0
 40
0
 40
0
 40
1
 40
1
 40
1
 40
1
 10
48.796756
 20
93.522444
 30
0.0
 10
47.045538
 20
88.966163
 30
0.0
 10
44.270638
 20
83.963265
 30
0.0
 10
41.062861
 20
79.579625
 30
0.0
  0
SPLINE
  5
104
100
AcDbEntity
  8
Layer_1
 62
7
100
AcDbSpline
 70
8
 71
3
 72
8
 73
4
 74
0
 40
0
 40
0
 40
0
 40
0
 40
1
 40
1
 40
1
 40
1
 10
41.062861
 20
79.579625
 30
0.0
 10
39.327219
 20
77.207775
 30
0.0
 10
38.174873
 20
75.860993
 30
0.0
 10
35.466305
 20
73.036873
 30
0.0
  0
SPLINE
  5
105
100
AcDbEntity
  8
Layer_1
 62
7
100
AcDbSpline
 70
8
 71
3
 72
8
 73
4
 74
0
 40
0
 40
0
 40
0
 40
0
 40
1
 40
1
 40
1
 40
1
 10
35.466305
 20
73.036873
 30
0.0
 10
32.428671
 20
69.869652
 30
0.0
 10
32.585709
 20
70.182842
 30
0.0
 10
33.555309
 20
69.221600
 30
0.0
  0
SPLINE
  5
106
100
AcDbEntity
  8
Layer_1
 62
7
100
AcDbSpline
 70
8
 71
3
 72
8
 73
4
 74
0
 40
0
 40
0
 40
0
 40
0
 40
1
 40
1
 40
1
 40
1
 10
33.555309
 20
69.221600
 30
0.0
 10
34.689493
 20
68.097182
 30
0.0
 10
37.762817
 20
66.282357
 30
0.0
 10
39.912546
 20
65.467308
 30
0.0
  0
SPLINE
  5
107
100
AcDbEntity
  8
Layer_1
 62
7
100
AcDbSpline
 70
8
 71
3
 72
8
 73
4
 74
0
 40
0
 40
0
 40
0
 40
0
 40
1
 40
1
 40
1
 40
1
 10
39.912546
 20
65.467308
 30
0.0
 10
41.415678
 20
64.897398
 30
0.0
 10
41.827232
 20
64.686179
 30
0.0
 10
41.825605
 20
64.484939
 30
0.0
  0
SPLINE
  5
108
100
AcDbEntity
  8
Layer_1
 62
7
100
AcDbSpline
 70
8
 71
3
 72
8
 73
4
 74
0
 40
0
 40
0
 40
0
 40
0
 40
1
 40
1
 40
1
 40
1
 10
41.825605
 20
64.484939
 30
0.0
 10
41.822694
 20
64.137819
 30
0.0
 10
38.962234
 20
60.494203
 30
0.0
 10
36.324650
 20
57.477617
 30
0.0
  0
SPLINE
  5
109
100
AcDbEntity
  8
Layer_1
 62
7
100
AcDbSpline
 70
8
 71
3
 72
8
 73
4
 74
0
 40
0
 40
0
 40
0
 40
0
 40
1
 40
1
 40
1
 40
1
 10
36.324650
 20
57.477617
 30
0.0
 10
34.062404
 20
54.890296
 30
0.0
 10
30.123322
 20
51.234262
 30
0.0
 10
26.194519
 20
48.076122
 30
0.0
  0
SPLINE
  5
10a
100
AcDbEntity
  8
Layer_1
 62
7
100
AcDbSpline
 70
8
 71
3
 72
8
 73
4
 74
0
 40
0
 40
0
 40
0
 40
0
 40
1
 40
1
 40
1
 40
1
 10
26.194519
 20
48.076122
 30
0.0
 10
25.134923
 20
47.224386
 30
0.0
 10
24.129523
 20
46.371726
 30
0.0
 10
23.960030
 20
46.181147
 30
0.0
  0
LWPOLYLINE
  5
10b
100
AcDbEntity
  8
Layer_1
 62
7
100
AcDbPolyline
 90
4
 70
1
 10
49.032291
 20
20.326797
 30
0.0
 10
51.032290
 20
20.326797
 30
0.0
 10
51.032290
 20
8.326805
 30
0.0
 10
49.032291
 20
8.326805
 30
0.0
  0
SPLINE
  5
10c
100
AcDbEntity
  8
Layer_1
 62
7
100
AcDbSpline
 70
8
 71
3
 72
8
 73
4
 74
0
 40
0
 40
0
 40
0
 40
0
 40
1
 40
1
 40
1
 40
1
 10
24.455607
 20
45.182757
 30
0.0
 10
25.852553
 20
44.048772
 30
0.0
 10
29.768632
 20
41.743087
 30
0.0
 10
31.595739
 20
40.979399
 30
0.0
  0
SPLINE
  5
10d
100
AcDbEntity
  8
Layer_1
 62
7
100
AcDbSpline
 70
8
 71
3
 72
8
 73
4
 74
0
 40
0
 40
0
 40
0
 40
0
 40
1
 40
1
 40
1
 40
1
 10
31.595739
 20
40.979399
 30
0.0
 10
31.993082
 20
40.813307
 30
0.0
 10
33.405246
 20
40.335263
 30
0.0
 10
34.733533
 20
39.916414
 30
0.0
  0
SPLINE
  5
10e
100
AcDbEntity
  8
Layer_1
 62
7
100
AcDbSpline
 70
8
 71
3
 72
8
 73
4
 74
0
 40
0
 40
0
 40
0
 40
0
 40
1
 40
1
 40
1
 40
1
 10
34.733533
 20
39.916414
 30
0.0
 10
36.061816
 20
39.497557
 30
0.0
 10
37.313358
 20
39.074036
 30
0.0
 10
37.514759
 20
38.975386
 30
0.0
  0
LWPOLYLINE
  5
10f
100
AcDbEntity
  8
Layer_1
 62
7
100
AcDbPolyline
 90
4
 70
1
 10
49.032291
 20
36.326796
 30
0.0
 10
51.032290
 20
36.326796
 30
0.0
 10
51.032290
 20
24.326794
 30
0.0
 10
49.032291
 20
24.326794
 30
0.0
  0
SPLINE
  5
110
100
AcDbEntity
  8
Layer_1
 62
7
100
AcDbSpline
 70
8
 71
3
 72
8
 73
4
 74
0
 40
0
 40
0
 40
0
 40
0
 40
1
 40
1
 40
1
 40
1
 10
37.441893
 20
38.240549
 30
0.0
 10
36.736559
 20
37.347667
 30
0.0
 10
32.674006
 20
33.168520
 30
0.0
 10
30.761682
 20
31.369129
 30
0.0
  0
SPLINE
  5
111
100
AcDbEntity
  8
Layer_1
 62
7
100
AcDbSpline
 70
8
 71
3
 72
8
 73
4
 74
0
 40
0
 40
0
 40
0
 40
0
 40
1
 40
1
 40
1
 40
1
 10
30.761682
 20
31.369129
 30
0.0
 10
25.556058
 20
26.470898
 30
0.0
 10
20.073099
 20
22.270955
 30
0.0
 10
13.553430
 20
18.187005
 30
0.0
  0
SPLINE
  5
112
100
AcDbEntity
  8
Layer_1
 62
7
100
AcDbSpline
 70
8
 71
3
 72
8
 73
4
 74
0
 40
0
 40
0
 40
0
 40
0
 40
1
 40
1
 40
1
 40
1
 10
13.553430
 20
18.187005
 30
0.0
 10
12.362310
 20
17.440854
 30
0.0
 10
11.126131
 20
16.620381
 30
0.0
 10
10.805794
 20
16.363338
 30
0.0
  0
LWPOLYLINE
  5
113
100
AcDbEntity
  8
Layer_1
 62
7
100
AcDbPolyline
 90
3
 70
0
 10
23.960030
 20
46.181147
 30
0.0
 10
23.651522
 20
45.834916
 30
0.0
 10
24.455607
 20
45.182757
 30
0.0
  0
SPLINE
  5
114
100
AcDbEntity
  8
Layer_1
 62
7
100
AcDbSpline
 70
8
 71
3
 72
8
 73
4
 74
0
 40
0
 40
0
 40
0
 40
0
 40
1
 40
1
 40
1
 40
1
 10
10.530359
 20
15.552020
 30
0.0
 10
11.384848
 20
14.596292
 30
0.0
 10
15.265296
 20
12.355880
 30
0.0
 10
18.104574
 20
11.178643
 30
0.0
  0
SPLINE
  5
115
100
AcDbEntity
  8
Layer_1
 62
7
100
AcDbSpline
 70
8
 71
3
 72
8
 73
4
 74
0
 40
0
 40
0
 40
0
 40
0
 40
1
 40
1
 40
1
 40
1
 10
18.104574
 20
11.178643
 30
0.0
 10
22.210461
 20
9.476234
 30
0.0
 10
27.297220
 20
8.009437
 30
0.0
 10
31.919235
 20
7.194891
 30
0.0
  0
LWPOLYLINE
  5
116
100
AcDbEntity
  8
Layer_1
 62
7
100
AcDbPolyline
 90
3
 70
0
 10
37.514759
 20
38.975386
 30
0.0
 10
37.881144
 20
38.795552
 30
0.0
 10
37.441893
 20
38.240549
 30
0.0
  0
SPLINE
  5
117
100
AcDbEntity
  8
Layer_1
 62
7
100
AcDbSpline
 70
8
 71
3
 72
8
 73
4
 74
0
 40
0
 40
0
 40
0
 40
0
 40
1
 40
1
 40
1
 40
1
 10
68.144926
 20
7.194891
 30
0.0
 10
72.766943
 20
8.009437
 30
0.0
 10
77.854218
 20
9.476234
 30
0.0
 10
81.960105
 20
11.178643
 30
0.0
  0
SPLINE
  5
118
100
AcDbEntity
  8
Layer_1
 62
7
100
AcDbSpline
 70
8
 71
3
 72
8
 73
4
 74
0
 40
0
 40
0
 40
0
 40
0
 40
1
 40
1
 40
1
 40
1
 10
81.960105
 20
11.178643
 30
0.0
 10
84.799383
 20
12.355880
 30
0.0
 10
88.679831
 20
14.596292
 30
0.0
 10
89.534321
 20
15.552020
 30
0.0
  0
LWPOLYLINE
  5
119
100
AcDbEntity
  8
Layer_1
 62
7
100
AcDbPolyline
 90
3
 70
0
 10
10.805794
 20
16.363338
 30
0.0
 10
10.222884
 20
15.895661
 30
0.0
 10
10.530359
 20
15.552020
 30
0.0
  0
SPLINE
  5
11a
100
AcDbEntity
  8
Layer_1
 62
7
100
AcDbSpline
 70
8
 71
3
 72
8
 73
4
 74
0
 40
0
 40
0
 40
0
 40
0
 40
1
 40
1
 40
1
 40
1
 10
89.258884
 20
16.363338
 30
0.0
 10
88.938551
 20
16.620381
 30
0.0
 10
87.702370
 20
17.440854
 30
0.0
 10
86.511247
 20
18.187005
 30
0.0
  0
SPLINE
  5
11b
100
AcDbEntity
  8
Layer_1
 62
7
100
AcDbSpline
 70
8
 71
3
 72
8
 73
4
 74
0
 40
0
 40
0
 40
0
 40
0
 40
1
 40
1
 40
1
 40
1
 10
86.511247
 20
18.187005
 30
0.0
 10
79.991581
 20
22.270955
 30
0.0
 10
74.508623
 20
26.470898
 30
0.0
 10
69.302999
 20
31.369129
 30
0.0
  0
SPLINE
  5
11c
100
AcDbEntity
  8
Layer_1
 62
7
100
AcDbSpline
 70
8
 71
3
 72
8
 73
4
 74
0
 40
0
 40
0
 40
0
 40
0
 40
1
 40
1
 40
1
 40
1
 10
69.302999
 20
31.369129
 30
0.0
 10
67.390673
 20
33.168520
 30
0.0
 10
63.328123
 20
37.347667
 30
0.0
 10
62.622786
 20
38.240549
 30
0.0
  0
LWPOLYLINE
  5
11d
100
AcDbEntity
  8
Layer_1
 62
7
100
AcDbPolyline
 90
15
 70
0
 10
31.919235
 20
7.194891
 30
0.0
 10
33.376509
 20
1.384906
 30
0.0
 10
35.732439
 20
1.384906
 30
0.0
 10
36.032677
 20
1.384906
 30
0.0
 10
36.032677
 20
0.132289
 30
0.0
 10
46.032067
 20
0.132289
 30
0.0
 10
46.032067
 20
1.384906
 30
0.0
 10
50.032339
 20
1.384906
 30
0.0
 10
54.032096
 20
1.384906
 30
0.0
 10
54.032096
 20
0.132289
 30
0.0
 10
64.032002
 20
0.132289
 30
0.0
 10
64.032002
 20
1.384906
 30
0.0
 10
64.332243
 20
1.384906
 30
0.0
 10
66.688170
 20
1.384906
 30
0.0
 10
68.144926
 20
7.194891
 30
0.0
  0
SPLINE
  5
11e
100
AcDbEntity
  8
Layer_1
 62
7
100
AcDbSpline
 70
8
 71
3
 72
8
 73
4
 74
0
 40
0
 40
0
 40
0
 40
0
 40
1
 40
1
 40
1
 40
1
 10
62.549922
 20
38.975386
 30
0.0
 10
62.751323
 20
39.074036
 30
0.0
 10
64.002866
 20
39.497557
 30
0.0
 10
65.331148
 20
39.916414
 30
0.0
  0
SPLINE
  5
11f
100
AcDbEntity
  8
Layer_1
 62
7
100
AcDbSpline
 70
8
 71
3
 72
8
 73
4
 74
0
 40
0
 40
0
 40
0
 40
0
 40
1
 40
1
 40
1
 40
1
 10
65.331148
 20
39.916414
 30
0.0
 10
66.659433
 20
40.335263
 30
0.0
 10
68.071596
 20
40.813307
 30
0.0
 10
68.468940
 20
40.979399
 30
0.0
  0
SPLINE
  5
120
100
AcDbEntity
  8
Layer_1
 62
7
100
AcDbSpline
 70
8
 71
3
 72
8
 73
4
 74
0
 40
0
 40
0
 40
0
 40
0
 40
1
 40
1
 40
1
 40
1
 10
68.468940
 20
40.979399
 30
0.0
 10
70.296049
 20
41.743087
 30
0.0
 10
74.212128
 20
44.048772
 30
0.0
 10
75.609073
 20
45.182757
 30
0.0
  0
LWPOLYLINE
  5
121
100
AcDbEntity
  8
Layer_1
 62
7
100
AcDbPolyline
 90
3
 70
0
 10
89.534321
 20
15.552020
 30
0.0
 10
89.841796
 20
15.895661
 30
0.0
 10
89.258884
 20
16.363338
 30
0.0
  0
SPLINE
  5
122
100
AcDbEntity
  8
Layer_1
 62
7
100
AcDbSpline
 70
8
 71
3
 72
8
 73
4
 74
0
 40
0
 40
0
 40
0
 40
0
 40
1
 40
1
 40
1
 40
1
 10
76.104651
 20
46.181147
 30
0.0
 10
75.935156
 20
46.371726
 30
0.0
 10
74.929239
 20
47.224386
 30
0.0
 10
73.869644
 20
48.076122
 30
0.0
  0
SPLINE
  5
123
100
AcDbEntity
  8
Layer_1
 62
7
100
AcDbSpline
 70
8
 71
3
 72
8
 73
4
 74
0
 40
0
 40
0
 40
0
 40
0
 40
1
 40
1
 40
1
 40
1
 10
73.869644
 20
48.076122
 30
0.0
 10
69.940841
 20
51.234262
 30
0.0
 10
66.002272
 20
54.890296
 30
0.0
 10
63.740029
 20
57.477617
 30
0.0
  0
SPLINE
  5
124
100
AcDbEntity
  8
Layer_1
 62
7
100
AcDbSpline
 70
8
 71
3
 72
8
 73
4
 74
0
 40
0
 40
0
 40
0
 40
0
 40
1
 40
1
 40
1
 40
1
 10
63.740029
 20
57.477617
 30
0.0
 10
61.102448
 20
60.494203
 30
0.0
 10
58.241458
 20
64.137819
 30
0.0
 10
58.238558
 20
64.484939
 30
0.0
  0
SPLINE
  5
125
100
AcDbEntity
  8
Layer_1
 62
7
100
AcDbSpline
 70
8
 71
3
 72
8
 73
4
 74
0
 40
0
 40
0
 40
0
 40
0
 40
1
 40
1
 40
1
 40
1
 10
58.238558
 20
64.484939
 30
0.0
 10
58.236971
 20
64.686179
 30
0.0
 10
58.649004
 20
64.897398
 30
0.0
 10
60.152136
 20
65.467308
 30
0.0
  0
SPLINE
  5
126
100
AcDbEntity
  8
Layer_1
 62
7
100
AcDbSpline
 70
8
 71
3
 72
8
 73
4
 74
0
 40
0
 40
0
 40
0
 40
0
 40
1
 40
1
 40
1
 40
1
 10
60.152136
 20
65.467308
 30
0.0
 10
62.301865
 20
66.282357
 30
0.0
 10
65.375188
 20
68.097182
 30
0.0
 10
66.509369
 20
69.221600
 30
0.0
  0
SPLINE
  5
127
100
AcDbEntity
  8
Layer_1
 62
7
100
AcDbSpline
 70
8
 71
3
 72
8
 73
4
 74
0
 40
0
 40
0
 40
0
 40
0
 40
1
 40
1
 40
1
 40
1
 10
66.509369
 20
69.221600
 30
0.0
 10
67.478969
 20
70.182842
 30
0.0
 10
67.636008
 20
69.869652
 30
0.0
 10
64.598377
 20
73.036873
 30
0.0
  0
SPLINE
  5
128
100
AcDbEntity
  8
Layer_1
 62
7
100
AcDbSpline
 70
8
 71
3
 72
8
 73
4
 74
0
 40
0
 40
0
 40
0
 40
0
 40
1
 40
1
 40
1
 40
1
 10
64.598377
 20
73.036873
 30
0.0
 10
61.889805
 20
75.860993
 30
0.0
 10
60.737463
 20
77.207775
 30
0.0
 10
59.001817
 20
79.579625
 30
0.0
  0
SPLINE
  5
129
100
AcDbEntity
  8
Layer_1
 62
7
100
AcDbSpline
 70
8
 71
3
 72
8
 73
4
 74
0
 40
0
 40
0
 40
0
 40
0
 40
1
 40
1
 40
1
 40
1
 10
59.001817
 20
79.579625
 30
0.0
 10
55.794044
 20
83.963265
 30
0.0
 10
53.019144
 20
88.966163
 30
0.0
 10
51.267922
 20
93.522444
 30
0.0
  0
SPLINE
  5
12a
100
AcDbEntity
  8
Layer_1
 62
7
100
AcDbSpline
 70
8
 71
3
 72
8
 73
4
 74
0
 40
0
 40
0
 40
0
 40
0
 40
1
 40
1
 40
1
 40
1
 10
51.267922
 20
93.522444
 30
0.0
 10
50.831283
 20
94.658504
 30
0.0
 10
50.142919
 20
95.764584
 30
0.0
 10
50.032339
 20
95.761584
 30
0.0
  0
LWPOLYLINE
  5
12b
100
AcDbEntity
  8
Layer_1
 62
7
100
AcDbPolyline
 90
3
 70
0
 10
62.622786
 20
38.240549
 30
0.0
 10
62.183535
 20
38.795552
 30
0.0
 10
62.549922
 20
38.975386
 30
0.0
  0
SPLINE
  5
12c
100
AcDbEntity
  8
Layer_1
 62
7
100
AcDbSpline
 70
8
 71
3
 72
8
 73
4
 74
0
 40
0
 40
0
 40
0
 40
0
 40
1
 40
1
 40
1
 40
1
 10
1.383382
 20
3.655824
 30
0.0
 10
1.493952
 20
3.652914
 30
0.0
 10
2.182322
 20
4.758925
 30
0.0
 10
2.618962
 20
5.894967
 30
0.0
  0
SPLINE
  5
12d
100
AcDbEntity
  8
Layer_1
 62
7
100
AcDbSpline
 70
8
 71
3
 72
8
 73
4
 74
0
 40
0
 40
0
 40
0
 40
0
 40
1
 40
1
 40
1
 40
1
 10
2.618962
 20
5.894967
 30
0.0
 10
4.370182
 20
10.451250
 30
0.0
 10
7.145082
 20
15.454151
 30
0.0
 10
10.352862
 20
19.837794
 30
0.0
  0
SPLINE
  5
12e
100
AcDbEntity
  8
Layer_1
 62
7
100
AcDbSpline
 70
8
 71
3
 72
8
 73
4
 74
0
 40
0
 40
0
 40
0
 40
0
 40
1
 40
1
 40
1
 40
1
 10
10.352862
 20
19.837794
 30
0.0
 10
12.088502
 20
22.209651
 30
0.0
 10
13.240852
 20
23.556433
 30
0.0
 10
15.949412
 20
26.380543
 30
0.0
  0
SPLINE
  5
12f
100
AcDbEntity
  8
Layer_1
 62
7
100
AcDbSpline
 70
8
 71
3
 72
8
 73
4
 74
0
 40
0
 40
0
 40
0
 40
0
 40
1
 40
1
 40
1
 40
1
 10
15.949412
 20
26.380543
 30
0.0
 10
18.987052
 20
29.547764
 30
0.0
 10
18.830012
 20
29.234576
 30
0.0
 10
17.860412
 20
30.195808
 30
0.0
  0
SPLINE
  5
130
100
AcDbEntity
  8
Layer_1
 62
7
100
AcDbSpline
 70
8
 71
3
 72
8
 73
4
 74
0
 40
0
 40
0
 40
0
 40
0
 40
1
 40
1
 40
1
 40
1
 10
17.860412
 20
30.195808
 30
0.0
 10
16.726222
 20
31.320234
 30
0.0
 10
13.652902
 20
33.135056
 30
0.0
 10
11.503172
 20
33.950105
 30
0.0
  0
SPLINE
  5
131
100
AcDbEntity
  8
Layer_1
 62
7
100
AcDbSpline
 70
8
 71
3
 72
8
 73
4
 74
0
 40
0
 40
0
 40
0
 40
0
 40
1
 40
1
 40
1
 40
1
 10
11.503172
 20
33.950105
 30
0.0
 10
10.000042
 20
34.520015
 30
0.0
 10
9.588482
 20
34.731234
 30
0.0
 10
9.590112
 20
34.932476
 30
0.0
  0
SPLINE
  5
132
100
AcDbEntity
  8
Layer_1
 62
7
100
AcDbSpline
 70
8
 71
3
 72
8
 73
4
 74
0
 40
0
 40
0
 40
0
 40
0
 40
1
 40
1
 40
1
 40
1
 10
9.590112
 20
34.932476
 30
0.0
 10
9.593112
 20
35.279596
 30
0.0
 10
12.453492
 20
38.923216
 30
0.0
 10
15.091072
 20
41.939797
 30
0.0
  0
SPLINE
  5
133
100
AcDbEntity
  8
Layer_1
 62
7
100
AcDbSpline
 70
8
 71
3
 72
8
 73
4
 74
0
 40
0
 40
0
 40
0
 40
0
 40
1
 40
1
 40
1
 40
1
 10
15.091072
 20
41.939797
 30
0.0
 10
17.353312
 20
44.527115
 30
0.0
 10
21.292402
 20
48.183156
 30
0.0
 10
25.221202
 20
51.341294
 30
0.0
  0
SPLINE
  5
134
100
AcDbEntity
  8
Layer_1
 62
7
100
AcDbSpline
 70
8
 71
3
 72
8
 73
4
 74
0
 40
0
 40
0
 40
0
 40
0
 40
1
 40
1
 40
1
 40
1
 10
25.221202
 20
51.341294
 30
0.0
 10
26.280802
 20
52.193036
 30
0.0
 10
27.286193
 20
53.045684
 30
0.0
 10
27.455693
 20
53.236266
 30
0.0
  0
SPLINE
  5
135
100
AcDbEntity
  8
Layer_1
 62
7
100
AcDbSpline
 70
8
 71
3
 72
8
 73
4
 74
0
 40
0
 40
0
 40
0
 40
0
 40
1
 40
1
 40
1
 40
1
 10
26.960112
 20
54.234656
 30
0.0
 10
25.563162
 20
55.368644
 30
0.0
 10
21.647092
 20
57.674326
 30
0.0
 10
19.819982
 20
58.438014
 30
0.0
  0
SPLINE
  5
136
100
AcDbEntity
  8
Layer_1
 62
7
100
AcDbSpline
 70
8
 71
3
 72
8
 73
4
 74
0
 40
0
 40
0
 40
0
 40
0
 40
1
 40
1
 40
1
 40
1
 10
19.819982
 20
58.438014
 30
0.0
 10
19.422642
 20
58.604104
 30
0.0
 10
18.010472
 20
59.082156
 30
0.0
 10
16.682192
 20
59.501004
 30
0.0
  0
SPLINE
  5
137
100
AcDbEntity
  8
Layer_1
 62
7
100
AcDbSpline
 70
8
 71
3
 72
8
 73
4
 74
0
 40
0
 40
0
 40
0
 40
0
 40
1
 40
1
 40
1
 40
1
 10
16.682192
 20
59.501004
 30
0.0
 10
15.353902
 20
59.919866
 30
0.0
 10
14.102362
 20
60.343374
 30
0.0
 10
13.900962
 20
60.442024
 30
0.0
  0
LWPOLYLINE
  5
138
100
AcDbEntity
  8
Layer_1
 62
7
100
AcDbPolyline
 90
3
 70
0
 10
75.609073
 20
45.182757
 30
0.0
 10
76.413157
 20
45.834916
 30
0.0
 10
76.104651
 20
46.181147
 30
0.0
  0
SPLINE
  5
139
100
AcDbEntity
  8
Layer_1
 62
7
100
AcDbSpline
 70
8
 71
3
 72
8
 73
4
 74
0
 40
0
 40
0
 40
0
 40
0
 40
1
 40
1
 40
1
 40
1
 10
13.973822
 20
61.176875
 30
0.0
 10
14.679162
 20
62.069746
 30
0.0
 10
18.741712
 20
66.248895
 30
0.0
 10
20.654042
 20
68.048284
 30
0.0
  0
SPLINE
  5
13a
100
AcDbEntity
  8
Layer_1
 62
7
100
AcDbSpline
 70
8
 71
3
 72
8
 73
4
 74
0
 40
0
 40
0
 40
0
 40
0
 40
1
 40
1
 40
1
 40
1
 10
20.654042
 20
68.048284
 30
0.0
 10
25.859662
 20
72.946526
 30
0.0
 10
31.342623
 20
77.146464
 30
0.0
 10
37.862292
 20
81.230424
 30
0.0
  0
SPLINE
  5
13b
100
AcDbEntity
  8
Layer_1
 62
7
100
AcDbSpline
 70
8
 71
3
 72
8
 73
4
 74
0
 40
0
 40
0
 40
0
 40
0
 40
1
 40
1
 40
1
 40
1
 10
37.862292
 20
81.230424
 30
0.0
 10
39.053412
 20
81.976554
 30
0.0
 10
40.289590
 20
82.797045
 30
0.0
 10
40.609921
 20
83.054085
 30
0.0
  0
LWPOLYLINE
  5
13c
100
AcDbEntity
  8
Layer_1
 62
7
100
AcDbPolyline
 90
3
 70
0
 10
27.455693
 20
53.236266
 30
0.0
 10
27.764202
 20
53.582506
 30
0.0
 10
26.960112
 20
54.234656
 30
0.0
  0
SPLINE
  5
13d
100
AcDbEntity
  8
Layer_1
 62
7
100
AcDbSpline
 70
8
 71
3
 72
8
 73
4
 74
0
 40
0
 40
0
 40
0
 40
0
 40
1
 40
1
 40
1
 40
1
 10
40.885360
 20
83.865404
 30
0.0
 10
40.030870
 20
84.821116
 30
0.0
 10
36.150422
 20
87.061544
 30
0.0
 10
33.311141
 20
88.238784
 30
0.0
  0
SPLINE
  5
13e
100
AcDbEntity
  8
Layer_1
 62
7
100
AcDbSpline
 70
8
 71
3
 72
8
 73
4
 74
0
 40
0
 40
0
 40
0
 40
0
 40
1
 40
1
 40
1
 40
1
 10
33.311141
 20
88.238784
 30
0.0
 10
29.205260
 20
89.941195
 30
0.0
 10
24.118501
 20
91.407984
 30
0.0
 10
19.496482
 20
92.222514
 30
0.0
  0
LWPOLYLINE
  5
13f
100
AcDbEntity
  8
Layer_1
 62
7
100
AcDbPolyline
 90
3
 70
0
 10
13.900962
 20
60.442024
 30
0.0
 10
13.534572
 20
60.621864
 30
0.0
 10
13.973822
 20
61.176875
 30
0.0
  0
LWPOLYLINE
  5
140
100
AcDbEntity
  8
Layer_1
 62
7
100
AcDbPolyline
 90
3
 70
0
 10
40.609921
 20
83.054085
 30
0.0
 10
41.192830
 20
83.521755
 30
0.0
 10
40.885360
 20
83.865404
 30
0.0
  0
SPLINE
  5
141
100
AcDbEntity
  8
Layer_1
 62
7
100
AcDbSpline
 70
8
 71
3
 72
8
 73
4
 74
0
 40
0
 40
0
 40
0
 40
0
 40
1
 40
1
 40
1
 40
1
 10
80.568624
 20
92.222514
 30
0.0
 10
75.946602
 20
91.407984
 30
0.0
 10
70.859334
 20
89.941195
 30
0.0
 10
66.753442
 20
88.238784
 30
0.0
  0
SPLINE
  5
142
100
AcDbEntity
  8
Layer_1
 62
7
100
AcDbSpline
 70
8
 71
3
 72
8
 73
4
 74
0
 40
0
 40
0
 40
0
 40
0
 40
1
 40
1
 40
1
 40
1
 10
66.753442
 20
88.238784
 30
0.0
 10
63.914164
 20
87.061544
 30
0.0
 10
60.033714
 20
84.821116
 30
0.0
 10
59.179234
 20
83.865404
 30
0.0
  0
LWPOLYLINE
  5
143
100
AcDbEntity
  8
Layer_1
 62
7
100
AcDbPolyline
 90
18
 70
0
 10
19.496482
 20
92.222514
 30
0.0
 10
18.039212
 20
98.032494
 30
0.0
 10
15.683282
 20
98.032494
 30
0.0
 10
15.383042
 20
98.032494
 30
0.0
 10
15.383042
 20
99.285135
 30
0.0
 10
5.383652
 20
99.285135
 30
0.0
 10
5.383652
 20
98.032494
 30
0.0
 10
1.383382
 20
98.032494
 30
0.0
 10
1.383382
 20
93.662745
 30
0.0
 10
1.383382
 20
90.029886
 30
0.0
 10
0.132292
 20
90.029886
 30
0.0
 10
0.132292
 20
80.032044
 30
0.0
 10
1.383382
 20
80.032044
 30
0.0
 10
1.383382
 20
48.030904
 30
0.0
 10
0.132292
 20
48.030904
 30
0.0
 10
0.132292
 20
38.033576
 30
0.0
 10
1.383382
 20
38.033576
 30
0.0
 10
1.383382
 20
3.655824
 30
0.0
  0
SPLINE
  5
144
100
AcDbEntity
  8
Layer_1
 62
7
100
AcDbSpline
 70
8
 71
3
 72
8
 73
4
 74
0
 40
0
 40
0
 40
0
 40
0
 40
1
 40
1
 40
1
 40
1
 10
59.454662
 20
83.054085
 30
0.0
 10
59.775004
 20
82.797045
 30
0.0
 10
61.011182
 20
81.976554
 30
0.0
 10
62.202302
 20
81.230424
 30
0.0
  0
SPLINE
  5
145
100
AcDbEntity
  8
Layer_1
 62
7
100
AcDbSpline
 70
8
 71
3
 72
8
 73
4
 74
0
 40
0
 40
0
 40
0
 40
0
 40
1
 40
1
 40
1
 40
1
 10
62.202302
 20
81.230424
 30
0.0
 10
68.721963
 20
77.146464
 30
0.0
 10
74.204932
 20
72.946526
 30
0.0
 10
79.410553
 20
68.048284
 30
0.0
  0
SPLINE
  5
146
100
AcDbEntity
  8
Layer_1
 62
7
100
AcDbSpline
 70
8
 71
3
 72
8
 73
4
 74
0
 40
0
 40
0
 40
0
 40
0
 40
1
 40
1
 40
1
 40
1
 10
79.410553
 20
68.048284
 30
0.0
 10
81.322874
 20
66.248895
 30
0.0
 10
85.385422
 20
62.069746
 30
0.0
 10
86.090764
 20
61.176865
 30
0.0
  0
LWPOLYLINE
  5
147
100
AcDbEntity
  8
Layer_1
 62
7
100
AcDbPolyline
 90
18
 70
0
 10
98.681213
 20
3.655824
 30
0.0
 10
98.681213
 20
22.032486
 30
0.0
 10
99.932290
 20
22.032486
 30
0.0
 10
99.932290
 20
32.029815
 30
0.0
 10
98.681213
 20
32.029815
 30
0.0
 10
98.681213
 20
64.032505
 30
0.0
 10
99.932290
 20
64.032505
 30
0.0
 10
99.932290
 20
74.029825
 30
0.0
 10
98.681213
 20
74.029825
 30
0.0
 10
98.681213
 20
93.662745
 30
0.0
 10
98.681213
 20
98.032494
 30
0.0
 10
94.681454
 20
98.032494
 30
0.0
 10
94.681454
 20
99.285135
 30
0.0
 10
84.681553
 20
99.285135
 30
0.0
 10
84.681553
 20
98.032494
 30
0.0
 10
84.381301
 20
98.032494
 30
0.0
 10
82.025383
 20
98.032494
 30
0.0
 10
80.568624
 20
92.222514
 30
0.0
  0
SPLINE
  5
148
100
AcDbEntity
  8
Layer_1
 62
7
100
AcDbSpline
 70
8
 71
3
 72
8
 73
4
 74
0
 40
0
 40
0
 40
0
 40
0
 40
1
 40
1
 40
1
 40
1
 10
86.163622
 20
60.442024
 30
0.0
 10
85.962224
 20
60.343324
 30
0.0
 10
84.710684
 20
59.919856
 30
0.0
 10
83.382401
 20
59.500996
 30
0.0
  0
SPLINE
  5
149
100
AcDbEntity
  8
Layer_1
 62
7
100
AcDbSpline
 70
8
 71
3
 72
8
 73
4
 74
0
 40
0
 40
0
 40
0
 40
0
 40
1
 40
1
 40
1
 40
1
 10
83.382401
 20
59.500996
 30
0.0
 10
82.054114
 20
59.082156
 30
0.0
 10
80.641953
 20
58.604104
 30
0.0
 10
80.244612
 20
58.438014
 30
0.0
  0
SPLINE
  5
14a
100
AcDbEntity
  8
Layer_1
 62
7
100
AcDbSpline
 70
8
 71
3
 72
8
 73
4
 74
0
 40
0
 40
0
 40
0
 40
0
 40
1
 40
1
 40
1
 40
1
 10
80.244612
 20
58.438014
 30
0.0
 10
78.417503
 20
57.674326
 30
0.0
 10
74.501424
 20
55.368644
 30
0.0
 10
73.104474
 20
54.234656
 30
0.0
  0
LWPOLYLINE
  5
14b
100
AcDbEntity
  8
Layer_1
 62
7
100
AcDbPolyline
 90
3
 70
0
 10
59.179234
 20
83.865404
 30
0.0
 10
58.871754
 20
83.521755
 30
0.0
 10
59.454662
 20
83.054085
 30
0.0
  0
SPLINE
  5
14c
100
AcDbEntity
  8
Layer_1
 62
7
100
AcDbSpline
 70
8
 71
3
 72
8
 73
4
 74
0
 40
0
 40
0
 40
0
 40
0
 40
1
 40
1
 40
1
 40
1
 10
72.608902
 20
53.236266
 30
0.0
 10
72.778394
 20
53.045684
 30
0.0
 10
73.784313
 20
52.193036
 30
0.0
 10
74.843903
 20
51.341294
 30
0.0
  0
SPLINE
  5
14d
100
AcDbEntity
  8
Layer_1
 62
7
100
AcDbSpline
 70
8
 71
3
 72
8
 73
4
 74
0
 40
0
 40
0
 40
0
 40
0
 40
1
 40
1
 40
1
 40
1
 10
74.843903
 20
51.341294
 30
0.0
 10
78.772712
 20
48.183156
 30
0.0
 10
82.711283
 20
44.527115
 30
0.0
 10
84.973524
 20
41.939797
 30
0.0
  0
SPLINE
  5
14e
100
AcDbEntity
  8
Layer_1
 62
7
100
AcDbSpline
 70
8
 71
3
 72
8
 73
4
 74
0
 40
0
 40
0
 40
0
 40
0
 40
1
 40
1
 40
1
 40
1
 10
84.973524
 20
41.939797
 30
0.0
 10
87.611102
 20
38.923216
 30
0.0
 10
90.472092
 20
35.279596
 30
0.0
 10
90.474994
 20
34.932476
 30
0.0
  0
SPLINE
  5
14f
100
AcDbEntity
  8
Layer_1
 62
7
100
AcDbSpline
 70
8
 71
3
 72
8
 73
4
 74
0
 40
0
 40
0
 40
0
 40
0
 40
1
 40
1
 40
1
 40
1
 10
90.474994
 20
34.932476
 30
0.0
 10
90.477111
 20
34.731234
 30
0.0
 10
90.064543
 20
34.520015
 30
0.0
 10
88.561414
 20
33.950105
 30
0.0
  0
SPLINE
  5
150
100
AcDbEntity
  8
Layer_1
 62
7
100
AcDbSpline
 70
8
 71
3
 72
8
 73
4
 74
0
 40
0
 40
0
 40
0
 40
0
 40
1
 40
1
 40
1
 40
1
 10
88.561414
 20
33.950105
 30
0.0
 10
86.411682
 20
33.135056
 30
0.0
 10
83.338362
 20
31.320234
 30
0.0
 10
82.204183
 20
30.195808
 30
0.0
  0
SPLINE
  5
151
100
AcDbEntity
  8
Layer_1
 62
7
100
AcDbSpline
 70
8
 71
3
 72
8
 73
4
 74
0
 40
0
 40
0
 40
0
 40
0
 40
1
 40
1
 40
1
 40
1
 10
82.204183
 20
30.195808
 30
0.0
 10
81.234583
 20
29.234576
 30
0.0
 10
81.077542
 20
29.547764
 30
0.0
 10
84.115173
 20
26.380543
 30
0.0
  0
SPLINE
  5
152
100
AcDbEntity
  8
Layer_1
 62
7
100
AcDbSpline
 70
8
 71
3
 72
8
 73
4
 74
0
 40
0
 40
0
 40
0
 40
0
 40
1
 40
1
 40
1
 40
1
 10
84.115173
 20
26.380543
 30
0.0
 10
86.823742
 20
23.556433
 30
0.0
 10
87.976084
 20
22.209624
 30
0.0
 10
89.711732
 20
19.837794
 30
0.0
  0
SPLINE
  5
153
100
AcDbEntity
  8
Layer_1
 62
7
100
AcDbSpline
 70
8
 71
3
 72
8
 73
4
 74
0
 40
0
 40
0
 40
0
 40
0
 40
1
 40
1
 40
1
 40
1
 10
89.711732
 20
19.837794
 30
0.0
 10
92.919503
 20
15.454151
 30
0.0
 10
95.694403
 20
10.451250
 30
0.0
 10
97.445622
 20
5.894967
 30
0.0
  0
SPLINE
  5
154
100
AcDbEntity
  8
Layer_1
 62
7
100
AcDbSpline
 70
8
 71
3
 72
8
 73
4
 74
0
 40
0
 40
0
 40
0
 40
0
 40
1
 40
1
 40
1
 40
1
 10
97.445622
 20
5.894967
 30
0.0
 10
97.882264
 20
4.758925
 30
0.0
 10
98.570633
 20
3.652834
 30
0.0
 10
98.681213
 20
3.655824
 30
0.0
  0
LWPOLYLINE
  5
155
100
AcDbEntity
  8
Layer_1
 62
7
100
AcDbPolyline
 90
3
 70
0
 10
86.090764
 20
61.176865
 30
0.0
 10
86.530012
 20
60.621864
 30
0.0
 10
86.163622
 20
60.442024
 30
0.0
  0
LWPOLYLINE
  5
156
100
AcDbEntity
  8
Layer_1
 62
7
100
AcDbPolyline
 90
3
 70
0
 10
73.104474
 20
54.234656
 30
0.0
 10
72.300392
 20
53.582495
 30
0.0
 10
72.608902
 20
53.236266
 30
0.0
  0
ENDSEC
  0
SECTION
  2
OBJECTS
  0
DICTIONARY
  5
C
330
0
100
AcDbDictionary
  3
ACAD_GROUP
350
D
  3
ACAD_MLINESTYLE
350
17
  0
DICTIONARY
  5
D
330
C
100
AcDbDictionary
  0
DICTIONARY
  5
1A
330
C
100
AcDbDictionary
  0
DICTIONARY
  5
17
330
C
100
AcDbDictionary
  3
STANDARD
350
18
  0
DICTIONARY
  5
19
330
C
100
AcDbDictionary
  0
ENDSEC
  0
EOF
