<?xml version="1.0" encoding="UTF-8" standalone="no"?>
<svg
   xmlns:dc="http://purl.org/dc/elements/1.1/"
   xmlns:cc="http://creativecommons.org/ns#"
   xmlns:rdf="http://www.w3.org/1999/02/22-rdf-syntax-ns#"
   xmlns:svg="http://www.w3.org/2000/svg"
   xmlns="http://www.w3.org/2000/svg"
   xmlns:sodipodi="http://sodipodi.sourceforge.net/DTD/sodipodi-0.dtd"
   xmlns:inkscape="http://www.inkscape.org/namespaces/inkscape"
   version="1.0"
   width="915.000000pt"
   height="915.000000pt"
   viewBox="0 0 915.000000 915.000000"
   preserveAspectRatio="xMidYMid meet"
   id="svg24"
   sodipodi:docname="uroboros_electrical.svg"
   inkscape:version="0.92.3 (2405546, 2018-03-11)">
  <defs
     id="defs28" />
  <sodipodi:namedview
     pagecolor="#ffffff"
     bordercolor="#666666"
     borderopacity="1"
     objecttolerance="10"
     gridtolerance="10"
     guidetolerance="10"
     inkscape:pageopacity="0"
     inkscape:pageshadow="2"
     inkscape:window-width="2560"
     inkscape:window-height="1378"
     id="namedview26"
     showgrid="false"
     inkscape:zoom="0.77377049"
     inkscape:cx="595.99028"
     inkscape:cy="589.4667"
     inkscape:window-x="-8"
     inkscape:window-y="-8"
     inkscape:window-maximized="1"
     inkscape:current-layer="g22" />
  <metadata
     id="metadata2">
Created by potrace 1.15, written by Peter Selinger 2001-2017
<rdf:RDF>
  <cc:Work
     rdf:about="">
    <dc:format>image/svg+xml</dc:format>
    <dc:type
       rdf:resource="http://purl.org/dc/dcmitype/StillImage" />
    <dc:title></dc:title>
  </cc:Work>
</rdf:RDF>
</metadata>
  <g
     transform="translate(0.000000,915.000000) scale(0.100000,-0.100000)"
     fill="#000000"
     stroke="none"
     id="g22">
    <path
       d="M8665 8998 c-476 -239 -850 -393 -1145 -471 -147 -38 -162 -41 -307 -41 l-152 -1 -47 -125 c-156 -419 -425 -830 -682 -1044 -40 -33 -70 -62 -67 -64 2 -2 65 14 140 37 181 54 392 106 545 133 98 17 165 22 312 22 104 1 188 4 188 7 0 4 -7 22 -15 42 -8 19 -20 66 -26 104 -26 156 59 311 227 419 168 107 380 183 684 244 57 12 106 23 108 24 1 2 -9 23 -23 47 -37 66 -35 146 7 230 61 121 265 292 479 400 l79 39 0 65 c0 61 -1 65 -22 64 -13 0 -140 -59 -283 -131z"
       id="path4" />
    <path
       d="M130 9027 l0 -64 113 -68 c226 -137 374 -267 436 -385 43 -81 48 -161 13 -226 l-21 -42 67 -12 c198 -36 429 -103 567 -165 90 -40 217 -128 271 -188 66 -73 104 -158 111 -249 5 -64 2 -85 -24 -158 l-29 -85 201 -1 c304 -1 544 -40 823 -133 78 -26 142 -45 142 -43 0 3 -51 57 -113 121 -190 195 -328 393 -462 666 -46 94 -105 230 -131 303 l-47 132 -96 0 c-97 0 -214 15 -349 44 -346 75 -868 287 -1315 534 -81 45 -150 82 -152 82 -3 0 -5 -29 -5 -63z"
       id="path6" />
    <path
       d="M6648 7029 c-65 -15 -159 -68 -273 -154 -60 -45 -166 -121 -234 -167 l-124 -85 -131 62 c-246 118 -518 208 -794 265 -624 126 -1251 94 -1919 -99 -312 -90 -691 -243 -883 -355 l-62 -37 -122 87 c-66 48 -224 166 -350 263 -234 178 -283 211 -322 211 -61 0 -33 -96 88 -303 208 -356 279 -556 218 -617 -50 -50 -134 -9 -420 205 -230 173 -579 426 -707 512 -124 84 -174 103 -222 87 -22 -8 -26 -16 -29 -58 -4 -58 37 -151 116 -262 62 -88 313 -397 570 -703 239 -284 239 -283 205 -316 -36 -36 -167 -2 -495 130 -379 153 -530 185 -560 119 -36 -78 224 -340 587 -592 72 -50 138 -97 149 -104 18 -13 18 -16 -2 -88 -119 -434 -202 -947 -222 -1365 -18 -379 17 -683 107 -932 29 -82 35 -85 120 -57 191 62 424 231 520 376 31 46 28 54 -44 144 l-50 60 98 135 c54 74 99 136 99 139 0 3 -41 61 -91 128 -78 107 -88 126 -77 140 7 10 79 94 160 189 82 95 148 178 148 185 0 8 -34 82 -75 166 -41 83 -72 152 -70 152 5 0 459 -261 467 -268 3 -4 -38 -59 -93 -122 -54 -63 -99 -120 -99 -125 0 -6 50 -72 110 -147 60 -76 110 -141 110 -145 0 -5 -32 -33 -70 -63 -39 -30 -69 -58 -68 -61 2 -4 54 -51 116 -104 l113 -96 -24 -32 c-146 -195 -199 -268 -196 -271 2 -2 45 -19 94 -39 201 -78 391 -127 496 -127 27 0 49 2 49 4 0 2 -18 41 -39 87 -163 349 -169 732 -19 1167 82 240 198 436 357 604 267 282 608 459 1066 553 208 42 298 53 485 61 321 14 699 -46 972 -155 593 -236 1106 -706 1321 -1212 41 -96 123 -426 164 -659 31 -178 43 -505 24 -671 -52 -447 -242 -892 -527 -1230 -326 -386 -866 -690 -1464 -823 -177 -39 -254 -47 -537 -53 -456 -10 -795 41 -1116 167 -288 113 -490 276 -818 659 -249 291 -350 471 -471 836 -151 456 -223 762 -271 1150 -9 68 -6 -201 3 -335 35 -506 112 -954 221 -1285 125 -380 448 -848 774 -1125 103 -87 254 -189 357 -241 153 -77 599 -210 853 -254 126 -22 647 -32 866 -16 201 14 284 31 550 109 340 100 582 195 765 298 195 111 513 373 754 620 274 281 441 524 535 774 16 41 66 169 112 283 92 230 140 379 172 534 70 342 77 791 20 1358 -30 297 -44 387 -84 525 -45 160 -157 499 -194 589 l-29 70 109 96 c246 216 488 472 540 569 33 63 23 80 -45 73 -70 -7 -155 -42 -443 -181 -254 -122 -367 -166 -432 -166 -84 0 -117 37 -115 129 3 136 34 191 300 530 143 182 194 265 194 318 0 89 -119 37 -460 -201 -362 -252 -529 -327 -590 -266 -20 20 -24 43 -20 129 5 119 63 243 206 436 94 126 144 212 144 247 0 17 -36 49 -55 47 -5 -1 -27 -5 -47 -10z m-5380 -2666 c73 -59 89 -150 39 -224 -66 -98 -218 -92 -276 11 -87 155 101 323 237 213z"
       id="path8" />
    <path
       style="fill:#000000;stroke:#000000;stroke-width:29.93862724px;stroke-linecap:butt;stroke-linejoin:miter;stroke-opacity:1"
       d="m 4247.6029,4843.0363 585.9847,-22.2415 -647.6674,-1656.9996 1028.0439,578.2816 -472.9003,-2001.744 267.2914,55.6037 -493.461,-733.973 -308.4133,845.1811 328.9741,-189.0537 71.963,1334.4963 -1058.8852,-700.6107 z"
       id="path2998"
       inkscape:connector-curvature="0" />
  </g>
</svg>
