<?xml version="1.0" encoding="UTF-8" standalone="no"?>
<svg
   xmlns:dc="http://purl.org/dc/elements/1.1/"
   xmlns:cc="http://creativecommons.org/ns#"
   xmlns:rdf="http://www.w3.org/1999/02/22-rdf-syntax-ns#"
   xmlns:svg="http://www.w3.org/2000/svg"
   xmlns="http://www.w3.org/2000/svg"
   id="svg8"
   version="1.1"
   viewBox="0 0 100 100"
   height="100mm"
   width="100mm">
  <defs
     id="defs2" />
  <metadata
     id="metadata5">
    <rdf:RDF>
      <cc:Work
         rdf:about="">
        <dc:format>image/svg+xml</dc:format>
        <dc:type
           rdf:resource="http://purl.org/dc/dcmitype/StillImage" />
        <dc:title></dc:title>
      </cc:Work>
    </rdf:RDF>
  </metadata>
  <g
     transform="translate(0,-197)"
     id="layer1">
    <path
       style="fill:none;fill-opacity:1;stroke:#000000;stroke-width:0.2;stroke-miterlimit:4;stroke-dasharray:none;stroke-opacity:1"
       d="m -400,242 c -3.69595,-0.28351 -8.58908,-0.85905 -11.69704,-1.37581 -4.44431,-0.73897 -9.3359,-2.06992 -13.28393,-3.61442 -2.73012,-1.06804 -6.46116,-3.10083 -7.2828,-3.96789 l -0.29539,-0.31173 0.56003,-0.424 c 0.30802,-0.2332 1.49712,-0.97784 2.64245,-1.65476 6.26901,-3.70515 11.54084,-7.51554 16.54633,-11.95942 1.83881,-1.63248 5.74542,-5.42351 6.42364,-6.23357 l 0.42201,-0.50405 -0.3521,-0.16265 c -0.19365,-0.0895 -1.39709,-0.47355 -2.67431,-0.85356 -1.27722,-0.37999 -2.63481,-0.81419 -3.01688,-0.96487 -1.75687,-0.69285 -5.52275,-2.7843 -6.86599,-3.81312 l -0.77268,-0.59184 0.29633,-0.31435 c 0.16298,-0.1729 1.12995,-0.9466 2.14881,-1.71934 3.77775,-2.86518 7.56535,-6.18161 9.74062,-8.52893 2.53618,-2.73678 5.28643,-6.04234 5.2893,-6.35726 0.002,-0.18257 -0.39443,-0.37452 -1.83978,-0.89157 -2.06708,-0.73945 -5.0219,-2.38599 -6.11248,-3.4061 -0.93232,-0.87208 -1.08334,-0.58762 1.83751,-3.46105 2.60444,-2.56216 3.71233,-3.7843 5.38124,-5.93614 3.08445,-3.97702 5.7529,-8.51591 7.43679,-12.64956 0.41986,-1.03067 0.73,-1.65245 0.83426,-1.67253 0.1231,-0.0237 0.2982,0.30421 0.67823,1.27008 0.99505,2.52899 3.29225,6.86286 5.08988,9.60246 2.15253,3.28051 5.70282,7.46923 8.59023,10.13497 0.71797,0.66286 1.4243,1.34647 1.56959,1.51915 l 0.26418,0.31396 -0.21671,0.30434 c -0.2505,0.35178 -1.36729,1.27496 -2.28734,1.89079 -0.87255,0.58404 -1.57962,0.92378 -3.91665,1.88195 -1.10619,0.45354 -2.07271,0.88114 -2.14783,0.95022 -0.15575,0.14323 0.26159,0.82393 1.29696,2.11542 3.72539,4.64688 7.96469,8.67582 13.74426,13.06225 2.31141,1.75425 2.19103,1.65588 2.19103,1.79041 0,0.19205 -1.1535,1.17314 -2.15553,1.83336 -2.08948,1.3767 -5.25856,2.70213 -9.7003,4.05701 -1.96915,0.60067 -2.08012,0.25911 1.11185,3.42206 3.10757,3.07932 5.09749,4.88718 7.40953,6.73161 2.31575,1.84738 6.03888,4.62089 7.3959,5.5095 3.01534,1.97448 4.5304,2.93657 5.3597,3.40345 1.41059,0.79414 2.74305,1.63657 3.14046,1.98549 l 0.36373,0.31936 -0.34951,0.36854 c -0.87395,0.92154 -4.10343,2.68446 -7.1963,3.92831 -5.6886,2.28779 -13.22324,3.9312 -21.65092,4.72239 -3.14026,0.29481 -11.43595,0.44433 -13.95038,0.25144 z"
       id="path13638-2-7" />
    <path
       id="path4679"
       d="m 49.000001,218.05834 h 1.999998 v 12 h -1.999998 z"
       style="fill:none;stroke:#000000;stroke-width:0.2;stroke-linecap:butt;stroke-linejoin:miter;stroke-opacity:1;stroke-miterlimit:4;stroke-dasharray:none" />
    <path
       id="path4679-2"
       d="m 49.000001,234.05834 h 1.999998 v 12 h -1.999998 z"
       style="fill:none;stroke:#000000;stroke-width:0.2;stroke-linecap:butt;stroke-linejoin:miter;stroke-opacity:1;stroke-miterlimit:4;stroke-dasharray:none" />
    <path
       id="path4679-2-3"
       d="m 49.000001,276.05834 h 1.999998 v 12 h -1.999998 z"
       style="fill:none;stroke:#000000;stroke-width:0.2;stroke-linecap:butt;stroke-linejoin:miter;stroke-opacity:1;stroke-miterlimit:4;stroke-dasharray:none" />
    <path
       id="path4679-2-8"
       d="m 49.000001,260.05834 h 1.999998 v 12 h -1.999998 z"
       style="fill:none;stroke:#000000;stroke-width:0.2;stroke-linecap:butt;stroke-linejoin:miter;stroke-opacity:1;stroke-miterlimit:4;stroke-dasharray:none" />
    <path
       id="path13638-2"
       transform="matrix(0.26458333,0,0,0.26458333,0,197)"
       d="M 188.97656 13.695312 C 188.55863 13.683975 185.95694 17.864433 184.30664 22.158203 C 177.68786 39.378789 167.20005 58.287381 155.07617 74.855469 C 148.51626 83.819941 144.16094 88.910146 133.92383 99.583984 C 122.44301 111.55458 123.03654 110.37087 126.70117 114.00391 C 130.98785 118.25368 142.60356 125.11286 150.72852 128.19336 C 156.40965 130.34735 157.96513 131.14566 157.95898 131.90625 C 157.94802 133.2182 147.13679 146.98935 137.16797 158.39062 C 128.61775 168.16947 113.72988 181.98755 98.880859 193.92383 C 94.876087 197.143 91.07615 200.36564 90.435547 201.08594 L 89.269531 202.39453 L 92.308594 204.85938 C 97.58839 209.14531 112.38932 217.85971 119.29492 220.74609 C 120.79669 221.37384 126.134 223.18062 131.1543 224.76367 C 136.17458 226.34676 140.90482 227.94746 141.66602 228.32031 L 143.05078 229 L 141.39062 231.09766 C 138.72479 234.47232 123.37026 250.26752 116.14258 257.06836 C 96.467777 275.58139 75.744783 291.45516 51.103516 306.89062 C 46.601645 309.71064 41.929469 312.81171 40.71875 313.7832 L 38.515625 315.55078 L 39.677734 316.84961 C 42.907299 320.46174 57.573558 328.9295 68.304688 333.37891 C 83.823003 339.81321 103.04855 345.35701 120.51758 348.43555 L 126.02539 370.39453 L 134.92969 370.39453 L 136.06445 370.39453 L 136.06445 375.12891 L 173.85742 375.12891 L 173.85742 370.39453 L 188.97656 370.39453 L 204.09375 370.39453 L 204.09375 375.12891 L 241.88867 375.12891 L 241.88867 370.39453 L 243.02344 370.39453 L 251.92773 370.39453 L 257.43359 348.43555 C 274.90262 345.35701 294.13012 339.81321 309.64844 333.37891 C 320.37957 328.9295 335.04583 320.46174 338.27539 316.84961 L 339.4375 315.55078 L 337.23438 313.7832 C 336.02366 312.81171 331.35148 309.71064 326.84961 306.89062 C 302.20834 291.45516 281.48535 275.58139 261.81055 257.06836 C 254.58286 250.26752 239.22834 234.47232 236.5625 231.09766 L 234.90234 229 L 236.28711 228.32031 C 237.04831 227.94746 241.77855 226.34676 246.79883 224.76367 C 251.81912 223.18062 257.15643 221.37384 258.6582 220.74609 C 265.56381 217.85971 280.36474 209.14531 285.64453 204.85938 L 288.68359 202.39453 L 287.51758 201.08594 C 286.87697 200.36564 283.07508 197.143 279.07031 193.92383 C 264.22129 181.98755 249.33537 168.16947 240.78516 158.39062 C 230.81634 146.98935 220.00315 133.2182 219.99219 131.90625 C 219.98604 131.14566 221.54348 130.34735 227.22461 128.19336 C 235.34957 125.11286 246.96528 118.25368 251.25195 114.00391 C 254.91658 110.37087 255.51011 111.55458 244.0293 99.583984 C 233.79218 88.910146 229.43687 83.819941 222.87695 74.855469 C 210.75308 58.287381 200.26527 39.378789 193.64648 22.158203 C 191.99619 17.864433 189.3945 13.683975 188.97656 13.695312 z "
       style="fill:none;fill-opacity:1;stroke:#000000;stroke-width:0.75590551;stroke-linejoin:miter;stroke-miterlimit:4;stroke-dasharray:none;stroke-opacity:1" />
    <path
       id="path13638-2-1"
       d="m 1.35109,292.7293 c 0.11057,0.003 0.79894,-1.10308 1.23558,-2.23914 1.75122,-4.55628 4.52612,-9.55918 7.7339,-13.94282 1.73564,-2.37185 2.88799,-3.71863 5.59655,-6.54275 3.03764,-3.16722 2.8806,-2.85403 1.911,-3.81527 -1.13419,-1.12442 -4.20751,-2.93924 -6.35724,-3.75429 -1.5031298,-0.56991 -1.91469,-0.78113 -1.91306,-0.98237 0.003,-0.34712 2.86338,-3.99074 5.50096,-7.00732 2.26224,-2.58732 6.20133,-6.24336 10.13013,-9.4015 1.0596,-0.85174 2.06499,-1.70439 2.23449,-1.89497 l 0.30851,-0.34624 -0.80409,-0.65215 c -1.39695,-1.13399 -5.31302,-3.43967 -7.14013,-4.20336 -0.39734,-0.16609 -1.80951,-0.64414 -3.13779,-1.06299 -1.32829,-0.41886 -2.57983,-0.84237 -2.78123,-0.94102 l -0.36639,-0.17984 0.43925,-0.55501 c 0.70534,-0.89287 4.76789,-5.07202 6.68022,-6.87141 5.20562,-4.89824 10.68858,-9.09818 17.20825,-13.18214 1.19112,-0.74613 2.4273,-1.56662 2.74763,-1.82366 l 0.58291,-0.46767 -0.30747,-0.34365 c -0.85449,-0.95571 -4.73494,-3.19614 -7.57422,-4.37338 -4.10588,-1.70241 -9.19264,-3.1692 -13.81466,-3.98373 l -1.45727,-5.80998 H 15.65099 15.35075 V 197.1 H 5.35136 v 1.25264 H 1.35109 v 4.36975 3.63286 H 0.1 v 9.99784 h 1.25109 v 32.00114 H 0.1 v 9.99733 h 1.25109 z"
       style="fill:none;fill-opacity:1;stroke:#000000;stroke-width:0.2;stroke-linejoin:miter;stroke-miterlimit:4;stroke-dasharray:none;stroke-opacity:1" />
    <path
       id="path13638-2-8-9"
       d="m 98.648922,292.7293 v -18.37665 h 1.251077 v -9.99733 h -1.251077 v -32.00269 h 1.251077 v -9.99732 h -1.251077 v -19.63292 -4.36975 h -3.99976 V 197.1 h -9.9999 v 1.25264 h -0.30025 -2.35592 l -1.45676,5.80998 c -4.62202,0.81453 -9.70929,2.28132 -13.81518,3.98373 -2.83928,1.17724 -6.71973,3.41767 -7.57421,4.37338 l -0.30748,0.34365 0.58291,0.46767 c 0.32034,0.25704 1.55652,1.07753 2.74764,1.82366 6.51966,4.08396 12.00263,8.2839 17.20825,13.18214 1.91232,1.79939 5.97487,5.97854 6.68021,6.87142 l 0.43925,0.555 -0.36639,0.17984 c -0.2014,0.0987 -1.45294,0.52217 -2.78122,0.94103 -1.32829,0.41884 -2.74045,0.89689 -3.13779,1.06298 -1.82711,0.76369 -5.74319,3.06937 -7.14014,4.20336 l -0.80408,0.65216 0.30851,0.34623 c 0.16949,0.19058 1.17541,1.04323 2.235,1.89497 3.92881,3.15814 7.86738,6.81418 10.12962,9.4015 2.63758,3.01658 5.49857,6.6602 5.50147,7.00732 0.002,0.20124 -0.41045,0.41246 -1.91358,0.98237 -2.14973,0.81505 -5.22305,2.62987 -6.35723,3.75429 -0.9696,0.96124 -1.12664,0.64805 1.91099,3.81527 2.70857,2.82412 3.86091,4.17091 5.59656,6.54276 3.20777,4.38364 5.98267,9.38653 7.73389,13.94281 0.43664,1.13606 1.12501,2.24214 1.23559,2.23914 z"
       style="fill:none;fill-opacity:1;stroke:#000000;stroke-width:0.2;stroke-linejoin:miter;stroke-miterlimit:4;stroke-dasharray:none;stroke-opacity:1" />
  </g>
</svg>
