  0
SECTION
  2
HEADER
  9
$ACADVER
  1
AC1014
  9
$HANDSEED
  5
FFFF
  9
$MEASUREMENT
 70
     1
  0
ENDSEC
  0
SECTION
  2
TABLES
  0
TABLE
  2
VPORT
  5
8
330
0
100
AcDbSymbolTable
 70
     4
  0
VPORT
  5
2E
330
8
100
AcDbSymbolTableRecord
100
AcDbViewportTableRecord
  2
*ACTIVE
 70
     0
 10
0.0
 20
0.0
 11
1.0
 21
1.0
 12
210.0
 22
148.5
 13
0.0
 23
0.0
 14
10.0
 24
10.0
 15
10.0
 25
10.0
 16
0.0
 26
0.0
 36
1.0
 17
0.0
 27
0.0
 37
0.0
 40
341.0
 41
1.24
 42
50.0
 43
0.0
 44
0.0
 50
0.0
 51
0.0
 71
     0
 72
   100
 73
     1
 74
     3
 75
     0
 76
     0
 77
     0
 78
     0
  0
ENDTAB
  0
TABLE
  2
LTYPE
  5
5
330
0
100
AcDbSymbolTable
 70
     1
  0
LTYPE
  5
14
330
5
100
AcDbSymbolTableRecord
100
AcDbLinetypeTableRecord
  2
BYBLOCK
 70
     0
  3

 72
    65
 73
     0
 40
0.0
  0
LTYPE
  5
15
330
5
100
AcDbSymbolTableRecord
100
AcDbLinetypeTableRecord
  2
BYLAYER
 70
     0
  3

 72
    65
 73
     0
 40
0.0
  0
LTYPE
  5
16
330
5
100
AcDbSymbolTableRecord
100
AcDbLinetypeTableRecord
  2
CONTINUOUS
 70
     0
  3
Solid line
 72
    65
 73
     0
 40
0.0
  0
ENDTAB
  0
TABLE
  2
LAYER
  5
2
100
AcDbSymbolTable
 70
2
  0
LAYER
  5
50
100
AcDbSymbolTableRecord
100
AcDbLayerTableRecord
  2
0
 70
0
  6
CONTINUOUS
  0
LAYER
  5
51
100
AcDbSymbolTableRecord
100
AcDbLayerTableRecord
  2
Layer_1
 70
0
  6
CONTINUOUS
  0
ENDTAB
  0
TABLE
  2
STYLE
  5
3
330
0
100
AcDbSymbolTable
 70
     1
  0
STYLE
  5
11
330
3
100
AcDbSymbolTableRecord
100
AcDbTextStyleTableRecord
  2
STANDARD
 70
     0
 40
0.0
 41
1.0
 50
0.0
 71
     0
 42
2.5
  3
txt
  4

  0
ENDTAB
  0
TABLE
  2
VIEW
  5
6
330
0
100
AcDbSymbolTable
 70
     0
  0
ENDTAB
  0
TABLE
  2
UCS
  5
7
330
0
100
AcDbSymbolTable
 70
     0
  0
ENDTAB
  0
TABLE
  2
APPID
  5
9
330
0
100
AcDbSymbolTable
 70
     2
  0
APPID
  5
12
330
9
100
AcDbSymbolTableRecord
100
AcDbRegAppTableRecord
  2
ACAD
 70
     0
  0
ENDTAB
  0
TABLE
  2
DIMSTYLE
  5
A
330
0
100
AcDbSymbolTable
 70
     1
  0
DIMSTYLE
105
27
330
A
100
AcDbSymbolTableRecord
100
AcDbDimStyleTableRecord
  2
ISO-25
 70
     0
  3

  4

  5

  6

  7

 40
1.0
 41
2.5
 42
0.625
 43
3.75
 44
1.25
 45
0.0
 46
0.0
 47
0.0
 48
0.0
140
2.5
141
2.5
142
0.0
143
0.03937007874016
144
1.0
145
0.0
146
1.0
147
0.625
 71
     0
 72
     0
 73
     0
 74
     0
 75
     0
 76
     0
 77
     1
 78
     8
170
     0
171
     3
172
     1
173
     0
174
     0
175
     0
176
     0
177
     0
178
     0
270
     2
271
     2
272
     2
273
     2
274
     3
340
11
275
     0
280
     0
281
     0
282
     0
283
     0
284
     8
285
     0
286
     0
287
     3
288
     0
  0
ENDTAB
  0
TABLE
  2
BLOCK_RECORD
  5
1
330
0
100
AcDbSymbolTable
 70
     1
  0
BLOCK_RECORD
  5
1F
330
1
100
AcDbSymbolTableRecord
100
AcDbBlockTableRecord
  2
*MODEL_SPACE
  0
BLOCK_RECORD
  5
1B
330
1
100
AcDbSymbolTableRecord
100
AcDbBlockTableRecord
  2
*PAPER_SPACE
  0
ENDTAB
  0
ENDSEC
  0
SECTION
  2
BLOCKS
  0
BLOCK
  5
20
330
1F
100
AcDbEntity
  8
0
100
AcDbBlockBegin
  2
*MODEL_SPACE
 70
     0
 10
0.0
 20
0.0
 30
0.0
  3
*MODEL_SPACE
  1

  0
ENDBLK
  5
21
330
1F
100
AcDbEntity
  8
0
100
AcDbBlockEnd
  0
BLOCK
  5
1C
330
1B
100
AcDbEntity
 67
     1
  8
0
100
AcDbBlockBegin
  2
*PAPER_SPACE
  1

  0
ENDBLK
  5
1D
330
1B
100
AcDbEntity
 67
     1
  8
0
100
AcDbBlockEnd
  0
ENDSEC
  0
SECTION
  2
ENTITIES
  0
LWPOLYLINE
  5
100
100
AcDbEntity
  8
Layer_1
 62
7
100
AcDbPolyline
 90
71
 70
1
 10
15.845849
 20
16.187101
 30
0.0
 10
15.833472
 20
16.187024
 30
0.0
 10
15.668281
 20
16.118440
 30
0.0
 10
15.329429
 20
15.953689
 30
0.0
 10
14.726985
 20
15.662541
 30
0.0
 10
14.188820
 20
15.426684
 30
0.0
 10
13.942649
 20
15.328990
 30
0.0
 10
13.711108
 20
15.244564
 30
0.0
 10
13.493719
 20
15.173229
 30
0.0
 10
13.290004
 20
15.114730
 30
0.0
 10
13.130423
 20
15.074796
 30
0.0
 10
13.015264
 20
15.052894
 30
0.0
 10
12.900771
 20
15.043726
 30
0.0
 10
12.743197
 20
15.041179
 30
0.0
 10
12.472403
 20
15.038632
 30
0.0
 10
12.388701
 20
14.815993
 30
0.0
 10
12.275504
 20
14.537452
 30
0.0
 10
12.146057
 20
14.264209
 30
0.0
 10
12.002956
 20
14.000184
 30
0.0
 10
11.848820
 20
13.749327
 30
0.0
 10
11.686249
 20
13.515584
 30
0.0
 10
11.517854
 20
13.302928
 30
0.0
 10
11.346239
 20
13.115231
 30
0.0
 10
11.174018
 20
12.956516
 30
0.0
 10
11.085589
 20
12.878814
 30
0.0
 10
11.054600
 20
12.842496
 30
0.0
 10
11.130524
 20
12.858796
 30
0.0
 10
11.303965
 20
12.908433
 30
0.0
 10
11.808028
 20
13.044914
 30
0.0
 10
12.053377
 20
13.101555
 30
0.0
 10
12.274684
 20
13.145334
 30
0.0
 10
12.519847
 20
13.176302
 30
0.0
 10
12.830466
 20
13.184452
 30
0.0
 10
13.067334
 20
13.189291
 30
0.0
 10
13.165274
 20
13.196931
 30
0.0
 10
13.138535
 20
13.271730
 30
0.0
 10
13.114086
 20
13.351673
 30
0.0
 10
13.092286
 20
13.457008
 30
0.0
 10
13.084085
 20
13.560967
 30
0.0
 10
13.093839
 20
13.663781
 30
0.0
 10
13.120956
 20
13.764506
 30
0.0
 10
13.164861
 20
13.862200
 30
0.0
 10
13.224959
 20
13.955870
 30
0.0
 10
13.300670
 20
14.044575
 30
0.0
 10
13.391409
 20
14.127370
 30
0.0
 10
13.496594
 20
14.203264
 30
0.0
 10
13.612645
 20
14.272205
 30
0.0
 10
13.737043
 20
14.336308
 30
0.0
 10
13.870786
 20
14.395877
 30
0.0
 10
14.014883
 20
14.451295
 30
0.0
 10
14.338146
 20
14.550950
 30
0.0
 10
14.714849
 20
14.637897
 30
0.0
 10
14.907253
 20
14.680657
 30
0.0
 10
14.866316
 20
14.764370
 30
0.0
 10
14.829940
 20
14.856920
 30
0.0
 10
14.819778
 20
14.957161
 30
0.0
 10
14.836001
 20
15.063387
 30
0.0
 10
14.878772
 20
15.173993
 30
0.0
 10
14.930992
 20
15.258597
 30
0.0
 10
15.004310
 20
15.349186
 30
0.0
 10
15.095953
 20
15.443391
 30
0.0
 10
15.203147
 20
15.538895
 30
0.0
 10
15.323116
 20
15.633330
 30
0.0
 10
15.453080
 20
15.724275
 30
0.0
 10
15.590270
 20
15.809465
 30
0.0
 10
15.731907
 20
15.886454
 30
0.0
 10
15.872661
 20
15.955955
 30
0.0
 10
15.872661
 20
16.071706
 30
0.0
 10
15.868764
 20
16.163798
 30
0.0
 10
15.860742
 20
16.180606
 30
0.0
 10
15.845843
 20
16.185700
 30
0.0
  0
LWPOLYLINE
  5
101
100
AcDbEntity
  8
Layer_1
 62
7
100
AcDbPolyline
 90
43
 70
1
 10
0.127338
 20
16.005312
 30
0.0
 10
0.127338
 20
15.891344
 30
0.0
 10
0.328607
 20
15.770219
 30
0.0
 10
0.604239
 20
15.589678
 30
0.0
 10
0.826436
 20
15.414664
 30
0.0
 10
0.993865
 20
15.245965
 30
0.0
 10
1.105187
 20
15.084474
 30
0.0
 10
1.168862
 20
14.872531
 30
0.0
 10
1.161807
 20
14.773385
 30
0.0
 10
1.128358
 20
14.681931
 30
0.0
 10
1.090951
 20
14.607132
 30
0.0
 10
1.210287
 20
14.585739
 30
0.0
 10
1.755321
 20
14.456159
 30
0.0
 10
2.220197
 20
14.291841
 30
0.0
 10
2.485588
 20
14.137787
 30
0.0
 10
2.702889
 20
13.956991
 30
0.0
 10
2.841149
 20
13.747264
 30
0.0
 10
2.900594
 20
13.513495
 30
0.0
 10
2.899830
 20
13.378797
 30
0.0
 10
2.857751
 20
13.232077
 30
0.0
 10
2.806098
 20
13.080671
 30
0.0
 10
3.164108
 20
13.078124
 30
0.0
 10
3.551702
 20
13.063608
 30
0.0
 10
3.913747
 20
13.021076
 30
0.0
 10
4.267443
 20
12.947831
 30
0.0
 10
4.629989
 20
12.841198
 30
0.0
 10
4.882912
 20
12.764591
 30
0.0
 10
4.681642
 20
12.980124
 30
0.0
 10
4.443858
 20
13.243614
 30
0.0
 10
4.232793
 20
13.521136
 30
0.0
 10
4.040431
 20
13.824711
 30
0.0
 10
3.858754
 20
14.166361
 30
0.0
 10
3.625423
 20
14.706049
 30
0.0
 10
3.541711
 20
14.941167
 30
0.0
 10
3.370720
 20
14.941167
 30
0.0
 10
3.085293
 20
14.961032
 30
0.0
 10
2.749101
 20
15.019582
 30
0.0
 10
2.235100
 20
15.162686
 30
0.0
 10
1.645461
 20
15.380257
 30
0.0
 10
1.022087
 20
15.655283
 30
0.0
 10
0.406898
 20
15.970727
 30
0.0
 10
0.136162
 20
16.116759
 30
0.0
 10
0.127274
 20
16.004548
 30
0.0
  0
LWPOLYLINE
  5
102
100
AcDbEntity
  8
Layer_1
 62
7
100
AcDbPolyline
 90
246
 70
1
 10
11.736832
 20
12.446600
 30
0.0
 10
11.526436
 20
12.356877
 30
0.0
 10
11.250582
 20
12.172312
 30
0.0
 10
10.833791
 20
11.874849
 30
0.0
 10
10.612931
 20
11.723443
 30
0.0
 10
10.379602
 20
11.833897
 30
0.0
 10
9.692525
 20
12.110630
 30
0.0
 10
8.965373
 20
12.305891
 30
0.0
 10
8.129740
 20
12.421362
 30
0.0
 10
7.709186
 20
12.439444
 30
0.0
 10
7.285753
 20
12.430785
 30
0.0
 10
6.427078
 20
12.333676
 30
0.0
 10
5.547358
 20
12.129552
 30
0.0
 10
4.680833
 20
11.828090
 30
0.0
 10
4.286477
 20
11.657660
 30
0.0
 10
3.974610
 20
11.497239
 30
0.0
 10
3.864179
 20
11.431328
 30
0.0
 10
3.646879
 20
11.586299
 30
0.0
 10
3.023478
 20
12.054728
 30
0.0
 10
2.606466
 20
12.361538
 30
0.0
 10
2.449949
 20
12.430556
 30
0.0
 10
2.398297
 20
12.398084
 30
0.0
 10
2.406753
 20
12.298964
 30
0.0
 10
2.606685
 20
11.890868
 30
0.0
 10
2.838931
 20
11.466932
 30
0.0
 10
2.980503
 20
11.144332
 30
0.0
 10
3.032241
 20
10.920267
 30
0.0
 10
3.024677
 20
10.844296
 30
0.0
 10
2.994972
 20
10.791909
 30
0.0
 10
2.912148
 20
10.757782
 30
0.0
 10
2.778562
 20
10.798123
 30
0.0
 10
2.246890
 20
11.157040
 30
0.0
 10
0.987623
 20
12.068964
 30
0.0
 10
0.739153
 20
12.213239
 30
0.0
 10
0.659000
 20
12.232849
 30
0.0
 10
0.592208
 20
12.223936
 30
0.0
 10
0.553691
 20
12.194979
 30
0.0
 10
0.540549
 20
12.120613
 30
0.0
 10
0.588418
 20
11.922678
 30
0.0
 10
0.747165
 20
11.653967
 30
0.0
 10
1.762416
 20
10.401819
 30
0.0
 10
2.127328
 20
9.952747
 30
0.0
 10
2.155908
 20
9.880571
 30
0.0
 10
2.127550
 20
9.838982
 30
0.0
 10
2.044894
 20
9.815042
 30
0.0
 10
1.881753
 20
9.842548
 30
0.0
 10
1.245884
 20
10.070535
 30
0.0
 10
0.812761
 20
10.235133
 30
0.0
 10
0.514056
 20
10.322768
 30
0.0
 10
0.331907
 20
10.337284
 30
0.0
 10
0.278958
 20
10.318183
 30
0.0
 10
0.248445
 20
10.282376
 30
0.0
 10
0.248442
 20
10.215574
 30
0.0
 10
0.293836
 20
10.122133
 30
0.0
 10
0.504706
 20
9.871377
 30
0.0
 10
0.848830
 20
9.562504
 30
0.0
 10
1.293977
 20
9.227934
 30
0.0
 10
1.559367
 20
9.042682
 30
0.0
 10
1.582976
 20
9.003741
 30
0.0
 10
1.555811
 20
8.885953
 30
0.0
 10
1.409621
 20
8.284659
 30
0.0
 10
1.291981
 20
7.659630
 30
0.0
 10
1.207403
 20
7.039974
 30
0.0
 10
1.160397
 20
6.454699
 30
0.0
 10
1.154132
 20
5.972900
 30
0.0
 10
1.183575
 20
5.537860
 30
0.0
 10
1.249090
 20
5.146217
 30
0.0
 10
1.351005
 20
4.794660
 30
0.0
 10
1.384903
 20
4.710183
 30
0.0
 10
1.420469
 20
4.670428
 30
0.0
 10
1.564741
 20
4.693094
 30
0.0
 10
1.828935
 20
4.808005
 30
0.0
 10
2.091292
 20
4.972527
 30
0.0
 10
2.321922
 20
5.164732
 30
0.0
 10
2.490936
 20
5.362820
 30
0.0
 10
2.520018
 20
5.414902
 30
0.0
 10
2.520782
 20
5.461660
 30
0.0
 10
2.412800
 20
5.619306
 30
0.0
 10
2.323743
 20
5.726168
 30
0.0
 10
2.498297
 20
5.966610
 30
0.0
 10
2.674628
 20
6.214207
 30
0.0
 10
2.512546
 20
6.442169
 30
0.0
 10
2.384525
 20
6.628975
 30
0.0
 10
2.375382
 20
6.691549
 30
0.0
 10
2.660366
 20
7.028182
 30
0.0
 10
2.923972
 20
7.357684
 30
0.0
 10
2.790389
 20
7.653365
 30
0.0
 10
2.665709
 20
7.924087
 30
0.0
 10
3.497502
 20
7.446745
 30
0.0
 10
3.331857
 20
7.229454
 30
0.0
 10
3.155523
 20
7.006815
 30
0.0
 10
3.351448
 20
6.744981
 30
0.0
 10
3.547375
 20
6.486712
 30
0.0
 10
3.422695
 20
6.374501
 30
0.0
 10
3.301578
 20
6.265856
 30
0.0
 10
3.508190
 20
6.080603
 30
0.0
 10
3.709460
 20
5.909613
 30
0.0
 10
3.666712
 20
5.852616
 30
0.0
 10
3.317608
 20
5.369926
 30
0.0
 10
3.485035
 20
5.300475
 30
0.0
 10
3.990881
 20
5.135266
 30
0.0
 10
4.368481
 20
5.074270
 30
0.0
 10
4.455759
 20
5.081401
 30
0.0
 10
4.386293
 20
5.236347
 30
0.0
 10
4.290524
 20
5.472357
 30
0.0
 10
4.220954
 20
5.714428
 30
0.0
 10
4.177554
 20
5.962917
 30
0.0
 10
4.160312
 20
6.218206
 30
0.0
 10
4.204201
 20
6.750711
 30
0.0
 10
4.352457
 20
7.314949
 30
0.0
 10
4.473599
 20
7.621301
 30
0.0
 10
4.618956
 20
7.900937
 30
0.0
 10
4.790030
 20
8.156531
 30
0.0
 10
4.988322
 20
8.390758
 30
0.0
 10
5.370907
 20
8.733019
 30
0.0
 10
5.810098
 20
9.008810
 30
0.0
 10
6.313077
 20
9.221822
 30
0.0
 10
6.887023
 20
9.375724
 30
0.0
 10
7.332975
 20
9.452764
 30
0.0
 10
7.750876
 20
9.484369
 30
0.0
 10
8.194214
 20
9.479021
 30
0.0
 10
8.648574
 20
9.428467
 30
0.0
 10
9.086902
 20
9.336809
 30
0.0
 10
9.482149
 20
9.208273
 30
0.0
 10
9.870792
 20
9.031781
 30
0.0
 10
10.241526
 20
8.820374
 30
0.0
 10
10.589805
 20
8.578124
 30
0.0
 10
10.911071
 20
8.309236
 30
0.0
 10
11.200777
 20
8.017783
 30
0.0
 10
11.454377
 20
7.707942
 30
0.0
 10
11.667316
 20
7.383788
 30
0.0
 10
11.835038
 20
7.049524
 30
0.0
 10
11.981093
 20
6.554151
 30
0.0
 10
12.127149
 20
5.875741
 30
0.0
 10
12.181917
 20
5.270168
 30
0.0
 10
12.169897
 20
4.680590
 30
0.0
 10
12.055542
 20
4.087064
 30
0.0
 10
11.856190
 20
3.512384
 30
0.0
 10
11.579030
 20
2.974123
 30
0.0
 10
11.231232
 20
2.489777
 30
0.0
 10
10.996164
 20
2.239123
 30
0.0
 10
10.728616
 20
2.004005
 30
0.0
 10
10.431848
 20
1.786306
 30
0.0
 10
10.109112
 20
1.587862
 30
0.0
 10
9.763668
 20
1.410555
 30
0.0
 10
9.398771
 20
1.256221
 30
0.0
 10
9.017674
 20
1.126717
 30
0.0
 10
8.623640
 20
1.023904
 30
0.0
 10
8.216201
 20
0.954657
 30
0.0
 10
7.667165
 20
0.929444
 30
0.0
 10
7.094331
 20
0.936829
 30
0.0
 10
6.583114
 20
0.987332
 30
0.0
 10
6.116983
 20
1.083244
 30
0.0
 10
5.679406
 20
1.226882
 30
0.0
 10
5.317502
 20
1.399273
 30
0.0
 10
4.977637
 20
1.633449
 30
0.0
 10
4.624414
 20
1.957781
 30
0.0
 10
4.222432
 20
2.400665
 30
0.0
 10
3.934554
 20
2.760576
 30
0.0
 10
3.717477
 20
3.095757
 30
0.0
 10
3.543148
 20
3.455667
 30
0.0
 10
3.383514
 20
3.889714
 30
0.0
 10
3.073372
 20
4.959283
 30
0.0
 10
2.974491
 20
5.440624
 30
0.0
 10
2.900823
 20
5.938009
 30
0.0
 10
2.895781
 20
5.956855
 30
0.0
 10
2.892623
 20
5.929350
 30
0.0
 10
2.891349
 20
5.774506
 30
0.0
 10
2.906044
 20
5.341249
 30
0.0
 10
2.966548
 20
4.686320
 30
0.0
 10
3.053433
 20
4.079984
 30
0.0
 10
3.165033
 20
3.532070
 30
0.0
 10
3.299676
 20
3.052487
 30
0.0
 10
3.527358
 20
2.523242
 30
0.0
 10
3.854726
 20
1.981797
 30
0.0
 10
4.249221
 20
1.474734
 30
0.0
 10
4.678281
 20
1.048684
 30
0.0
 10
4.996218
 20
0.810688
 30
0.0
 10
5.314150
 20
0.619425
 30
0.0
 10
5.602891
 20
0.501917
 30
0.0
 10
6.006346
 20
0.371191
 30
0.0
 10
6.833465
 20
0.167016
 30
0.0
 10
7.542583
 20
0.127388
 30
0.0
 10
8.375937
 20
0.138594
 30
0.0
 10
8.822336
 20
0.192916
 30
0.0
 10
9.355567
 20
0.332734
 30
0.0
 10
10.141719
 20
0.596122
 30
0.0
 10
10.718141
 20
0.863533
 30
0.0
 10
11.014145
 20
1.057623
 30
0.0
 10
11.358907
 20
1.324831
 30
0.0
 10
12.061124
 20
1.967841
 30
0.0
 10
12.392361
 20
2.331775
 30
0.0
 10
12.657808
 20
2.677856
 30
0.0
 10
12.863140
 20
3.013572
 30
0.0
 10
13.014036
 20
3.346436
 30
0.0
 10
13.213525
 20
3.850519
 30
0.0
 10
13.406777
 20
4.376174
 30
0.0
 10
13.519882
 20
4.801638
 30
0.0
 10
13.592322
 20
5.294541
 30
0.0
 10
13.622517
 20
5.860740
 30
0.0
 10
13.610292
 20
6.502095
 30
0.0
 10
13.555496
 20
7.220438
 30
0.0
 10
13.487367
 20
7.794176
 30
0.0
 10
13.405881
 20
8.155538
 30
0.0
 10
13.060339
 20
9.204631
 30
0.0
 10
13.008686
 20
9.329296
 30
0.0
 10
13.202831
 20
9.500286
 30
0.0
 10
13.813316
 20
10.086503
 30
0.0
 10
14.036908
 20
10.336622
 30
0.0
 10
14.164649
 20
10.513776
 30
0.0
 10
14.192029
 20
10.625528
 30
0.0
 10
14.084495
 20
10.643865
 30
0.0
 10
13.835580
 20
10.570849
 30
0.0
 10
13.295447
 20
10.321494
 30
0.0
 10
12.784482
 20
10.092157
 30
0.0
 10
12.525992
 20
10.025814
 30
0.0
 10
12.430369
 20
10.038802
 30
0.0
 10
12.366136
 20
10.079372
 30
0.0
 10
12.330624
 20
10.150682
 30
0.0
 10
12.321150
 20
10.255711
 30
0.0
 10
12.340276
 20
10.420487
 30
0.0
 10
12.412666
 20
10.592115
 30
0.0
 10
12.855499
 20
11.199724
 30
0.0
 10
13.123787
 20
11.569083
 30
0.0
 10
13.182870
 20
11.683382
 30
0.0
 10
13.201053
 20
11.766127
 30
0.0
 10
13.190765
 20
11.813650
 30
0.0
 10
13.158450
 20
11.836571
 30
0.0
 10
13.019160
 20
11.805424
 30
0.0
 10
12.765987
 20
11.665071
 30
0.0
 10
12.381735
 20
11.408000
 30
0.0
 10
11.960799
 20
11.129331
 30
0.0
 10
11.655250
 20
10.962059
 30
0.0
 10
11.450224
 20
10.899307
 30
0.0
 10
11.380760
 20
10.904910
 30
0.0
 10
11.330859
 20
10.934172
 30
0.0
 10
11.297017
 20
11.004972
 30
0.0
 10
11.295235
 20
11.163942
 30
0.0
 10
11.320499
 20
11.326350
 30
0.0
 10
11.386513
 20
11.502791
 30
0.0
 10
11.662146
 20
11.940505
 30
0.0
 10
11.853174
 20
12.221261
 30
0.0
 10
11.918632
 20
12.380460
 30
0.0
 10
11.882340
 20
12.435012
 30
0.0
 10
11.820667
 20
12.464173
 30
0.0
 10
11.736952
 20
12.446346
 30
0.0
  0
LWPOLYLINE
  5
103
100
AcDbEntity
  8
Layer_1
 62
7
100
AcDbPolyline
 90
17
 70
1
 10
2.154258
 20
7.698010
 30
0.0
 10
2.232488
 20
7.609866
 30
0.0
 10
2.271145
 20
7.508555
 30
0.0
 10
2.268598
 20
7.402202
 30
0.0
 10
2.223594
 20
7.299032
 30
0.0
 10
2.111716
 20
7.202662
 30
0.0
 10
1.972454
 20
7.174596
 30
0.0
 10
1.835863
 20
7.213638
 30
0.0
 10
1.731998
 20
7.318642
 30
0.0
 10
1.695711
 20
7.422245
 30
0.0
 10
1.698513
 20
7.521926
 30
0.0
 10
1.733587
 20
7.611648
 30
0.0
 10
1.794109
 20
7.685327
 30
0.0
 10
1.873247
 20
7.736873
 30
0.0
 10
1.964180
 20
7.760304
 30
0.0
 10
2.060081
 20
7.749353
 30
0.0
 10
2.154121
 20
7.698086
 30
0.0
  0
LWPOLYLINE
  5
104
100
AcDbEntity
  8
Layer_1
 62
7
100
AcDbPolyline
 90
11
 70
1
 10
7.461382
 20
8.553090
 30
0.0
 10
8.505104
 20
8.513462
 30
0.0
 10
7.351517
 20
5.562105
 30
0.0
 10
9.182610
 20
6.592123
 30
0.0
 10
8.340305
 20
3.026714
 30
0.0
 10
8.816392
 20
3.125758
 30
0.0
 10
7.937466
 20
1.818447
 30
0.0
 10
7.388134
 20
3.323846
 30
0.0
 10
7.974086
 20
2.987111
 30
0.0
 10
8.102263
 20
5.364042
 30
0.0
 10
6.216236
 20
4.116148
 30
0.0
  0
ENDSEC
  0
SECTION
  2
OBJECTS
  0
DICTIONARY
  5
C
330
0
100
AcDbDictionary
  3
ACAD_GROUP
350
D
  3
ACAD_MLINESTYLE
350
17
  0
DICTIONARY
  5
D
330
C
100
AcDbDictionary
  0
DICTIONARY
  5
1A
330
C
100
AcDbDictionary
  0
DICTIONARY
  5
17
330
C
100
AcDbDictionary
  3
STANDARD
350
18
  0
DICTIONARY
  5
19
330
C
100
AcDbDictionary
  0
ENDSEC
  0
EOF
