  0
SECTION
  2
HEADER
  9
$ACADVER
  1
AC1014
  9
$HANDSEED
  5
FFFF
  9
$MEASUREMENT
 70
     1
  0
ENDSEC
  0
SECTION
  2
TABLES
  0
TABLE
  2
VPORT
  5
8
330
0
100
AcDbSymbolTable
 70
     4
  0
VPORT
  5
2E
330
8
100
AcDbSymbolTableRecord
100
AcDbViewportTableRecord
  2
*ACTIVE
 70
     0
 10
0.0
 20
0.0
 11
1.0
 21
1.0
 12
210.0
 22
148.5
 13
0.0
 23
0.0
 14
10.0
 24
10.0
 15
10.0
 25
10.0
 16
0.0
 26
0.0
 36
1.0
 17
0.0
 27
0.0
 37
0.0
 40
341.0
 41
1.24
 42
50.0
 43
0.0
 44
0.0
 50
0.0
 51
0.0
 71
     0
 72
   100
 73
     1
 74
     3
 75
     0
 76
     0
 77
     0
 78
     0
  0
ENDTAB
  0
TABLE
  2
LTYPE
  5
5
330
0
100
AcDbSymbolTable
 70
     1
  0
LTYPE
  5
14
330
5
100
AcDbSymbolTableRecord
100
AcDbLinetypeTableRecord
  2
BYBLOCK
 70
     0
  3

 72
    65
 73
     0
 40
0.0
  0
LTYPE
  5
15
330
5
100
AcDbSymbolTableRecord
100
AcDbLinetypeTableRecord
  2
BYLAYER
 70
     0
  3

 72
    65
 73
     0
 40
0.0
  0
LTYPE
  5
16
330
5
100
AcDbSymbolTableRecord
100
AcDbLinetypeTableRecord
  2
CONTINUOUS
 70
     0
  3
Solid line
 72
    65
 73
     0
 40
0.0
  0
ENDTAB
  0
TABLE
  2
LAYER
  5
2
100
AcDbSymbolTable
 70
2
  0
LAYER
  5
50
100
AcDbSymbolTableRecord
100
AcDbLayerTableRecord
  2
0
 70
0
  6
CONTINUOUS
  0
LAYER
  5
51
100
AcDbSymbolTableRecord
100
AcDbLayerTableRecord
  2
Layer_1
 70
0
  6
CONTINUOUS
  0
ENDTAB
  0
TABLE
  2
STYLE
  5
3
330
0
100
AcDbSymbolTable
 70
     1
  0
STYLE
  5
11
330
3
100
AcDbSymbolTableRecord
100
AcDbTextStyleTableRecord
  2
STANDARD
 70
     0
 40
0.0
 41
1.0
 50
0.0
 71
     0
 42
2.5
  3
txt
  4

  0
ENDTAB
  0
TABLE
  2
VIEW
  5
6
330
0
100
AcDbSymbolTable
 70
     0
  0
ENDTAB
  0
TABLE
  2
UCS
  5
7
330
0
100
AcDbSymbolTable
 70
     0
  0
ENDTAB
  0
TABLE
  2
APPID
  5
9
330
0
100
AcDbSymbolTable
 70
     2
  0
APPID
  5
12
330
9
100
AcDbSymbolTableRecord
100
AcDbRegAppTableRecord
  2
ACAD
 70
     0
  0
ENDTAB
  0
TABLE
  2
DIMSTYLE
  5
A
330
0
100
AcDbSymbolTable
 70
     1
  0
DIMSTYLE
105
27
330
A
100
AcDbSymbolTableRecord
100
AcDbDimStyleTableRecord
  2
ISO-25
 70
     0
  3

  4

  5

  6

  7

 40
1.0
 41
2.5
 42
0.625
 43
3.75
 44
1.25
 45
0.0
 46
0.0
 47
0.0
 48
0.0
140
2.5
141
2.5
142
0.0
143
0.03937007874016
144
1.0
145
0.0
146
1.0
147
0.625
 71
     0
 72
     0
 73
     0
 74
     0
 75
     0
 76
     0
 77
     1
 78
     8
170
     0
171
     3
172
     1
173
     0
174
     0
175
     0
176
     0
177
     0
178
     0
270
     2
271
     2
272
     2
273
     2
274
     3
340
11
275
     0
280
     0
281
     0
282
     0
283
     0
284
     8
285
     0
286
     0
287
     3
288
     0
  0
ENDTAB
  0
TABLE
  2
BLOCK_RECORD
  5
1
330
0
100
AcDbSymbolTable
 70
     1
  0
BLOCK_RECORD
  5
1F
330
1
100
AcDbSymbolTableRecord
100
AcDbBlockTableRecord
  2
*MODEL_SPACE
  0
BLOCK_RECORD
  5
1B
330
1
100
AcDbSymbolTableRecord
100
AcDbBlockTableRecord
  2
*PAPER_SPACE
  0
ENDTAB
  0
ENDSEC
  0
SECTION
  2
BLOCKS
  0
BLOCK
  5
20
330
1F
100
AcDbEntity
  8
0
100
AcDbBlockBegin
  2
*MODEL_SPACE
 70
     0
 10
0.0
 20
0.0
 30
0.0
  3
*MODEL_SPACE
  1

  0
ENDBLK
  5
21
330
1F
100
AcDbEntity
  8
0
100
AcDbBlockEnd
  0
BLOCK
  5
1C
330
1B
100
AcDbEntity
 67
     1
  8
0
100
AcDbBlockBegin
  2
*PAPER_SPACE
  1

  0
ENDBLK
  5
1D
330
1B
100
AcDbEntity
 67
     1
  8
0
100
AcDbBlockEnd
  0
ENDSEC
  0
SECTION
  2
ENTITIES
  0
LWPOLYLINE
  5
100
100
AcDbEntity
  8
Layer_1
 62
7
100
AcDbPolyline
 90
71
 70
1
 10
13.432198
 20
13.722397
 30
0.0
 10
13.421659
 20
13.722344
 30
0.0
 10
13.281022
 20
13.663950
 30
0.0
 10
12.992535
 20
13.523668
 30
0.0
 10
12.479635
 20
13.275807
 30
0.0
 10
12.021460
 20
13.075014
 30
0.0
 10
11.811878
 20
12.991829
 30
0.0
 10
11.614753
 20
12.919968
 30
0.0
 10
11.429675
 20
12.859220
 30
0.0
 10
11.256239
 20
12.809426
 30
0.0
 10
11.120378
 20
12.775427
 30
0.0
 10
11.022335
 20
12.756641
 30
0.0
 10
10.924860
 20
12.748968
 30
0.0
 10
10.790707
 20
12.746322
 30
0.0
 10
10.560162
 20
12.743677
 30
0.0
 10
10.488901
 20
12.554129
 30
0.0
 10
10.392529
 20
12.316983
 30
0.0
 10
10.282322
 20
12.084361
 30
0.0
 10
10.160491
 20
11.859571
 30
0.0
 10
10.029265
 20
11.646000
 30
0.0
 10
9.890858
 20
11.447007
 30
0.0
 10
9.747492
 20
11.265952
 30
0.0
 10
9.601385
 20
11.106170
 30
0.0
 10
9.454762
 20
10.971048
 30
0.0
 10
9.379477
 20
10.904875
 30
0.0
 10
9.353093
 20
10.873972
 30
0.0
 10
9.417732
 20
10.887730
 30
0.0
 10
9.565394
 20
10.929984
 30
0.0
 10
9.994535
 20
11.046189
 30
0.0
 10
10.203417
 20
11.094423
 30
0.0
 10
10.391830
 20
11.131676
 30
0.0
 10
10.600553
 20
11.158135
 30
0.0
 10
10.865003
 20
11.165014
 30
0.0
 10
11.066665
 20
11.169247
 30
0.0
 10
11.150047
 20
11.175862
 30
0.0
 10
11.127283
 20
11.239547
 30
0.0
 10
11.106468
 20
11.307598
 30
0.0
 10
11.087907
 20
11.397265
 30
0.0
 10
11.080925
 20
11.485768
 30
0.0
 10
11.089230
 20
11.573319
 30
0.0
 10
11.112318
 20
11.659070
 30
0.0
 10
11.149697
 20
11.742229
 30
0.0
 10
11.200862
 20
11.821974
 30
0.0
 10
11.265320
 20
11.897513
 30
0.0
 10
11.342572
 20
11.967998
 30
0.0
 10
11.432123
 20
12.032609
 30
0.0
 10
11.530925
 20
12.091293
 30
0.0
 10
11.636833
 20
12.145877
 30
0.0
 10
11.750697
 20
12.196598
 30
0.0
 10
11.873376
 20
12.243773
 30
0.0
 10
12.148591
 20
12.328625
 30
0.0
 10
12.469303
 20
12.402629
 30
0.0
 10
12.633109
 20
12.439035
 30
0.0
 10
12.598256
 20
12.510314
 30
0.0
 10
12.567287
 20
12.589107
 30
0.0
 10
12.558635
 20
12.674462
 30
0.0
 10
12.572446
 20
12.764896
 30
0.0
 10
12.608860
 20
12.859061
 30
0.0
 10
12.653318
 20
12.931081
 30
0.0
 10
12.715739
 20
13.008207
 30
0.0
 10
12.793760
 20
13.088402
 30
0.0
 10
12.885022
 20
13.169709
 30
0.0
 10
12.987159
 20
13.250116
 30
0.0
 10
13.097806
 20
13.327533
 30
0.0
 10
13.214605
 20
13.400081
 30
0.0
 10
13.335190
 20
13.465619
 30
0.0
 10
13.455023
 20
13.524780
 30
0.0
 10
13.455023
 20
13.623337
 30
0.0
 10
13.451705
 20
13.701733
 30
0.0
 10
13.444876
 20
13.716020
 30
0.0
 10
13.432192
 20
13.720254
 30
0.0
  0
LWPOLYLINE
  5
101
100
AcDbEntity
  8
Layer_1
 62
7
100
AcDbPolyline
 90
43
 70
1
 10
0.050004
 20
13.567642
 30
0.0
 10
0.050004
 20
13.470593
 30
0.0
 10
0.221358
 20
13.367485
 30
0.0
 10
0.456021
 20
13.213762
 30
0.0
 10
0.645192
 20
13.064775
 30
0.0
 10
0.787735
 20
12.921159
 30
0.0
 10
0.882511
 20
12.783655
 30
0.0
 10
0.936722
 20
12.603209
 30
0.0
 10
0.930715
 20
12.518807
 30
0.0
 10
0.902238
 20
12.440940
 30
0.0
 10
0.870391
 20
12.377282
 30
0.0
 10
0.971989
 20
12.359025
 30
0.0
 10
1.436012
 20
12.248721
 30
0.0
 10
1.831792
 20
12.108809
 30
0.0
 10
2.057736
 20
11.977655
 30
0.0
 10
2.242739
 20
11.823747
 30
0.0
 10
2.360449
 20
11.645180
 30
0.0
 10
2.411058
 20
11.446160
 30
0.0
 10
2.410407
 20
11.331490
 30
0.0
 10
2.374583
 20
11.206580
 30
0.0
 10
2.330607
 20
11.077675
 30
0.0
 10
2.635404
 20
11.075029
 30
0.0
 10
2.965388
 20
11.062593
 30
0.0
 10
3.273621
 20
11.026372
 30
0.0
 10
3.574745
 20
10.964010
 30
0.0
 10
3.883404
 20
10.873231
 30
0.0
 10
4.098734
 20
10.808011
 30
0.0
 10
3.927380
 20
10.991500
 30
0.0
 10
3.724939
 20
11.215840
 30
0.0
 10
3.545245
 20
11.452113
 30
0.0
 10
3.381475
 20
11.710558
 30
0.0
 10
3.226802
 20
12.001441
 30
0.0
 10
3.028152
 20
12.460890
 30
0.0
 10
2.956882
 20
12.661074
 30
0.0
 10
2.811306
 20
12.661074
 30
0.0
 10
2.568304
 20
12.678007
 30
0.0
 10
2.282082
 20
12.727855
 30
0.0
 10
1.844479
 20
12.849695
 30
0.0
 10
1.342481
 20
13.034930
 30
0.0
 10
0.811762
 20
13.269060
 30
0.0
 10
0.288012
 20
13.537638
 30
0.0
 10
0.057516
 20
13.661966
 30
0.0
 10
0.049950
 20
13.566425
 30
0.0
  0
LWPOLYLINE
  5
102
100
AcDbEntity
  8
Layer_1
 62
7
100
AcDbPolyline
 90
246
 70
1
 10
9.933924
 20
10.537872
 30
0.0
 10
9.754800
 20
10.461487
 30
0.0
 10
9.519948
 20
10.304351
 30
0.0
 10
9.165106
 20
10.051091
 30
0.0
 10
8.977073
 20
9.922186
 30
0.0
 10
8.778425
 20
10.016246
 30
0.0
 10
8.193472
 20
10.251831
 30
0.0
 10
7.574400
 20
10.418068
 30
0.0
 10
6.862971
 20
10.516388
 30
0.0
 10
6.504926
 20
10.531733
 30
0.0
 10
6.144430
 20
10.524325
 30
0.0
 10
5.413384
 20
10.441643
 30
0.0
 10
4.664421
 20
10.267865
 30
0.0
 10
3.926692
 20
10.011219
 30
0.0
 10
3.590951
 20
9.866121
 30
0.0
 10
3.325438
 20
9.729543
 30
0.0
 10
3.231421
 20
9.673425
 30
0.0
 10
3.046419
 20
9.805346
 30
0.0
 10
2.515677
 20
10.204153
 30
0.0
 10
2.160648
 20
10.465376
 30
0.0
 10
2.027395
 20
10.524140
 30
0.0
 10
1.983420
 20
10.496491
 30
0.0
 10
1.990619
 20
10.412089
 30
0.0
 10
2.160834
 20
10.064665
 30
0.0
 10
2.358560
 20
9.703720
 30
0.0
 10
2.479090
 20
9.429082
 30
0.0
 10
2.523138
 20
9.238318
 30
0.0
 10
2.516698
 20
9.173654
 30
0.0
 10
2.491408
 20
9.129045
 30
0.0
 10
2.420895
 20
9.099994
 30
0.0
 10
2.307164
 20
9.134337
 30
0.0
 10
1.854517
 20
9.439904
 30
0.0
 10
0.782421
 20
10.216271
 30
0.0
 10
0.570882
 20
10.339117
 30
0.0
 10
0.502643
 20
10.355786
 30
0.0
 10
0.445778
 20
10.348113
 30
0.0
 10
0.412986
 20
10.323506
 30
0.0
 10
0.401798
 20
10.260192
 30
0.0
 10
0.442552
 20
10.091678
 30
0.0
 10
0.577704
 20
9.862920
 30
0.0
 10
1.442053
 20
8.796887
 30
0.0
 10
1.752726
 20
8.414564
 30
0.0
 10
1.777058
 20
8.353101
 30
0.0
 10
1.752916
 20
8.317700
 30
0.0
 10
1.682545
 20
8.297327
 30
0.0
 10
1.543652
 20
8.320875
 30
0.0
 10
1.002296
 20
8.514973
 30
0.0
 10
0.633550
 20
8.655097
 30
0.0
 10
0.379243
 20
8.729709
 30
0.0
 10
0.224168
 20
8.742145
 30
0.0
 10
0.179088
 20
8.726005
 30
0.0
 10
0.153111
 20
8.695499
 30
0.0
 10
0.153108
 20
8.638640
 30
0.0
 10
0.191755
 20
8.559080
 30
0.0
 10
0.371283
 20
8.345587
 30
0.0
 10
0.664258
 20
8.082644
 30
0.0
 10
1.043240
 20
7.797794
 30
0.0
 10
1.269184
 20
7.640076
 30
0.0
 10
1.289284
 20
7.606923
 30
0.0
 10
1.266157
 20
7.506646
 30
0.0
 10
1.141695
 20
6.994731
 30
0.0
 10
1.041541
 20
6.462601
 30
0.0
 10
0.969534
 20
5.935048
 30
0.0
 10
0.929515
 20
5.436758
 30
0.0
 10
0.924181
 20
5.026575
 30
0.0
 10
0.949248
 20
4.656184
 30
0.0
 10
1.005025
 20
4.322756
 30
0.0
 10
1.091792
 20
4.023460
 30
0.0
 10
1.120651
 20
3.951546
 30
0.0
 10
1.150931
 20
3.917679
 30
0.0
 10
1.273759
 20
3.936994
 30
0.0
 10
1.498685
 20
4.034810
 30
0.0
 10
1.722046
 20
4.174881
 30
0.0
 10
1.918397
 20
4.338526
 30
0.0
 10
2.062289
 20
4.507171
 30
0.0
 10
2.087049
 20
4.551515
 30
0.0
 10
2.087700
 20
4.591308
 30
0.0
 10
1.995768
 20
4.725532
 30
0.0
 10
1.919948
 20
4.816522
 30
0.0
 10
2.068557
 20
5.021203
 30
0.0
 10
2.218679
 20
5.231997
 30
0.0
 10
2.080688
 20
5.426095
 30
0.0
 10
1.971695
 20
5.585136
 30
0.0
 10
1.963911
 20
5.638397
 30
0.0
 10
2.206537
 20
5.924994
 30
0.0
 10
2.430962
 20
6.205531
 30
0.0
 10
2.317234
 20
6.457256
 30
0.0
 10
2.211086
 20
6.687735
 30
0.0
 10
2.919245
 20
6.281361
 30
0.0
 10
2.778221
 20
6.096364
 30
0.0
 10
2.628096
 20
5.906817
 30
0.0
 10
2.794900
 20
5.683905
 30
0.0
 10
2.961705
 20
5.464010
 30
0.0
 10
2.855557
 20
5.368469
 30
0.0
 10
2.752442
 20
5.275971
 30
0.0
 10
2.928345
 20
5.118253
 30
0.0
 10
3.099699
 20
4.972679
 30
0.0
 10
3.063305
 20
4.924154
 30
0.0
 10
2.766090
 20
4.513230
 30
0.0
 10
2.908631
 20
4.454096
 30
0.0
 10
3.339291
 20
4.313443
 30
0.0
 10
3.660766
 20
4.261505
 30
0.0
 10
3.735072
 20
4.267591
 30
0.0
 10
3.675931
 20
4.399486
 30
0.0
 10
3.594396
 20
4.600437
 30
0.0
 10
3.535167
 20
4.806521
 30
0.0
 10
3.498218
 20
5.018081
 30
0.0
 10
3.483539
 20
5.235410
 30
0.0
 10
3.520904
 20
5.688774
 30
0.0
 10
3.647124
 20
6.169151
 30
0.0
 10
3.750260
 20
6.429951
 30
0.0
 10
3.874012
 20
6.668023
 30
0.0
 10
4.019658
 20
6.885643
 30
0.0
 10
4.188477
 20
7.085059
 30
0.0
 10
4.514197
 20
7.376445
 30
0.0
 10
4.888109
 20
7.611236
 30
0.0
 10
5.316328
 20
7.792582
 30
0.0
 10
5.804965
 20
7.923603
 30
0.0
 10
6.184633
 20
7.989193
 30
0.0
 10
6.540420
 20
8.016102
 30
0.0
 10
6.917862
 20
8.011604
 30
0.0
 10
7.304689
 20
7.968582
 30
0.0
 10
7.677866
 20
7.890530
 30
0.0
 10
8.014365
 20
7.781099
 30
0.0
 10
8.345242
 20
7.630842
 30
0.0
 10
8.660872
 20
7.450872
 30
0.0
 10
8.957385
 20
7.244630
 30
0.0
 10
9.230900
 20
7.015686
 30
0.0
 10
9.477545
 20
6.767559
 30
0.0
 10
9.693452
 20
6.503770
 30
0.0
 10
9.874740
 20
6.227809
 30
0.0
 10
10.017533
 20
5.943223
 30
0.0
 10
10.141879
 20
5.521478
 30
0.0
 10
10.266226
 20
4.943892
 30
0.0
 10
10.312854
 20
4.428352
 30
0.0
 10
10.302620
 20
3.926384
 30
0.0
 10
10.205262
 20
3.421083
 30
0.0
 10
10.035541
 20
2.931815
 30
0.0
 10
9.799576
 20
2.473557
 30
0.0
 10
9.503473
 20
2.061204
 30
0.0
 10
9.303344
 20
1.847817
 30
0.0
 10
9.075563
 20
1.647634
 30
0.0
 10
8.822905
 20
1.462293
 30
0.0
 10
8.548139
 20
1.293357
 30
0.0
 10
8.254040
 20
1.142412
 30
0.0
 10
7.943379
 20
1.010993
 30
0.0
 10
7.618927
 20
0.900741
 30
0.0
 10
7.283460
 20
0.813217
 30
0.0
 10
6.936580
 20
0.754268
 30
0.0
 10
6.469150
 20
0.732837
 30
0.0
 10
5.981459
 20
0.739187
 30
0.0
 10
5.546227
 20
0.782182
 30
0.0
 10
5.149379
 20
0.863858
 30
0.0
 10
4.776841
 20
0.986122
 30
0.0
 10
4.468729
 20
1.132913
 30
0.0
 10
4.179379
 20
1.332277
 30
0.0
 10
3.878658
 20
1.608396
 30
0.0
 10
3.536424
 20
1.985454
 30
0.0
 10
3.291335
 20
2.291868
 30
0.0
 10
3.106523
 20
2.577221
 30
0.0
 10
2.958106
 20
2.883635
 30
0.0
 10
2.822199
 20
3.253178
 30
0.0
 10
2.558155
 20
4.163768
 30
0.0
 10
2.473971
 20
4.573555
 30
0.0
 10
2.411252
 20
4.997021
 30
0.0
 10
2.406960
 20
5.013160
 30
0.0
 10
2.404271
 20
4.989612
 30
0.0
 10
2.403186
 20
4.857797
 30
0.0
 10
2.415697
 20
4.488941
 30
0.0
 10
2.467208
 20
3.931358
 30
0.0
 10
2.541179
 20
3.415130
 30
0.0
 10
2.636191
 20
2.948669
 30
0.0
 10
2.750822
 20
2.540364
 30
0.0
 10
2.944662
 20
2.089779
 30
0.0
 10
3.223372
 20
1.628822
 30
0.0
 10
3.559231
 20
1.197128
 30
0.0
 10
3.924518
 20
0.834384
 30
0.0
 10
4.195199
 20
0.631766
 30
0.0
 10
4.465875
 20
0.468941
 30
0.0
 10
4.711699
 20
0.368902
 30
0.0
 10
5.055186
 20
0.257592
 30
0.0
 10
5.759367
 20
0.083761
 30
0.0
 10
6.363085
 20
0.050027
 30
0.0
 10
7.072574
 20
0.059552
 30
0.0
 10
7.452622
 20
0.105801
 30
0.0
 10
7.906597
 20
0.224837
 30
0.0
 10
8.575899
 20
0.449071
 30
0.0
 10
9.066645
 20
0.676745
 30
0.0
 10
9.318653
 20
0.841977
 30
0.0
 10
9.612171
 20
1.069466
 30
0.0
 10
10.210014
 20
1.616916
 30
0.0
 10
10.492017
 20
1.926743
 30
0.0
 10
10.718010
 20
2.221383
 30
0.0
 10
10.892822
 20
2.507212
 30
0.0
 10
11.021290
 20
2.790607
 30
0.0
 10
11.191128
 20
3.219761
 30
0.0
 10
11.355656
 20
3.667278
 30
0.0
 10
11.451950
 20
4.029492
 30
0.0
 10
11.513623
 20
4.449148
 30
0.0
 10
11.539330
 20
4.931192
 30
0.0
 10
11.528921
 20
5.477213
 30
0.0
 10
11.482269
 20
6.088797
 30
0.0
 10
11.424266
 20
6.577245
 30
0.0
 10
11.354892
 20
6.884902
 30
0.0
 10
11.060710
 20
7.778056
 30
0.0
 10
11.016734
 20
7.884207
 30
0.0
 10
11.182023
 20
8.029781
 30
0.0
 10
11.701768
 20
8.528864
 30
0.0
 10
11.892127
 20
8.741801
 30
0.0
 10
12.000881
 20
8.892613
 30
0.0
 10
12.024191
 20
8.987757
 30
0.0
 10
11.932640
 20
9.003368
 30
0.0
 10
11.720722
 20
8.941217
 30
0.0
 10
11.260872
 20
8.728916
 30
0.0
 10
10.825854
 20
8.533680
 30
0.0
 10
10.605785
 20
8.477191
 30
0.0
 10
10.524374
 20
8.488303
 30
0.0
 10
10.469689
 20
8.522832
 30
0.0
 10
10.439455
 20
8.583553
 30
0.0
 10
10.431391
 20
8.672956
 30
0.0
 10
10.447673
 20
8.813238
 30
0.0
 10
10.509303
 20
8.959368
 30
0.0
 10
10.886316
 20
9.476655
 30
0.0
 10
11.114727
 20
9.791112
 30
0.0
 10
11.165028
 20
9.888426
 30
0.0
 10
11.180509
 20
9.958884
 30
0.0
 10
11.171751
 20
9.999339
 30
0.0
 10
11.144239
 20
10.018918
 30
0.0
 10
11.025653
 20
9.992380
 30
0.0
 10
10.810110
 20
9.872895
 30
0.0
 10
10.482971
 20
9.654031
 30
0.0
 10
10.124601
 20
9.416779
 30
0.0
 10
9.864467
 20
9.274381
 30
0.0
 10
9.689915
 20
9.220961
 30
0.0
 10
9.630776
 20
9.225724
 30
0.0
 10
9.588292
 20
9.250595
 30
0.0
 10
9.559480
 20
9.310867
 30
0.0
 10
9.557972
 20
9.446201
 30
0.0
 10
9.579480
 20
9.584472
 30
0.0
 10
9.635682
 20
9.734676
 30
0.0
 10
9.870347
 20
10.107342
 30
0.0
 10
10.032981
 20
10.346366
 30
0.0
 10
10.088710
 20
10.481912
 30
0.0
 10
10.057812
 20
10.528347
 30
0.0
 10
10.005306
 20
10.553218
 30
0.0
 10
9.934034
 20
10.538136
 30
0.0
  0
LWPOLYLINE
  5
103
100
AcDbEntity
  8
Layer_1
 62
7
100
AcDbPolyline
 90
17
 70
1
 10
1.775653
 20
6.495091
 30
0.0
 10
1.842256
 20
6.420029
 30
0.0
 10
1.875167
 20
6.333775
 30
0.0
 10
1.872997
 20
6.243235
 30
0.0
 10
1.834683
 20
6.155419
 30
0.0
 10
1.739434
 20
6.073372
 30
0.0
 10
1.620871
 20
6.049560
 30
0.0
 10
1.504582
 20
6.082818
 30
0.0
 10
1.416155
 20
6.172220
 30
0.0
 10
1.385261
 20
6.260406
 30
0.0
 10
1.387648
 20
6.345284
 30
0.0
 10
1.417509
 20
6.421670
 30
0.0
 10
1.469035
 20
6.484402
 30
0.0
 10
1.536410
 20
6.528270
 30
0.0
 10
1.613827
 20
6.548114
 30
0.0
 10
1.695474
 20
6.538853
 30
0.0
 10
1.775537
 20
6.495197
 30
0.0
  0
LWPOLYLINE
  5
104
100
AcDbEntity
  8
Layer_1
 62
7
100
AcDbPolyline
 90
11
 70
1
 10
6.293954
 20
7.223066
 30
0.0
 10
7.182543
 20
7.189332
 30
0.0
 10
6.200419
 20
4.676637
 30
0.0
 10
7.759348
 20
5.553572
 30
0.0
 10
7.042239
 20
2.518113
 30
0.0
 10
7.447563
 20
2.602436
 30
0.0
 10
6.699275
 20
1.489439
 30
0.0
 10
6.231593
 20
2.771081
 30
0.0
 10
6.730453
 20
2.484378
 30
0.0
 10
6.839578
 20
4.508018
 30
0.0
 10
5.233880
 20
3.445610
 30
0.0
  0
ENDSEC
  0
SECTION
  2
OBJECTS
  0
DICTIONARY
  5
C
330
0
100
AcDbDictionary
  3
ACAD_GROUP
350
D
  3
ACAD_MLINESTYLE
350
17
  0
DICTIONARY
  5
D
330
C
100
AcDbDictionary
  0
DICTIONARY
  5
1A
330
C
100
AcDbDictionary
  0
DICTIONARY
  5
17
330
C
100
AcDbDictionary
  3
STANDARD
350
18
  0
DICTIONARY
  5
19
330
C
100
AcDbDictionary
  0
ENDSEC
  0
EOF
