<?xml version="1.0" encoding="UTF-8" standalone="no"?>
<svg
   xmlns:osb="http://www.openswatchbook.org/uri/2009/osb"
   xmlns:dc="http://purl.org/dc/elements/1.1/"
   xmlns:cc="http://creativecommons.org/ns#"
   xmlns:rdf="http://www.w3.org/1999/02/22-rdf-syntax-ns#"
   xmlns:svg="http://www.w3.org/2000/svg"
   xmlns="http://www.w3.org/2000/svg"
   xmlns:sodipodi="http://sodipodi.sourceforge.net/DTD/sodipodi-0.dtd"
   xmlns:inkscape="http://www.inkscape.org/namespaces/inkscape"
   width="16.510672mm"
   height="16.837584mm"
   version="1.1"
   id="svg845"
   sodipodi:docname="uroboros.svg"
   inkscape:version="0.92.4 (5da689c313, 2019-01-14)">
  <metadata
     id="metadata849">
    <rdf:RDF>
      <cc:Work
         rdf:about="">
        <dc:format>image/svg+xml</dc:format>
        <dc:type
           rdf:resource="http://purl.org/dc/dcmitype/StillImage" />
        <dc:title></dc:title>
      </cc:Work>
    </rdf:RDF>
  </metadata>
  <sodipodi:namedview
     pagecolor="#ffffff"
     bordercolor="#666666"
     borderopacity="1"
     objecttolerance="10"
     gridtolerance="10"
     guidetolerance="10"
     inkscape:pageopacity="0"
     inkscape:pageshadow="2"
     inkscape:window-width="2560"
     inkscape:window-height="1377"
     id="namedview847"
     showgrid="false"
     fit-margin-top="0"
     fit-margin-left="0"
     fit-margin-right="0"
     fit-margin-bottom="0"
     units="mm"
     inkscape:zoom="8.6092034"
     inkscape:cx="16.283438"
     inkscape:cy="53.242873"
     inkscape:window-x="-8"
     inkscape:window-y="-8"
     inkscape:window-maximized="1"
     inkscape:current-layer="g843" />
  <desc
     id="desc815">C:\Users\kasedy\Desktop\uroboros.dxf - scale = 1.000000, origin = (0.000000, 0.000000), method = manual</desc>
  <defs
     id="defs829">
    <linearGradient
       id="linearGradient4556"
       osb:paint="solid">
      <stop
         style="stop-color:#000000;stop-opacity:1;"
         offset="0"
         id="stop4554" />
    </linearGradient>
    <marker
       id="DistanceX"
       orient="auto"
       refX="0"
       refY="0"
       style="overflow:visible">
      <path
         d="M 3,-3 -3,3 M 0,-5 V 5"
         style="stroke:#000000;stroke-width:0.5"
         id="path817"
         inkscape:connector-curvature="0" />
    </marker>
    <pattern
       height="8"
       id="Hatch"
       patternUnits="userSpaceOnUse"
       width="8"
       x="0"
       y="0">
      <path
         d="M8 4 l-4,4"
         linecap="square"
         stroke="#000000"
         stroke-width="0.25"
         id="path820" />
      <path
         d="M6 2 l-4,4"
         linecap="square"
         stroke="#000000"
         stroke-width="0.25"
         id="path822" />
      <path
         d="M4 0 l-4,4"
         linecap="square"
         stroke="#000000"
         stroke-width="0.25"
         id="path824" />
    </pattern>
    <symbol
       id="*MODEL_SPACE" />
    <symbol
       id="*PAPER_SPACE" />
  </defs>
  <g
     inkscape:groupmode="layer"
     inkscape:label="0"
     id="g831"
     transform="translate(-177.83452,-223.95141)" />
  <g
     inkscape:groupmode="layer"
     inkscape:label="Layer_1"
     id="g843"
     transform="translate(-177.83452,-223.95141)">
    <path
       d="m 239.84278,224.24269 -0.0486,3.6e-4 -0.64863,0.26928 -1.33051,0.64693 -2.36552,1.14316 -2.11312,0.92615 -0.9666,0.38354 -0.90915,0.33148 -0.85359,0.28019 -0.79989,0.22961 -0.6266,0.15689 -0.45218,0.086 -0.44956,0.0362 -0.61872,0.008 -1.06328,0.007 -0.32866,0.87415 -0.44447,1.09367 -0.50828,1.07293 -0.56189,1.0367 -0.60522,0.98499 -0.63834,0.91778 -0.66121,0.83507 -0.67385,0.73692 -0.67623,0.62324 -0.34722,0.30514 -0.12168,0.14254 0.29812,-0.0636 0.68102,-0.19483 1.97922,-0.53595 0.96337,-0.2224 0.86897,-0.1719 0.96264,-0.12157 1.21966,-0.0324 0.93007,-0.0192 0.38456,-0.0297 -0.10499,-0.29377 -0.096,-0.31389 -0.0856,-0.41354 -0.0322,-0.40818 0.0383,-0.40373 0.10648,-0.39554 0.17239,-0.38356 0.23598,-0.36783 0.29728,-0.34832 0.35629,-0.32505 0.41301,-0.29803 0.45568,-0.27068 0.48845,-0.25168 0.52515,-0.23397 0.5658,-0.21759 1.2693,-0.39125 1.47914,-0.34141 0.75548,-0.16791 -0.16074,-0.32867 -0.14283,-0.36341 -0.0399,-0.39358 0.0637,-0.41717 0.16794,-0.43424 0.20504,-0.33218 0.28789,-0.35573 0.35984,-0.36996 0.4209,-0.37499 0.47106,-0.37072 0.51031,-0.35719 0.53868,-0.33441 0.55614,-0.30236 0.55268,-0.27292 v -0.4545 l -0.0153,-0.36158 -0.0315,-0.0662 -0.0585,-0.0203 z"
       style="fill:#000000;stroke:#000000;stroke-width:0.18897638;fill-opacity:1;stroke-miterlimit:4;stroke-dasharray:none"
       id="path833"
       inkscape:connector-curvature="0" />
    <path
       d="m 178.12352,224.95649 v 0.44759 l 0.79029,0.47557 1.08228,0.70888 0.87246,0.68724 0.65742,0.66232 0.43711,0.63415 0.25002,0.83224 -0.0277,0.38924 -0.13134,0.35909 -0.14688,0.29374 0.46858,0.0839 2.14009,0.50879 1.82535,0.64517 1.04207,0.60495 0.85324,0.70987 0.54288,0.82351 0.23341,0.91793 -0.003,0.52889 -0.16522,0.57612 -0.20282,0.59446 1.40574,0.007 1.5219,0.0569 1.42158,0.16697 1.3888,0.28761 1.42355,0.41874 0.99311,0.30074 -0.79029,-0.84626 -0.93367,-1.03462 -0.82875,-1.0897 -0.75532,-1.19201 -0.71336,-1.34147 -0.91618,-2.1191 -0.3287,-0.9232 h -0.6714 l -1.12074,-0.0778 -1.32007,-0.2299 -2.01824,-0.56191 -2.31524,-0.85433 -2.4477,-1.07987 -2.41556,-1.23855 -1.06305,-0.57348 -0.0349,0.44061 v 0"
       style="fill:#000000;stroke:#000000;stroke-width:0.18897638;fill-opacity:1;stroke-miterlimit:4;stroke-dasharray:none"
       id="path835"
       inkscape:connector-curvature="0" />
    <path
       d="m 223.70859,238.92994 -0.82613,0.3523 -1.08315,0.72474 -1.63654,1.16793 -0.86722,0.59448 -0.91617,-0.43361 -2.69783,-1.08665 -2.85519,-0.76669 -3.28114,-0.4534 -1.65132,-0.0707 -1.66262,0.0336 -3.37162,0.38127 -3.45425,0.80156 -3.40244,1.18368 -1.54845,0.66922 -1.22456,0.62987 -0.43361,0.25876 -0.85323,-0.60846 -2.44781,-1.83934 -1.63741,-1.20467 -0.61457,-0.27101 -0.20281,0.12756 0.0332,0.38914 0.78504,1.60244 0.91192,1.66461 0.55589,1.26664 0.20315,0.87978 -0.0297,0.29833 -0.11664,0.20575 -0.32521,0.13399 -0.52453,-0.15844 -2.08763,-1.40925 -4.94455,-3.58078 -0.97563,-0.56649 -0.31472,-0.0767 -0.26226,0.0347 -0.15124,0.11371 -0.0516,0.29198 0.18796,0.77721 0.62332,1.05516 3.98642,4.91659 1.43284,1.76329 0.11222,0.28336 -0.11135,0.16337 -0.32455,0.094 -0.64058,-0.10799 -2.49676,-0.8952 -1.70067,-0.64637 -1.17288,-0.34411 -0.71521,-0.057 -0.20791,0.0746 -0.11981,0.14065 -1e-5,0.26224 0.17824,0.36698 0.82799,0.98458 1.35121,1.21276 1.74789,1.31374 1.04206,0.72734 0.0927,0.15298 -0.10666,0.46247 -0.57402,2.36103 -0.46192,2.45414 -0.3321,2.43316 -0.18457,2.2981 -0.0246,1.8918 0.11561,1.70821 0.25725,1.53774 0.40017,1.38039 0.1331,0.33176 0.13965,0.15605 0.56649,-0.0892 1.03737,-0.45122 1.03015,-0.64593 0.90558,-0.75478 0.66364,-0.77773 0.11419,-0.20455 0.003,-0.18359 -0.424,-0.61895 -0.34968,-0.41961 0.68539,-0.94416 0.69237,-0.97212 -0.63642,-0.89519 -0.50268,-0.73348 -0.0359,-0.24565 1.119,-1.32182 1.03506,-1.29384 -0.52452,-1.16095 -0.48956,-1.06305 3.26606,1.87432 -0.65041,0.85322 -0.69238,0.87423 0.76931,1.02807 0.76931,1.0141 -0.48956,0.4406 -0.47557,0.42662 0.81127,0.72733 0.79029,0.6714 -0.16785,0.22381 -1.37077,1.8953 0.65741,0.27276 1.98622,0.64866 1.48266,0.23954 0.3427,-0.028 -0.27276,-0.60845 -0.37604,-0.9267 -0.27317,-0.95047 -0.17041,-0.9757 -0.0677,-1.00244 0.17233,-2.0909 0.58213,-2.21548 0.47567,-1.20291 0.57075,-1.09802 0.67173,-1.00358 0.7786,-0.91968 1.50223,-1.34389 1.7245,-1.08294 1.97496,-0.83641 2.25362,-0.6043 1.75105,-0.30247 1.6409,-0.12411 1.74078,0.0209 1.78406,0.19855 1.72111,0.35986 1.55195,0.50475 1.52602,0.69295 1.4557,0.83015 1.36753,0.95112 1.26146,1.05585 1.13754,1.14439 0.99577,1.21664 0.83611,1.27274 0.65857,1.31254 0.57349,1.94513 0.57349,2.66374 0.21505,2.37786 -0.0472,2.31492 -0.44902,2.33054 -0.78276,2.25648 -1.08828,2.11351 -1.36564,1.90176 -0.923,0.98423 -1.05054,0.92319 -1.16527,0.85484 -1.26723,0.77918 -1.3564,0.69624 -1.43278,0.60601 -1.49639,0.50848 -1.54719,0.40365 -1.59982,0.27188 -2.15581,0.0988 -2.24925,-0.029 -2.00731,-0.19824 -1.83028,-0.37657 -1.71816,-0.56409 -1.42103,-0.67686 -1.33449,-0.91946 -1.38694,-1.27351 -1.5784,-1.73902 -1.13036,-1.41317 -0.85236,-1.31613 -0.68451,-1.41318 -0.62681,-1.70428 -1.21778,-4.19972 -0.38826,-1.89006 -0.28926,-1.953 -0.0198,-0.0743 -0.0124,0.108 -0.005,0.60801 0.0577,1.70124 0.23757,2.5716 0.34116,2.38083 0.4382,2.15132 0.52868,1.88316 0.894,2.07812 1.28542,2.12599 1.549,1.99092 1.68472,1.67292 1.24839,0.93454 1.24837,0.75095 1.13375,0.46146 1.58418,0.51328 3.24771,0.80166 2.78438,0.15561 3.27219,-0.0437 1.7528,-0.21332 2.09375,-0.549 3.08685,-1.0342 2.26334,-1.04994 1.16227,-0.76209 1.35372,-1.04927 2.75728,-2.52474 1.30061,-1.42902 1.04229,-1.35885 0.80624,-1.31822 0.5925,-1.30705 0.7833,-1.97924 0.75881,-2.06401 0.44411,-1.67062 0.28444,-1.93541 0.11856,-2.22323 -0.048,-2.51829 -0.21516,-2.82055 -0.26751,-2.25285 -0.31996,-1.41885 -1.35678,-4.1193 -0.20282,-0.48956 0.76232,-0.6714 2.39709,-2.30181 0.87794,-0.98207 0.50158,-0.69555 0.10751,-0.43885 -0.42224,-0.0716 -0.97737,0.28673 -2.12085,0.97913 -2.00632,0.90045 -1.01497,0.26051 -0.37547,-0.0505 -0.25221,-0.15933 -0.13944,-0.27997 -0.0372,-0.4124 0.0751,-0.64703 0.28424,-0.67391 1.7388,-2.38574 1.05344,-1.45032 0.23199,-0.44881 0.0714,-0.32487 -0.0404,-0.18658 -0.12688,-0.0904 -0.54693,0.12224 -0.99409,0.5511 -1.50878,1.00938 -1.65282,1.0942 -1.19975,0.65686 -0.80504,0.24641 -0.27275,-0.0223 -0.19594,-0.11492 -0.13288,-0.27799 -0.007,-0.6242 0.0992,-0.63773 0.25921,-0.69282 1.08228,-1.71871 0.75008,-1.10238 0.25702,-0.62506 -0.1425,-0.21418 -0.24216,-0.11451 -0.32871,0.0699 z"
       style="fill:#000000;stroke:#000000;stroke-width:0.18897638;stroke-miterlimit:4;stroke-dasharray:none;fill-opacity:1"
       id="path837"
       inkscape:connector-curvature="0" />
    <path
       d="m 186.08229,257.5754 0.30717,0.34609 0.15179,0.39787 -0.01,0.41755 -0.17671,0.40509 -0.43929,0.37841 -0.54682,0.11026 -0.53633,-0.15331 -0.40783,-0.4123 -0.14248,-0.40681 0.011,-0.39146 0.13772,-0.3523 0.23764,-0.28927 0.31074,-0.20239 0.35705,-0.0916 0.37656,0.0429 0.36925,0.20132 z"
       style="fill:#ffffff;stroke:#000000;stroke-width:0.18897638;fill-opacity:1;stroke-miterlimit:4;stroke-dasharray:none"
       id="path839"
       inkscape:connector-curvature="0" />
    <path
       d="m 206.92089,254.21795 4.09821,0.15556 -4.5296,11.5886 7.18985,-4.04435 -3.30734,13.99964 1.86937,-0.38888 -3.45113,5.1332 -2.15697,-5.91095 2.30076,1.32218 0.50329,-9.33309 -7.40555,4.89987 z"
       style="fill:#000000;stroke:#000000;stroke-width:0.18897638;fill-opacity:1;stroke-miterlimit:4;stroke-dasharray:none"
       id="path841"
       inkscape:connector-curvature="0" />
  </g>
</svg>
