0
SECTION
2
HEADER
9
$INSUNITS
70
4
9
$ACADVER
1
AC1014
9
$HANDSEED
5
FFFF
0
ENDSEC
0
SECTION
2
TABLES
0
TABLE
2
VPORT
5
8
100
AcDbSymbolTable
0
ENDTAB
0
TABLE
2
LTYPE
5
5
100
AcDbSymbolTable
0
LTYPE
5
14
100
AcDbSymbolTableRecord
100
AcDbLinetypeTableRecord
2
BYBLOCK
70
0
0
LTYPE
5
15
100
AcDbSymbolTableRecord
100
AcDbLinetypeTableRecord
2
BYLAYER
70
0
0
ENDTAB
0
TABLE
2
LAYER
5
2
100
AcDbSymbolTable
70
2
0
LAYER
5
50
100
AcDbSymbolTableRecord
100
AcDbLayerTableRecord
2
0
70
0
6
CONTINUOUS
0
ENDTAB
0
TABLE
2
STYLE
5
3
100
AcDbSymbolTable
70
1
0
STYLE
5
11
100
AcDbSymbolTableRecord
100
AcDbTextStyleTableRecord
2
STANDARD
70
0
0
ENDTAB
0
TABLE
2
VIEW
5
6
100
AcDbSymbolTable
70
0
0
ENDTAB
0
TABLE
2
UCS
5
7
100
AcDbSymbolTable
70
0
0
ENDTAB
0
TABLE
2
APPID
5
9
100
AcDbSymbolTable
70
2
0
APPID
5
12
100
AcDbSymbolTableRecord
100
AcDbRegAppTableRecord
2
ACAD
70
0
0
ENDTAB
0
TABLE
2
DIMSTYLE
5
A
100
AcDbSymbolTable
70
1
0
ENDTAB
0
TABLE
2
BLOCK_RECORD
5
1
100
AcDbSymbolTable
70
1
0
BLOCK_RECORD
5
1F
100
AcDbSymbolTableRecord
100
AcDbBlockTableRecord
2
*MODEL_SPACE
0
BLOCK_RECORD
5
1B
100
AcDbSymbolTableRecord
100
AcDbBlockTableRecord
2
*PAPER_SPACE
0
ENDTAB
0
ENDSEC
0
SECTION
2
BLOCKS
0
BLOCK
5
20
100
AcDbEntity
100
AcDbBlockBegin
2
*MODEL_SPACE
0
ENDBLK
5
21
100
AcDbEntity
100
AcDbBlockEnd
0
BLOCK
5
1C
100
AcDbEntity
100
AcDbBlockBegin
2
*PAPER_SPACE
0
ENDBLK
5
1D
100
AcDbEntity
100
AcDbBlockEnd
0
ENDSEC
0
SECTION
2
ENTITIES
0
LWPOLYLINE
5
100
100
AcDbEntity
8
0
100
AcDbPolyline
90
71
70
1
43
0.0
10
13.585309000000001
20
15.604925000000001
10
13.751097000000001
20
15.646435
10
13.962735000000002
20
15.707186
10
14.18858
20
15.781320000000001
10
14.429126
20
15.869024
10
14.684872000000002
20
15.970502
10
15.243969000000002
20
16.215546
10
15.869846000000001
20
16.518007000000001
10
16.221876999999999
20
16.689173999999998
10
16.393492999999999
20
16.760421000000001
10
16.406351999999998
20
16.760516000000003
10
16.406347
20
16.760429000000002
10
16.421824999999998
20
16.755057999999998
10
16.430159
20
16.737542000000005
10
16.434207000000001
20
16.641873999999998
10
16.434207000000001
20
16.521621
10
16.287978000000003
20
16.449410999999998
10
16.140832
20
16.369412000000001
10
15.998305999999999
20
16.280932
10
15.863287000000001
20
16.186426000000004
10
15.738652
20
16.088339999999999
10
15.627289000000001
20
15.989123000000003
10
15.532081
20
15.891238000000003
10
15.455911
20
15.797118000000001
10
15.401660000000001
20
15.709229000000002
10
15.357226000000001
20
15.594336
10
15.340372000000002
20
15.483960000000002
10
15.350929000000002
20
15.379825
10
15.388720000000003
20
15.283673000000002
10
15.431249000000001
20
15.196712000000002
10
15.231361
20
15.152286
10
14.840005999999999
20
15.061955000000001
10
14.504170000000002
20
14.958435999999999
10
14.354469000000002
20
14.900866000000001
10
14.215523000000001
20
14.838960999999999
10
14.086286999999999
20
14.772371
10
13.965722
20
14.700753000000002
10
13.856446
20
14.6219
10
13.762178
20
14.535897000000002
10
13.683522000000002
20
14.443736999999999
10
13.621086
20
14.346416
10
13.575474
20
14.244932000000002
10
13.547301999999998
20
14.140279000000003
10
13.537167999999999
20
14.033458000000001
10
13.545688
20
13.925460999999999
10
13.568335999999999
20
13.816045000000001
10
13.593735999999998
20
13.732995000000001
10
13.621514999999999
20
13.655268
10
13.519766000000002
20
13.647410000000002
10
13.273685000000002
20
13.642330000000001
10
12.950984000000002
20
13.633758
10
12.696285000000003
20
13.601592000000002
10
12.46637
20
13.55611
10
12.211479000000001
20
13.497267000000001
10
11.687810000000001
20
13.355464000000001
10
11.507623000000001
20
13.303915000000002
10
11.428746
20
13.287087
10
11.460939999999999
20
13.324801000000001
10
11.552809
20
13.405535999999998
10
11.731728
20
13.570435
10
11.910018000000001
20
13.765412000000001
10
12.084963000000002
20
13.986357
10
12.253857000000002
20
14.229187000000001
10
12.413988
20
14.489799000000001
10
12.562654999999999
20
14.764092000000002
10
12.697137000000001
20
15.047971
10
12.814737000000001
20
15.337338000000003
10
12.901695000000002
20
15.568624
10
13.183021
20
15.570476000000003
10
13.346723999999998
20
15.572593000000001
10
13.465670000000003
20
15.582170000000001
0
LWPOLYLINE
5
101
100
AcDbEntity
8
0
100
AcDbPolyline
90
43
70
1
43
0.0
10
5.0170080000000006
20
13.205731
10
4.7542480000000005
20
13.285301
10
4.3776000000000002
20
13.396093
10
4.0101469999999999
20
13.472189999999999
10
3.63402
20
13.516367000000002
10
3.2313510000000001
20
13.531422000000003
10
2.8594160000000004
20
13.533273999999999
10
2.9130780000000001
20
13.690557999999999
10
2.9567930000000002
20
13.84299
10
2.9575869999999997
20
13.982926000000003
10
2.8958300000000001
20
14.225795000000003
10
2.7521930000000001
20
14.443682000000003
10
2.5264400000000005
20
14.631501
10
2.2507259999999998
20
14.791561
10
1.7677690000000001
20
14.962261999999999
10
1.2015360000000004
20
15.096879999999999
10
1.0775580000000002
20
15.119078000000002
10
1.11642
20
15.196797000000002
10
1.15117
20
15.291806000000001
10
1.1584989999999999
20
15.394793
10
1.0923479999999999
20
15.614989000000001
10
0.97669600000000001
20
15.782775000000003
10
0.80275399999999997
20
15.958014000000002
10
0.57191499999999995
20
16.139845999999999
10
0.28556199999999998
20
16.327404000000001
10
0.076464999999999991
20
16.453232
10
0.076464999999999991
20
16.571657000000002
10
0.076398000000000008
20
16.571650999999999
10
0.085632
20
16.688229
10
0.36689800000000006
20
16.536496
10
1.0060149999999999
20
16.208796
10
1.653635
20
15.923081000000002
10
2.2662089999999999
20
15.697039000000004
10
2.8002020000000001
20
15.548367000000001
10
3.1494700000000004
20
15.487539999999999
10
3.4459989999999996
20
15.466955
10
3.623641000000001
20
15.466955
10
3.7106090000000003
20
15.222692000000002
10
3.9530150000000002
20
14.662013
10
4.1417580000000003
20
14.307083
10
4.341603000000001
20
13.991697
10
4.5608769999999996
20
13.703380000000001
10
4.8079099999999997
20
13.429637000000001
0
LWPOLYLINE
5
102
100
AcDbEntity
8
0
100
AcDbPolyline
90
246
70
1
43
0.0
10
3.0943549999999997
20
11.288853000000001
10
3.0406050000000002
20
11.521629000000001
10
2.893526
20
11.856760000000001
10
2.6522470000000005
20
12.297188000000002
10
2.4445380000000001
20
12.721166999999999
10
2.4357540000000002
20
12.824127000000001
10
2.489414
20
12.857877999999999
10
2.6520190000000001
20
12.786173000000002
10
3.085251
20
12.467437
10
3.7328999999999999
20
11.980779000000002
10
3.9586510000000001
20
11.819789999999999
10
4.0733770000000007
20
11.888254
10
4.3973750000000003
20
12.054907000000002
10
4.8070690000000003
20
12.231971000000001
10
5.7072980000000006
20
12.545152999999999
10
6.6212350000000004
20
12.757233000000001
10
7.5133090000000005
20
12.85811
10
7.9532110000000014
20
12.867000000000001
10
8.3901229999999991
20
12.848294000000003
10
9.2582579999999997
20
12.728332
10
10.013693000000002
20
12.525478999999999
10
10.727494
20
12.237969
10
10.969898000000001
20
12.123242999999999
10
11.199349000000002
20
12.280533
10
11.632351
20
12.589547999999999
10
11.918934
20
12.781302
10
12.137513999999999
20
12.874514999999999
10
12.137639
20
12.874480000000002
10
12.22461
20
12.892975
10
12.288681
20
12.862677
10
12.326385000000002
20
12.806009
10
12.258381
20
12.640628
10
12.059923000000001
20
12.348957
10
11.773569000000002
20
11.894214999999999
10
11.704986999999999
20
11.710906000000001
10
11.678740000000001
20
11.542173
10
11.680591999999999
20
11.377021000000001
10
11.71575
20
11.303469
10
11.767592
20
11.273063
10
11.839758
20
11.267163
10
12.052758000000001
20
11.332359
10
12.370191999999999
20
11.506152999999999
10
12.807500000000001
20
11.795660000000002
10
13.206698000000001
20
12.062725
10
13.469718
20
12.208537000000002
10
13.614426000000002
20
12.240880000000001
10
13.647997
20
12.216962000000001
10
13.658685999999999
20
12.167596000000003
10
13.639795000000001
20
12.08164
10
13.578414000000002
20
11.962892999999999
10
13.299691000000003
20
11.579162
10
12.839634000000002
20
10.947935000000001
10
12.764429000000002
20
10.769630000000001
10
12.744558000000001
20
10.598436
10
12.754401
20
10.489322000000001
10
12.791294000000002
20
10.415247000000001
10
12.858025
20
10.373091000000001
10
12.957368000000001
20
10.359729
10
13.225911999999999
20
10.428656
10
13.756751000000003
20
10.666900000000002
10
14.317893000000002
20
10.925962
10
14.576489000000004
20
11.001825999999999
10
14.688205999999999
20
10.982880999999999
10
14.659760999999998
20
10.866769000000001
10
14.527051000000002
20
10.682738000000001
10
14.294763000000001
20
10.422899000000001
10
13.660532999999999
20
9.8138780000000008
10
13.458835999999998
20
9.6362369999999995
10
13.512498000000001
20
9.5067070000000005
10
13.871479999999998
20
8.4168089999999989
10
13.956135999999999
20
8.041405000000001
10
14.026914999999999
20
7.4453389999999997
10
14.083842000000002
20
6.6990680000000005
10
14.096542000000003
20
6.0327710000000012
10
14.065173000000001
20
5.444541000000001
10
13.989915000000002
20
4.9324639999999995
10
13.872410999999998
20
4.4904459999999995
10
13.671643
20
3.9443429999999999
10
13.464394000000002
20
3.4206690000000006
10
13.307629
20
3.0748450000000007
10
13.094311000000001
20
2.7260659999999999
10
12.818538999999999
20
2.3665370000000001
10
12.474419000000001
20
1.988442
10
11.744889000000001
20
1.3204380000000002
10
11.386716999999999
20
1.0428189999999999
10
11.0792
20
0.84118300000000001
10
10.480358000000001
20
0.56338599999999994
10
9.6636279999999992
20
0.28975400000000001
10
9.1096570000000003
20
0.14449800000000002
10
8.6458949999999994
20
0.08805700000000001
10
7.7801279999999995
20
0.076494000000000006
10
7.0434280000000005
20
0.11766600000000002
10
6.1841379999999999
20
0.32977199999999995
10
5.7649900000000001
20
0.46557700000000007
10
5.4650189999999998
20
0.58767199999999997
10
5.1347209999999999
20
0.78636099999999998
10
4.8044180000000001
20
1.033625
10
4.3586689999999999
20
1.476251
10
3.948830000000001
20
2.0030160000000001
10
3.6087290000000003
20
2.5655169999999998
10
3.3721910000000004
20
3.1153530000000003
10
3.2323110000000006
20
3.6136060000000003
10
3.116371
20
4.1828089999999998
10
3.026106
20
4.8127370000000003
10
2.9632490000000007
20
5.4931400000000004
10
2.9479820000000001
20
5.9432589999999994
10
2.9493049999999998
20
6.1041290000000004
10
2.9525860000000002
20
6.1327040000000013
10
2.9578250000000001
20
6.1130450000000005
10
3.0343580000000001
20
5.5963139999999996
10
3.1370849999999999
20
5.0962360000000011
10
3.4592900000000002
20
3.9850600000000003
10
3.6251330000000004
20
3.5341360000000006
10
3.8062430000000003
20
3.1602320000000006
10
4.0317629999999998
20
2.8120060000000002
10
4.330838
20
2.438104
10
4.748456
20
1.977989
10
5.1154169999999999
20
1.6410389999999999
10
5.4685009999999998
20
1.3977649999999999
10
5.8444820000000011
20
1.21868
10
6.2990779999999997
20
1.0694310000000002
10
6.7833399999999999
20
0.96979700000000002
10
7.3144410000000004
20
0.91734599999999999
10
7.9095550000000001
20
0.90967299999999995
10
8.479946
20
0.93581299999999989
10
8.9032320000000009
20
1.0077479999999999
10
9.3125929999999997
20
1.114547
10
9.7085119999999989
20
1.2490829999999999
10
10.087602
20
1.4094229999999999
10
10.446483000000002
20
1.5936360000000003
10
10.781771000000003
20
1.7997940000000001
10
11.090082000000001
20
2.0259709999999997
10
11.368036999999999
20
2.270232
10
11.612248000000001
20
2.5306420000000003
10
11.973573
20
3.0338160000000003
10
12.261514
20
3.5930160000000004
10
12.468619
20
4.1900430000000002
10
12.587422000000002
20
4.8066649999999997
10
12.599911000000002
20
5.4191540000000007
10
12.543012000000001
20
6.0482959999999997
10
12.391276
20
6.7530780000000004
10
12.23954
20
7.2677270000000016
10
12.065294
20
7.6150029999999997
10
11.844073
20
7.9517490000000013
10
11.580608999999999
20
8.2736509999999992
10
11.279635000000001
20
8.5764380000000013
10
10.945872999999999
20
8.8557980000000001
10
10.584047999999999
20
9.1074490000000008
10
10.198894000000001
20
9.3270920000000004
10
9.7951339999999991
20
9.5104350000000011
10
9.3845139999999994
20
9.6439839999999997
10
8.929136999999999
20
9.7391970000000008
10
8.4571050000000003
20
9.7917300000000012
10
7.9965229999999998
20
9.7972600000000014
10
7.5623679999999993
20
9.7644219999999997
10
7.0990699999999993
20
9.6843940000000011
10
6.5027999999999997
20
9.5245060000000024
10
5.980258000000001
20
9.3032059999999994
10
5.5239839999999996
20
9.0166780000000006
10
5.126519
20
8.6611070000000012
10
4.9205140000000007
20
8.4177750000000007
10
4.7427859999999997
20
8.1522449999999989
10
4.5917750000000002
20
7.8617270000000001
10
4.4659209999999998
20
7.543457000000001
10
4.3118989999999995
20
6.9572780000000005
10
4.2663030000000006
20
6.4040600000000003
10
4.2842150000000006
20
6.1388309999999997
10
4.3293029999999995
20
5.8806780000000005
10
4.4015789999999999
20
5.6291989999999998
10
4.5010729999999999
20
5.38401
10
4.5732410000000003
20
5.2230239999999997
10
4.4825680000000006
20
5.2156160000000007
10
4.0902810000000001
20
5.278994
10
3.5647600000000002
20
5.4506180000000004
10
3.3908209999999999
20
5.5227860000000009
10
3.7535040000000004
20
6.0242510000000005
10
3.797914
20
6.0834670000000006
10
3.5888160000000009
20
6.2611090000000003
10
3.3741680000000001
20
6.4535480000000014
10
3.4999960000000003
20
6.5664250000000006
10
3.6295250000000001
20
6.6829999999999998
10
3.4259780000000002
20
6.9513140000000009
10
3.222432
20
7.2233240000000007
10
3.4056240000000004
20
7.4546310000000009
10
3.5777120000000009
20
7.6803789999999994
10
2.7135670000000003
20
8.1762920000000001
10
2.8430960000000001
20
7.8950270000000007
10
2.9818750000000001
20
7.5878589999999999
10
2.7080160000000002
20
7.2455310000000006
10
2.4119470000000001
20
6.8957990000000002
10
2.421446
20
6.8308040000000005
10
2.5544460000000004
20
6.6367380000000011
10
2.7228319999999999
20
6.3998850000000012
10
2.5396429999999999
20
6.1426790000000011
10
2.3582999999999998
20
5.8928700000000003
10
2.4508200000000002
20
5.7818480000000001
10
2.5630029999999997
20
5.6180839999999996
10
2.5622090000000002
20
5.569509
10
2.5319960000000004
20
5.5153879999999997
10
2.3564080000000001
20
5.3096139999999998
10
2.1168070000000001
20
5.1099120000000013
10
1.8442460000000001
20
4.9390099999999997
10
1.5697760000000003
20
4.8196240000000001
10
1.4198920000000002
20
4.7960229999999999
10
1.382943
20
4.8373120000000007
10
1.3477270000000003
20
4.92509
10
1.2418480000000001
20
5.290318000000001
10
1.1737839999999999
20
5.697178000000001
10
1.1431959999999999
20
6.1491419999999994
10
1.149705
20
6.6496810000000011
10
1.1985390000000002
20
7.2577200000000008
10
1.2864070000000003
20
7.9014940000000013
10
1.408623
20
8.5508179999999996
10
1.5604990000000001
20
9.1755070000000014
10
1.5887200000000001
20
9.2978690000000004
10
1.5641930000000002
20
9.3383450000000003
10
1.288481
20
9.5307870000000001
10
0.82601900000000006
20
9.8783809999999992
10
0.46851100000000001
20
10.199257000000001
10
0.24943900000000002
20
10.459760000000003
10
0.20227899999999999
20
10.556857000000001
10
0.20228200000000002
20
10.626242
10
0.23398200000000005
20
10.663455000000003
10
0.288991
20
10.683192999999999
10
0.47822399999999998
20
10.668111999999999
10
0.78854800000000003
20
10.577066000000002
10
1.2385170000000001
20
10.406047000000001
10
1.8991180000000001
20
10.169192000000001
10
2.0686049999999998
20
10.14062
10
2.1544759999999998
20
10.165491000000003
10
2.1839369999999998
20
10.208716000000003
10
2.1542450000000004
20
10.283688
10
1.7751400000000004
20
10.750225
10
0.72040000000000004
20
12.051072999999999
10
0.55547899999999995
20
12.330250999999999
10
0.50574800000000009
20
12.535888000000002
10
0.519401
20
12.613141000000001
10
0.55941600000000014
20
12.643226
10
0.62880600000000009
20
12.652407
10
0.71207600000000015
20
12.632114000000001
10
0.97021099999999993
20
12.482230000000001
10
2.278457
20
11.534815
10
2.8308090000000004
20
11.161951000000002
10
2.9695909999999999
20
11.120030999999999
10
3.0556360000000007
20
11.155482000000001
10
3.0864970000000005
20
11.20992
0
LWPOLYLINE
5
103
100
AcDbEntity
8
0
100
AcDbPolyline
90
11
70
1
43
0.0
10
8.7800870000000018
20
8.7884030000000006
10
7.6957690000000012
20
8.8295619999999992
10
6.4021919999999994
20
4.2200489999999995
10
8.3615770000000005
20
5.5164730000000004
10
8.228415
20
3.0470930000000003
10
7.6196720000000004
20
3.3969199999999997
10
8.1903699999999997
20
1.8329810000000002
10
9.1034820000000014
20
3.1911400000000008
10
8.6088780000000007
20
3.0882490000000007
10
9.4839450000000003
20
6.7923210000000012
10
7.5816300000000014
20
5.7222530000000003
0
LWPOLYLINE
5
104
100
AcDbEntity
8
0
100
AcDbPolyline
90
17
70
1
43
0.0
10
1.9847510000000002
20
8.0058399999999992
10
1.8902810000000003
20
7.9816039999999999
10
1.8080650000000005
20
7.9280550000000005
10
1.7451890000000001
20
7.8515190000000015
10
1.7087509999999999
20
7.7583060000000001
10
1.7058400000000005
20
7.6547330000000002
10
1.743538
20
7.5470970000000008
10
1.8514430000000002
20
7.4380100000000002
10
1.9933470000000004
20
7.3974460000000004
10
2.138026
20
7.4266190000000005
10
2.2542550000000001
20
7.5267399999999993
10
2.3010099999999998
20
7.6339200000000007
10
2.3036560000000001
20
7.7443970000000011
10
2.2634950000000003
20
7.8496670000000002
10
2.1822220000000003
20
7.9412370000000001
10
2.18208
20
7.9412230000000008
10
2.0843820000000002
20
7.9944889999999997
0
LWPOLYLINE
5
105
100
AcDbEntity
8
0
100
AcDbPolyline
90
11
70
1
43
0.0
10
9.3234115776615294
20
3.339032142442611
10
8.7423189000535686
20
3.2181491599116159
10
9.6337047564357121
20
6.9912972637952322
10
7.7767421731826776
20
5.9467403751955983
10
8.9244277688890925
20
8.8829960683704243
10
7.6207880374373644
20
8.9324801751608867
10
6.2333236004873189
20
3.9884100818004571
10
8.2510210804669786
20
5.323416442360096
10
8.1373124560048264
20
3.214783325747661
10
7.4317204507450763
20
3.6202666486343356
10
8.163763921219779
20
1.6141770300081351
0
LWPOLYLINE
5
106
100
AcDbEntity
8
0
100
AcDbPolyline
90
16
70
1
43
0.0
10
2.176576023074472
20
7.79695153400381
10
2.1191795959854036
20
7.8616198842375411
10
2.0536591117230634
20
7.8973423567008236
10
1.9917459451996378
20
7.9043961487254677
10
1.9310695671852889
20
7.8888298028214168
10
1.8755530159803824
20
7.852670712127737
10
1.8325420234630783
20
7.8003154521986016
10
1.8082226821929694
20
7.7381035097810527
10
1.8063189997931226
20
7.6703707384999245
10
1.830471950390782
20
7.6014088044310153
10
1.9041152575855542
20
7.5269588025594061
10
1.9974347830306838
20
7.5002829285166994
10
2.0925962067626407
20
7.5194712296145259
10
2.1717136429163313
20
7.5876239008509945
10
2.2015083461360088
20
7.6559245380253103
10
2.2032137363478732
20
7.7271287687267769
0
LWPOLYLINE
5
107
100
AcDbEntity
8
0
100
AcDbPolyline
90
239
70
1
43
0.0
10
8.9133377337987483
20
9.6403379384523511
10
8.4509593060448722
20
9.6917965809706423
10
7.9996998500465821
20
9.6972146493963969
10
7.5746778728789135
20
9.6650674400213283
10
7.1205750292403884
20
9.5866277697212112
10
6.5354050253269866
20
9.4297162001542283
10
6.0266439233665894
20
9.2142525018030188
10
5.584341664071145
20
8.9364983853041515
10
5.1983605141106572
20
8.5912008031960401
10
5.0004797348748964
20
8.3574650891454283
10
4.8289645241880814
20
8.1012171490703118
10
4.6828766800878547
20
7.8201704154395877
10
4.5611163255662133
20
7.5122527645615635
10
4.4108416805850075
20
6.9403354987135799
10
4.3665809051231044
20
6.4033178287538561
10
4.383632038276895
20
6.1508359732800599
10
4.4268908786445067
20
5.9031558939369884
10
4.4962282666142208
20
5.6619015773002692
10
4.5930588178796485
20
5.4232762729179029
10
4.7223464898906329
20
5.1348727538185779
10
4.4786072718223116
20
5.1149592169614122
10
4.0666416510906291
20
5.1815165005592174
10
3.5300241490230313
20
5.3567643825179783
10
3.2356640291055463
20
5.4788955959560512
10
3.6617079893385469
20
6.0679668634768378
10
3.5230546958248059
20
6.1857616217546223
10
3.2243886676199174
20
6.4535255506135947
10
3.433159872947936
20
6.6408087256128834
10
3.4942821164330917
20
6.6958182256806831
10
3.3461098835013656
20
6.8911376580812744
10
3.0962389468011997
20
7.2250542837669283
10
3.3266570634374846
20
7.5159912422847075
10
3.4290944759513997
20
7.6503704029478046
10
2.9353466136687292
20
7.9337209790990135
10
3.0982230810512594
20
7.5732165891483927
10
2.7852361807600783
20
7.1819781065610773
10
2.5181914717663467
20
6.8665310987156234
10
2.6364470742809165
20
6.6939792809893648
10
2.845565187485585
20
6.3998321876035416
10
2.6208336485535764
20
6.084298502706817
10
2.4849438122130763
20
5.8971034958613142
10
2.5306571687693138
20
5.8422484561770673
10
2.6635104306977175
20
5.6483101447890371
10
2.6617845737157859
20
5.5427263879913262
10
2.6144885524329595
20
5.4580043157757956
10
2.4269612648562884
20
5.238238499923904
10
2.1756478044966481
20
5.0287744298209383
10
1.8910128048570249
20
4.8503017550493785
10
1.5979491016948246
20
4.7228280666108517
10
1.3816739112242258
20
4.688772992218011
10
1.296687189163779
20
4.783742186706462
10
1.2530660374182447
20
4.8924705334215783
10
1.1441800482871194
20
5.2680710966908064
10
1.0743439747241628
20
5.6855238601167652
10
1.043152038324539
20
6.1464115396943626
10
1.0497571203133529
20
6.6543391988737906
10
1.0990822124268811
20
7.2684928558262758
10
1.1876664630191232
20
7.9175145399521227
10
1.3108338444994403
20
8.5718931549642772
10
1.4631898841233322
20
9.1985566306721545
10
1.4807385022722872
20
9.274644792464521
10
1.229803972212151
20
9.4497925656257635
10
0.76246017277206202
20
9.8010558058975654
10
0.3964933468390619
20
10.129523899585198
10
0.16491265823293649
20
10.404901237282218
10
0.10227800553146829
20
10.533858762162506
10
0.10228359191828058
20
10.663062578483194
10
0.17513341001460375
20
10.748581830244035
10
0.27547825993791458
20
10.784586968453894
10
0.4964649264424783
20
10.766975347237954
10
0.8204361295055751
20
10.671925392500064
10
1.2731591116720884
20
10.499859690891428
10
1.924503897234553
20
10.266323457697116
10
2.0577561107853222
20
10.24385989267105
10
1.6974982448497653
20
10.687203093103587
10
0.63806430639361844
20
11.993840292766823
10
0.46178910961212816
20
12.29223865857265
10
0.40363546124937633
20
12.532703193538193
10
0.42778945963465376
20
12.669374169679541
10
0.52029109096054227
20
12.738920879124482
10
0.63427175428928417
20
12.754001675637255
10
0.74979272819904752
20
12.725849074177535
10
1.0247827300589971
20
12.566178353667814
10
2.3357743991341908
20
11.61677497528418
10
2.8742138058889326
20
11.25330264068559
10
2.9644197882032604
20
11.226055340757526
10
2.9856521264061024
20
11.234803177606024
10
2.9890822287151564
20
11.240853788717143
10
2.9932169027402895
20
11.282386268333564
10
2.9452744387085481
20
11.490011477774543
10
2.803718017669123
20
11.812558849862766
10
2.56344861120547
20
12.251143949063168
10
2.3464926439171663
20
12.693998009575363
10
2.3309366035516614
20
12.876335204023487
10
2.481147534255967
20
12.970814688224028
10
2.7024257482842264
20
12.873236173806291
10
3.1449194705084906
20
12.547686170466573
10
3.7919762066061713
20
12.061473210860637
10
3.9635142357140056
20
11.939144912124235
10
4.0248362896427095
20
11.975739521019994
10
4.3546206577955822
20
12.145368822144633
10
4.7707556356116099
20
12.325216522408775
10
5.6794877764534331
20
12.641356692668923
10
6.6042580250527037
20
12.855950558901426
10
7.5066663227312613
20
12.957996176019419
10
7.954340620602518
20
12.967043246748984
10
8.3991259866030514
20
12.948000155562644
10
9.2781466432120894
20
12.826533936589632
10
10.045456103074237
20
12.620492350137567
10
10.767599535121587
20
12.329622124195136
10
10.960745572669987
20
12.238209142958119
10
11.14202834071305
20
12.362479538752835
10
11.575488005809902
20
12.671821154749765
10
11.871100322434975
20
12.869616711925609
10
12.130624253761017
20
12.980290168832436
10
12.140906769397846
20
12.977411064454262
10
12.236835531020784
20
12.997810995997146
10
12.356546577004742
20
12.941201839417385
10
12.439087987566847
20
12.817144533727451
10
12.346910537470885
20
12.592975383760983
10
12.143597815244128
20
12.29416946510514
10
11.863642534011042
20
11.849588895256298
10
11.802227805161476
20
11.685436894283958
10
11.778826731691183
20
11.534999384097533
10
11.780338093119971
20
11.400223810292259
10
11.792762736794678
20
11.374230938355236
10
11.798492525976769
20
11.37087034328038
10
11.828810506766207
20
11.368391667911677
10
12.013707915647968
20
11.424985900162641
10
12.318488785671546
20
11.591852355945189
10
12.752096689229669
20
11.878909815071026
10
13.154562406769264
20
12.148160930694631
10
13.433838848164338
20
12.302985113162501
10
13.636133051895719
20
12.348198932932545
10
13.73754212107481
20
12.275949011374486
10
13.761037689390776
20
12.167437249237146
10
13.734649614783965
20
12.047368785899925
10
13.663771875299918
20
11.910249499304523
10
13.380552463789391
20
11.520328079119086
10
12.927271344015521
20
10.898398010906888
10
12.862116205674782
20
10.743920423753837
10
12.845080088479442
20
10.597149700230146
10
12.852305393997398
20
10.517053999093646
10
12.868341183707212
20
10.484856803887121
10
12.892983587918529
20
10.46928944850608
10
12.951383653277617
20
10.461434424263524
10
13.192767894101278
20
10.523390347938053
10
13.715319072045434
20
10.75791471942946
10
14.282669612260079
20
11.019843011464427
10
14.570469390882542
20
11.104274489157099
10
14.810912976073617
20
11.063499998959145
10
14.752257028154101
20
10.824067429972322
10
14.605096008236968
20
10.619996978187444
10
14.366775098172145
20
10.353409522312267
10
13.728242579553715
20
9.7402570176664565
10
13.578588675875892
20
9.6084520374077869
10
13.60631153049874
20
9.5415342676769264
10
13.96796941547356
20
8.4435120673485269
10
14.054826982866169
20
8.0583452955963271
10
14.126465353676771
20
7.4550420964045818
10
14.183769439517938
20
6.7038277790371934
10
14.196592795095279
20
6.0310590112328901
10
14.164784258244886
20
5.4345868370639252
10
14.088023225909872
20
4.9122827743062389
10
13.967865729873271
20
4.4602830459301419
10
13.76507764737884
20
3.9086852802779681
10
13.556479737809674
20
3.3816028736283594
10
13.396159194045627
20
3.0279353347857754
10
13.176867851044161
20
2.6693898050100011
10
12.895325494858486
20
2.3023378861165726
10
12.545309457522045
20
1.9177647324587721
10
11.809394620155196
20
1.2439143698686053
10
11.444855193495494
20
0.96135997954820174
10
11.12791650176878
20
0.75354626503808442
10
10.517396833728988
20
0.47033210801093772
10
9.6922255756471714
20
0.19387200284589778
10
9.1284652610815247
20
0.046049159678028723
10
8.6526227943093996
20
-0.011862063464629464
10
7.7780031887702359
20
-0.023543296982249575
10
7.028526961271635
20
0.018342728860797075
10
6.1567094500605144
20
0.23354100305570885
10
5.7306830979783658
20
0.37157460632833844
10
5.4201268787239414
20
0.49797803062558382
10
5.0788409826703971
20
0.70327674088414616
10
4.7389059052721185
20
0.95775128994306491
10
4.2836699756482064
20
1.4097977523820466
10
3.8662960755105917
20
1.9462473399176183
10
3.5195907545902405
20
2.5196713807849438
10
3.2777073830664221
20
3.0819327741558618
10
3.1350494404525002
20
3.5900808144848191
10
3.0177979423795414
20
4.1657225641624285
10
2.9267609758027961
20
4.8010378500623467
10
2.8634051694319673
20
5.4868402383744073
10
2.8479680562614558
20
5.9419747077002345
10
2.8493520479683272
20
6.1102609857686252
10
2.913401343113625
20
6.6680813480900616
10
3.0559142817996787
20
6.1333109984757428
10
3.1328717612934982
20
5.6137140228401261
10
3.2342380804856048
20
5.1202598562729111
10
3.5543557897135427
20
4.0162822157364104
10
3.7172828579985797
20
3.5732865792647974
10
3.8935428913949099
20
3.2093953997218581
10
4.1129791864508807
20
2.8705632638484957
10
4.4069815633515663
20
2.5030030307032307
10
4.8194438380464897
20
2.0485684049896498
10
5.1779060089009263
20
1.7194221783622892
10
5.5186861739945847
20
1.4846254900869935
10
5.881730425231062
20
1.3117024441546608
10
6.3248347057774961
20
1.1662263054132844
10
6.7983711665947189
20
1.0687990207263518
10
7.3200098388831014
20
1.017282510683633
10
7.9079091878581824
20
1.0097025315457104
10
8.4692397495467535
20
1.0354273078527334
10
8.8821931240511987
20
1.1056063380946437
10
9.2838463339605113
20
1.2103944375108184
10
9.6729007432173812
20
1.3425978023500469
10
10.045233786828661
20
1.5000798784075329
10
10.397388589736391
20
1.6808403330095922
10
10.72591387406829
20
1.882840152768412
10
11.027379846806323
20
2.1039956396500683
10
11.298397881098092
20
2.342160580284856
10
11.534833712264437
20
2.5942796690811316
10
11.88804374780702
20
3.0861529311695697
10
12.169361339065031
20
3.6324898440492195
10
12.371785334670424
20
4.2160227902567025
10
12.487616430711894
20
4.8172197474318743
10
12.49981894980796
20
5.4156590715275268
10
12.4439679744755
20
6.0332128830639906
10
12.294301997396005
20
6.7283800593309344
10
12.146150442247778
20
7.2308715557818726
10
11.978522239963649
20
7.5649581435739774
10
11.76337040422656
20
7.8924655686245906
10
11.50628217046757
20
8.2065776166595636
10
11.211939865209734
20
8.5026929740728452
10
10.88511087868509
20
8.7762500167425443
10
10.530623003151906
20
9.0227980119496234
10
10.153355621993949
20
9.23794348466879
10
9.7588833959129531
20
9.4170690081143213
10
9.3587409258644403
20
9.5472103230344612
0
LWPOLYLINE
5
108
100
AcDbEntity
8
0
100
AcDbPolyline
90
43
70
1
43
0.0
10
3.6941859993999318
20
15.566955
10
3.8037082569063765
20
15.259344899902302
10
4.0432021550671857
20
14.705401518439364
10
4.2282640716579554
20
14.357393772162354
10
4.4237855819787217
20
14.04883090066682
10
4.6379304830235411
20
13.767258003585818
10
4.8815783110285329
20
13.497266191230503
10
5.3438320925708602
20
13.002276305100477
10
4.7256463643722038
20
13.189477699501326
10
4.353309942083083
20
13.299001437575752
10
3.9941445005937348
20
13.373382140960988
10
3.6263071840846388
20
13.416585498155296
10
3.229233383250242
20
13.431431304690095
10
2.7198747568152379
20
13.433967587040927
10
2.8176353260413962
20
13.720505050612299
10
2.8568727209723632
20
13.857323867588558
10
2.8575159653918836
20
13.970690430674292
10
2.8030662304319041
20
14.184822475300738
10
2.676852822056329
20
14.376279139744639
10
2.468954333256776
20
14.549243779274759
10
2.2085964114577292
20
14.700389129032679
10
1.7394619206053965
20
14.866204567514744
10
1.1811428061360949
20
14.99894109567829
10
0.92831632660417251
20
15.04420914478902
10
1.0244481221073418
20
15.23646036744125
10
1.0524211300625868
20
15.312940583637504
10
1.0574489701364294
20
15.383591718264981
10
1.0010964785674037
20
15.571171546741244
10
0.89943009081596081
20
15.718667452867068
10
0.73608084649608663
20
15.883234712214268
10
0.51346842610568022
20
16.05858663118995
10
0.23236622572547727
20
16.242705416391821
10
-0.023534999999999598
20
16.396698727776414
10
-0.023535000000000188
20
16.462301596661543
10
-0.032641236178166527
20
16.461486112824517
10
-0.0019393119481549148
20
16.849093750130809
10
0.41345524510658027
20
16.625003165681974
10
1.0490465239149251
20
16.299110939273515
10
1.6911623929072996
20
16.015824234864827
10
2.296980692849111
20
15.792275112382569
10
2.8222454635983842
20
15.646033187868882
10
3.1615433843789198
20
15.586942533622521
10
3.4494658209857993
20
15.566955
0
LWPOLYLINE
5
109
100
AcDbEntity
8
0
100
AcDbPolyline
90
70
70
1
43
0.0
10
12.327364913058778
20
14.539837115223833
10
12.473444792742509
20
14.809356836736271
10
12.605557273320773
20
15.088234001517261
10
12.721598526946957
20
15.373765544357809
10
12.832287272801043
20
15.66816924814133
10
13.182045298061038
20
15.670471743690204
10
13.342059368507508
20
15.672541038615373
10
13.452276091986148
20
15.68141519630672
10
13.563804794531752
20
15.702627640630269
10
13.725149826379301
20
15.743025210249254
10
13.93333517724569
20
15.802785122223868
10
14.155850140820803
20
15.875826032182811
10
14.393550743945141
20
15.962492589499986
10
14.646347915912013
20
16.062800517744627
10
15.202127746061135
20
16.306390650939871
10
15.826226346151934
20
16.607992222306233
10
16.180806116123378
20
16.780398503249391
10
16.373205619344841
20
16.860273849406045
10
16.512309282572954
20
16.861301522476008
10
16.509044612587672
20
16.804496264716484
10
16.529208661294955
20
16.762116437843844
10
16.534207000000002
20
16.643988703843281
10
16.534207000000002
20
16.459474302663356
10
16.334016517805196
20
16.360617340506142
10
16.191127403178822
20
16.282932685259009
10
16.053390952174361
20
16.197426032543891
10
15.922927448794781
20
16.106108633878588
10
15.802894566197592
20
16.011644435840893
10
15.696480196869382
20
15.916836335469704
10
15.606945234206668
20
15.824783883782455
10
15.537655916518961
20
15.739166047616418
10
15.491600146460501
20
15.664553679647749
10
15.454432147259382
20
15.568448378927265
10
15.441142532324356
20
15.481415357800616
10
15.449031351667537
20
15.403599481860276
10
15.48031882346034
20
15.323994470407246
10
15.576841331974929
20
15.126630463190109
10
15.253454527927632
20
15.054756302877305
10
14.866013293714904
20
14.965328662684463
10
14.536883230871299
20
14.863876718951488
10
14.392790293369782
20
14.808463392307296
10
14.258807739644714
20
14.748769770408499
10
14.134768070253642
20
14.684857226034243
10
14.020624120224952
20
14.617053457003806
10
13.91960962171045
20
14.544161914017568
10
13.834188316831668
20
14.4662299701608
10
13.764009837799671
20
14.384002948349506
10
13.709257472118457
20
14.298658676127369
10
13.669959864519603
20
14.211223825439788
10
13.646058017157134
20
14.122433536073595
10
13.637541494646824
20
14.032662127836574
10
13.644884574105166
20
13.939583424519356
10
13.665320089300232
20
13.840856281699532
10
13.688684340179869
20
13.764462540142299
10
13.759740031453024
20
13.565645242342214
10
13.524651848584037
20
13.547489555888447
10
13.27604467737194
20
13.542357406597125
10
12.958595106741535
20
13.533924901834379
10
12.712272159651445
20
13.502816715637731
10
12.487325206315454
20
13.458317499268084
10
12.23580325902736
20
13.400252263758501
10
11.714632644204084
20
13.259125795142284
10
11.531836393605188
20
13.206830324758059
10
11.161269069708609
20
13.12777170277025
10
11.389539744779222
20
13.395181786624814
10
11.485908048228959
20
13.479870800100677
10
11.660814155500283
20
13.641071355563959
10
11.833823279281383
20
13.830273217291859
10
12.00463839724863
20
14.04600242498155
10
12.170141068283215
20
14.283956488520388
0
ENDSEC
0
SECTION
2
OBJECTS
0
DICTIONARY
5
C
100
AcDbDictionary
3
ACAD_GROUP
350
D
3
ACAD_MLINESTYLE
350
17
0
DICTIONARY
5
D
100
AcDbDictionary
0
DICTIONARY
5
1A
330
C
100
AcDbDictionary
0
DICTIONARY
5
17
100
AcDbDictionary
0
ENDSEC
0
EOF
